<svg width="193" height="95" viewBox="0 0 193 95" fill="none" xmlns="http://www.w3.org/2000/svg">
<path d="M102.341 72.2831C102.419 72.363 102.502 72.4373 102.59 72.5056C102.615 72.4571 102.633 72.4243 102.649 72.3902C102.751 72.065 102.835 71.7345 102.901 71.4001C103.173 71.0227 103.511 70.5487 103.784 70.1523C103.63 70.4761 103.477 70.7997 103.323 71.123C103.125 71.5363 103.01 72.5041 102.855 72.9329C102.849 72.953 102.848 72.9742 102.852 72.9947C102.857 73.0152 102.866 73.0343 102.88 73.05C102.994 73.2222 103.078 73.4123 103.129 73.6125C103.133 73.6305 103.139 73.6481 103.143 73.666C103.168 73.8209 103.209 73.9726 103.267 74.1185C103.344 74.6958 103.305 75.2828 103.151 75.8447L104.158 73.895L105.337 73.3113L107.562 70.6687C107.194 70.8261 106.871 70.9207 106.866 70.769C106.855 70.4966 106.867 68.907 106.867 68.907L106.781 66.5336C106.781 66.5336 106.752 65.2053 106.752 64.3277C106.753 64.1904 106.754 64.0532 106.755 63.9162C106.758 63.7782 106.762 63.6693 106.769 63.6143C106.774 63.573 106.77 63.5708 106.758 63.6013C106.762 62.9764 106.767 62.3515 106.773 61.7268C106.778 61.2552 106.791 60.7823 106.79 60.3097C106.781 60.072 106.792 59.8341 106.822 59.5981C106.879 59.2545 106.912 58.9067 106.949 58.5595L104.721 63.7365L105.267 61.7074C105.269 61.6951 105.271 61.6833 105.273 61.6714C105.491 60.4265 105.989 59.2197 106.218 57.9765C106.315 57.4486 106.426 56.9245 106.551 56.4042C106.563 56.3528 106.573 56.3007 106.585 56.2493C106.622 56.0977 106.662 55.9467 106.7 55.7954C106.643 55.997 106.599 56.2012 106.551 56.4042C106.456 56.8118 106.375 57.2222 106.288 57.6326C106.264 57.7465 106.239 57.8612 106.218 57.9765C106.183 58.1692 106.15 58.3618 106.115 58.5541L107.479 53.4874C107.477 53.4738 107.479 53.4597 107.477 53.4461L107.478 53.4454C107.521 53.2761 107.892 50.6105 107.892 50.6105C107.892 50.6105 106.675 54.3018 106.541 54.7277C106.457 54.9958 106.194 55.1377 106.114 55.4062C105.928 56.0344 103.451 63.8989 103.421 64.0434C103.38 64.2421 102.885 65.1324 102.848 65.3314C102.735 65.9651 102.75 66.769 102.562 67.3861C102.176 68.645 102.179 70.1577 102.092 70.4172C102.027 70.6083 101.955 71.3225 101.887 71.5137C101.849 71.6193 101.812 71.7257 101.774 71.8346C101.794 71.8498 101.815 71.864 101.836 71.877C102.03 71.9777 102.201 72.1157 102.341 72.2831ZM89.55 86.8154C89.5377 86.7275 89.5054 86.6437 89.4555 86.5703C89.4226 86.5221 89.3982 86.4686 89.3836 86.4121C89.3243 86.166 89.2689 85.9187 89.2172 85.6704C89.2078 85.6211 89.18 85.5772 89.1396 85.5475C88.837 85.2789 88.5683 84.9744 88.3394 84.6407C88.3074 84.6008 88.2753 84.5609 88.2433 84.521C88.3407 84.5163 88.3324 84.4984 88.4237 84.4721L88.3477 84.3773L87.5015 82.0786L89.0503 84.7291L89.0548 84.7341C89.052 84.616 89.0378 84.4984 89.0124 84.383C88.9031 83.845 88.7892 83.3074 88.6846 82.7679C88.6383 82.5315 88.607 82.291 88.5721 82.0527C88.5355 81.7983 88.5028 81.5428 88.4676 81.2876C88.4452 81.1302 88.4133 80.9721 88.3978 80.8136C88.3712 80.5372 88.3511 80.2623 88.3331 79.9852C88.3051 79.5374 88.2803 79.6143 88.2555 79.1661C88.2476 79.0224 88.2465 78.8783 88.2447 78.7334C88.244 78.6867 88.2361 78.649 88.1879 78.6295C87.9446 78.518 87.7219 78.3658 87.5296 78.1796C87.4803 78.1361 87.4338 78.0897 87.3858 78.0452C86.996 75.744 86.2 75.6301 85.733 74.7155C84.9865 74.2371 83.9745 73.565 83.9745 73.565L82.5563 72.3891C82.5563 72.3891 82.9119 73.1701 83.4057 74.2572C83.4677 74.4315 83.5288 74.6062 83.5928 74.7805C83.7437 75.1899 83.899 75.5967 84.0506 76.006C84.1538 76.2824 84.2561 76.5597 84.3576 76.838C84.5272 77.2995 84.6965 77.7603 84.8654 78.2206C84.9427 78.4326 85.0113 78.6482 85.0936 78.8589C85.2808 79.3333 85.4731 79.8062 85.6636 80.2799C85.6938 80.3557 85.7175 80.4341 85.7502 80.5095C85.8296 80.6957 85.913 80.8797 85.9932 81.0648C86.1031 81.3189 86.2117 81.574 86.3202 81.8278C86.386 81.9647 86.4448 82.105 86.4963 82.2479C86.588 82.5329 86.6706 82.8215 86.7482 83.1112C86.8371 83.4341 86.9492 83.7502 87.0835 84.0571C87.1029 84.0997 87.1248 84.1411 87.1493 84.181C87.3299 84.4816 87.5324 84.7685 87.7552 85.0393C87.8102 85.1043 87.8702 85.1658 87.922 85.233C88.1739 85.5593 88.4234 85.8871 88.6756 86.2123C88.8352 86.4182 88.9968 86.6229 89.1604 86.8261C89.3003 86.9983 89.444 87.1672 89.5867 87.3365C89.6121 87.3633 89.639 87.3888 89.6672 87.4127C89.6737 87.4079 89.6807 87.4038 89.688 87.4005C89.6794 87.3685 89.6708 87.3365 89.6629 87.3056C89.6241 87.1424 89.5759 86.9803 89.55 86.8154ZM82.579 53.2721C82.5808 53.3383 82.5785 53.4046 82.5721 53.4705C82.5608 53.5757 82.5705 53.6821 82.6005 53.7836C82.6362 53.9111 82.6526 54.0433 82.649 54.1756C82.6426 54.7191 82.6388 55.2618 82.6375 55.804C82.6323 55.9254 82.6412 56.047 82.6641 56.1663C82.7335 56.4574 82.8036 56.7507 82.9013 57.0335C83.0102 57.3487 83.1206 57.6639 83.2298 57.9791C83.2281 58.2142 83.2464 58.449 83.2844 58.6809L83.9745 60.9444L82.6828 57.8522V58.2148C82.6821 58.4297 82.6807 58.6439 82.6814 58.8578C82.6743 58.9549 82.6786 59.0524 82.6943 59.1485C82.7383 59.326 82.7775 59.5047 82.8253 59.6811L83.1274 60.3018L83.6514 61.8561L84.8019 64.8251L82.731 61.6944C82.7315 61.7548 82.7317 61.8148 82.7342 61.8756C82.745 62.1095 82.7569 62.3428 82.7691 62.5767C82.7721 62.6544 82.7793 62.7319 82.7906 62.8089C82.8093 62.9329 82.846 63.0533 82.8546 63.1776C82.8617 63.3294 82.8771 63.4807 82.9006 63.6308C82.9578 63.9561 83.0012 64.2838 83.0595 64.6087C83.1015 64.8434 83.1644 65.073 83.2104 65.3073C83.283 65.6739 83.3409 66.0441 83.4214 66.4096C83.4278 66.4387 83.4307 66.4675 83.4365 66.4966C83.4104 66.8864 83.4053 67.2774 83.4212 67.6678C83.4175 67.7117 83.4257 67.7558 83.4451 67.7954C83.3576 67.895 83.4783 70.2249 83.4783 70.2249C83.436 70.8758 83.483 71.5295 83.6179 72.1677C83.6179 72.1695 84.3152 73.1022 84.3601 73.1676C84.4293 73.2611 84.5034 73.3508 84.5822 73.4364C84.9049 73.8071 85.3112 74.0956 85.7675 74.2781C85.8306 74.3073 85.8891 74.3456 85.9412 74.3916C86.3932 75.0324 86.9184 75.6894 87.0929 75.6362C87.0938 75.6337 87.0715 75.5866 87.0449 75.5043L87.0458 75.5047C87.0336 75.2894 86.9588 74.9728 86.9588 74.7147C86.9589 74.5128 86.9882 74.312 87.0458 74.1185C87.1173 73.8132 87.2072 73.5124 87.315 73.2179C87.327 73.1952 87.3344 73.1708 87.3473 73.1485C87.3637 73.1203 87.3745 73.0892 87.3793 73.0569C87.4959 72.7448 87.6637 72.4544 87.8758 72.1976C87.96 72.1172 88.0491 72.0422 88.1427 71.973C88.2027 71.9295 88.1948 71.8784 88.1818 71.8184C88.0859 71.3606 87.9691 70.3827 87.9202 69.9158C87.8929 69.652 87.8343 69.3918 87.7922 69.1305C87.7301 68.733 87.6765 68.3349 87.605 67.9399C87.5713 67.7479 87.5199 67.5593 87.4515 67.3767C87.3678 67.1589 87.2506 66.9552 87.1608 66.7392C87.0888 66.571 87.0292 66.3978 86.9825 66.2209C86.8862 65.8357 86.8057 65.4461 86.7159 65.0594C86.6663 64.8473 86.6185 64.6331 86.5592 64.4243C86.3953 63.8511 86.2286 63.2785 86.0589 62.7065C85.9597 62.3701 85.8548 62.0355 85.7559 61.7009C85.6877 61.4687 85.6104 61.2377 85.5637 61.0015C85.4181 60.3993 85.2299 59.8082 85.0005 59.2326C84.8665 58.8459 84.7112 58.4668 84.5851 58.0779C84.4654 57.707 84.3738 57.3275 84.2656 56.9526C83.9885 55.9902 83.7085 55.0277 83.4329 54.0653C83.3125 53.6488 83.1996 53.2319 83.0843 52.8146C83.0702 52.7661 83.0645 52.7151 83.0487 52.6666C83.0188 52.5731 82.98 52.4822 82.9527 52.3877C82.9157 52.2572 82.8912 52.1232 82.8517 51.9931C82.778 51.7462 82.6986 51.5018 82.6203 51.257C82.6181 51.2502 82.602 51.2462 82.5905 51.2398C82.553 51.314 82.5409 51.3985 82.5563 51.4802C82.5624 52.0775 82.5714 52.6741 82.579 53.2721ZM106.781 72.6098L104.31 74.157L103.061 76.208C102.855 76.9469 102.559 77.6579 102.182 78.3255C102.177 78.3345 102.175 78.3421 102.171 78.351C102.022 78.4678 101.885 78.5652 101.885 78.5652L101.678 78.7327L101.675 78.7791C101.675 78.7791 101.659 78.9254 101.648 78.9983C101.639 79.0634 101.618 79.1284 101.615 79.1949C101.596 79.4971 101.578 79.8023 101.565 80.1063C101.539 80.6795 101.521 81.2528 101.491 81.8263C101.481 82.0046 101.442 82.1814 101.417 82.3589C101.391 82.5322 101.365 82.7065 101.337 82.902C101.514 82.6655 101.688 82.4556 101.839 82.2296C102.02 81.9582 102.181 81.6732 102.352 81.3943C102.428 81.2689 102.494 81.1381 102.561 81.008C102.626 81.0026 102.69 80.9926 102.754 80.9782L103.647 79.7081L102.277 82.902L101.921 83.1237C101.857 83.2502 101.794 83.3768 101.73 83.5032C101.698 83.5658 101.682 83.6351 101.653 83.6988C101.619 83.7816 101.58 83.8624 101.537 83.941C101.446 84.0733 101.397 84.231 101.399 84.392C101.399 84.4153 101.397 84.4386 101.392 84.4614C101.35 84.7862 101.298 85.1101 101.269 85.4368C101.226 85.9266 101.152 86.4129 101.064 86.8966C101 87.2224 100.972 87.5541 100.98 87.886C100.982 87.9216 100.986 87.9564 100.988 87.9927H101.01C101.041 87.9237 101.071 87.8547 101.1 87.785C101.374 87.1374 101.648 86.4899 101.921 85.8425C102.05 85.5381 102.179 85.233 102.312 84.9304C102.456 84.6019 102.592 84.2687 102.751 83.9489C103.009 83.4335 103.284 82.9272 103.553 82.4165C103.727 82.0855 103.896 81.7534 104.076 81.4263C104.261 81.0742 104.425 80.7116 104.567 80.3403C104.65 80.1358 104.717 79.9234 104.798 79.716C104.885 79.4874 104.98 79.2617 105.072 79.0339C105.138 78.8678 105.21 78.7036 105.273 78.5365C105.357 78.314 105.432 78.0894 105.513 77.8666C105.548 77.7674 105.586 77.6689 105.623 77.5704C105.682 77.4102 105.741 77.2499 105.797 77.0889C105.861 76.9095 105.931 76.7306 105.98 76.5469C106.044 76.3029 106.105 76.0578 106.167 75.813C106.84 73.9388 107.966 71.5216 108.424 70.5602L106.781 72.6098ZM95.5671 76.3586C95.6031 76.1353 95.6535 75.9147 95.718 75.698C95.8208 75.3958 95.9553 75.1047 96.0746 74.8093C96.1623 74.5918 96.2535 74.3765 96.3326 74.157C96.3977 73.9446 96.4965 73.744 96.6251 73.5629C96.7186 73.4421 96.8128 73.3239 96.9076 73.2049C96.9184 73.1902 96.9321 73.173 96.9436 73.1579C97.0787 73.058 97.2321 72.9462 97.4251 72.8092C97.4172 72.7482 97.4079 72.6989 97.4036 72.6482C97.3698 72.2594 97.3367 71.3447 97.3037 70.9566C97.2346 70.1401 97.1659 69.3234 97.0974 68.5066C97.0708 68.1918 97.0471 67.8766 97.0205 67.5614C96.9773 67.0558 96.9328 66.5505 96.8896 66.0448C96.8609 65.702 96.8326 65.3598 96.8049 65.0184C96.7761 64.6637 96.7475 64.3096 96.7193 63.9561C96.7107 63.8472 96.7092 63.7383 96.6985 63.6283C96.6618 63.2567 96.6215 62.8833 96.5871 62.5113C96.559 62.208 96.5374 61.9047 96.5123 61.6003C96.4828 61.2434 96.4491 60.8854 96.4232 60.5293C96.4037 60.2522 96.393 59.9758 96.3793 59.698C96.3743 59.5934 96.3721 59.4878 96.3678 59.3828C96.3621 59.2226 96.3563 59.063 96.3491 58.9034C96.3455 58.8179 96.3355 58.7316 96.3333 58.6464C96.3175 58.0646 96.306 57.4827 96.2909 56.9013C96.2816 56.5775 96.2737 56.254 96.2557 55.9309C96.2377 55.611 96.2205 55.2912 96.181 54.9735C96.1012 54.3198 96.0056 53.6671 95.9172 53.0137C95.8208 52.3061 95.7254 51.5987 95.6311 50.8915C95.6009 50.668 95.5815 50.4419 95.552 50.217C95.4866 49.7307 95.0219 46.9055 95.0219 46.9055C95.0074 47.0773 94.981 47.2478 94.943 47.4159C94.937 47.4383 94.9355 47.4618 94.9387 47.4849C94.9491 47.5747 95.2516 52.4326 95.2825 52.9156C95.3148 53.4231 95.3428 53.9291 95.3795 54.4351C95.4068 54.8085 95.4478 55.1812 95.4801 55.5546C95.492 55.6908 95.5024 55.827 95.5146 55.9632C95.5036 55.9374 95.4903 55.9126 95.4747 55.8892C95.419 55.8091 95.3277 55.6592 95.2174 55.4723C95.2099 55.3997 95.336 59.4055 95.336 59.4055L94.3121 49.6182C94.0952 50.1391 93.9389 50.6832 93.8462 51.2398C93.7298 51.5657 93.5726 51.8755 93.3784 52.162L93.3892 52.466C93.3761 52.6299 93.3639 52.7837 93.3527 52.935C93.3394 53.1137 93.3305 53.2933 93.3157 53.472C93.2819 53.8849 93.2453 54.2968 93.2108 54.709C93.182 55.0515 93.1542 55.394 93.1274 55.7365C93.0993 56.0703 93.0656 56.4049 93.0472 56.7395C93.0358 56.9415 93.0451 57.1456 93.0515 57.349C93.072 57.9647 93.1019 58.5821 93.1162 59.1992C93.1242 59.5726 93.1019 59.9474 93.1256 60.3216C93.1638 60.7772 93.1545 61.2356 93.0979 61.6894C93.0641 61.9201 93.0659 62.1559 93.0515 62.3888C93.0451 62.507 93.0408 62.6238 93.0311 62.7403C93.0196 62.8642 93.0063 62.9879 92.9872 63.1111C92.966 63.2445 92.9337 63.3778 92.9114 63.5126C92.8119 64.1167 92.7136 64.7212 92.6167 65.326C92.5818 65.5464 92.5448 65.7645 92.5171 65.9852C92.4834 66.2597 92.4582 66.5347 92.4295 66.8103C92.4104 66.9961 92.3871 67.1823 92.372 67.3681C92.3561 67.5675 92.3497 67.767 92.3353 67.9654C92.3199 68.1832 92.2882 68.4003 92.2821 68.618C92.2645 69.3088 92.2552 70.0006 92.2418 70.691C92.2338 71.0885 92.2571 71.9873 92.1986 72.4039C92.1881 72.4466 92.1852 72.4779 92.1984 72.4854C92.1471 72.907 92.4203 72.8086 92.982 73.2782C92.9788 73.2858 92.9754 73.2969 92.9721 73.3024C93.0033 73.3365 93.0375 73.3677 93.0742 73.3958C93.1406 73.4359 93.2025 73.4831 93.2586 73.5367L93.26 73.5381C93.3159 73.5915 93.3683 73.6484 93.4171 73.7085C93.6518 73.9964 93.8248 74.3297 93.9252 74.6874C93.9787 74.8991 94.0119 75.1153 94.0244 75.3332C94.0474 75.5582 94.0507 75.7857 94.0704 76.0104C94.0891 76.2281 94.12 76.4441 94.1427 76.6619C94.1851 77.0774 94.1858 76.9703 94.2393 77.3854C94.265 77.5866 94.2817 77.7897 94.2958 77.9931C94.167 78.4976 94.0846 79.0129 94.0496 79.5324C94.0303 79.7659 94.0029 79.9852 93.9698 80.1936C93.968 80.172 93.9676 80.1502 93.9658 80.1286C93.9418 79.8288 93.9116 79.5298 93.8864 79.2301C93.8537 78.8499 93.738 78.3988 93.6952 78.02C93.6862 77.9201 93.6696 77.821 93.6456 77.7235C93.6413 77.6995 93.632 77.6757 93.6255 77.6517C93.6094 77.7085 93.6029 77.7677 93.6061 77.8267C93.6072 77.9208 93.5797 78.013 93.5274 78.0912C93.4839 78.1587 93.4465 78.2321 93.4059 78.3029C93.3792 78.3592 93.3468 78.4127 93.3092 78.4624C93.1394 78.6899 92.9405 78.8943 92.7177 79.0702C92.7126 79.073 92.7112 79.0835 92.7105 79.0853C92.74 79.1913 92.7728 79.3994 92.8341 79.592C92.9523 79.902 93.0348 80.2244 93.08 80.553C93.1069 80.7259 93.118 80.9009 93.1382 81.0759C93.1691 81.3462 93.2122 81.6165 93.232 81.8885C93.2524 82.1681 93.2524 82.4499 93.2593 82.7309C93.2643 82.93 93.2593 83.1299 93.2711 83.3286C93.2749 83.3947 93.2774 83.4601 93.2805 83.5262C93.2658 83.7192 93.2573 83.9201 93.2598 84.1343C93.2607 84.2091 93.2632 84.2914 93.267 84.3783C93.254 84.4948 93.234 84.6104 93.2072 84.7245C93.1939 84.8567 93.1313 84.9791 93.0318 85.0673C93.057 85.1737 93.0806 85.2643 93.1008 85.3552C93.1986 85.8051 93.2927 86.2558 93.4246 86.6964C93.4591 86.8114 93.4911 86.9289 93.5159 87.0468C93.5515 87.2186 93.5766 87.3922 93.6111 87.5647C93.616 87.5881 93.6237 87.6111 93.6298 87.6341C93.7047 88.1196 93.7822 88.5584 93.8532 88.8926C93.8544 88.8984 93.8523 88.9027 93.8541 88.9085C93.858 88.9217 93.8614 88.9354 93.8652 88.9487C93.8731 88.9846 93.8812 89.0238 93.8889 89.0572C93.8895 89.0907 93.9009 89.1231 93.9215 89.1496C93.9581 89.2754 93.9968 89.4005 94.0273 89.528C94.0841 89.7613 94.1258 89.9996 94.1786 90.236C94.226 90.4473 94.2825 90.6594 94.3295 90.8718C94.3878 91.1313 94.4374 91.3911 94.4959 91.6499C94.5789 92.019 94.6555 92.3899 94.755 92.7543C94.8327 93.0364 94.9402 93.311 95.0368 93.5881C95.156 93.9306 95.2757 94.2725 95.396 94.6138C95.4092 94.6465 95.424 94.6786 95.4406 94.7097C95.4564 94.5696 95.4701 94.4535 95.4852 94.3377C95.5197 94.0592 95.557 93.78 95.5915 93.5011C95.6282 93.2035 95.662 92.9045 95.6986 92.6069C95.7224 92.4096 95.7504 92.2116 95.7727 92.0146C95.7971 91.8098 95.8129 91.6035 95.8388 91.399C95.8582 91.2409 95.8956 91.0846 95.9107 90.9264C95.9344 90.6587 95.9459 90.3884 95.9653 90.1207C95.9642 90.0271 95.977 89.9338 96.0034 89.8439C96.0539 89.6963 96.0898 89.544 96.1105 89.3893C96.1637 89.1151 96.219 88.8402 96.2722 88.5699C96.2672 88.5645 96.2622 88.5588 96.2568 88.5534C96.2783 88.4204 96.3003 88.2705 96.3222 88.1009C96.4343 87.5359 96.5317 86.5857 96.6331 86.0305C96.6927 85.7095 96.7322 85.3839 96.7739 85.0594C96.8048 84.8276 96.8221 84.594 96.8494 84.3611C96.9012 83.9126 96.9551 83.4641 97.0083 83.0137C97.0384 82.755 97.0686 82.4955 97.0952 82.2357C97.1283 81.9219 97.1707 81.6071 97.1858 81.2923C97.2217 80.5595 97.2433 80.351 97.2742 79.6175C97.2772 79.5893 97.2713 79.5608 97.2574 79.536C97.2435 79.5112 97.2222 79.4914 97.1966 79.4791C97.0907 79.4152 96.9915 79.3408 96.9004 79.257C96.6002 78.9484 96.3763 78.5739 96.2464 78.1634C96.1833 77.9668 96.1352 77.7657 96.1026 77.5618C96.066 77.3519 96.0508 77.1374 96.0257 76.9246C96.017 76.9246 96.0077 76.9239 95.9991 76.9239C95.9797 77.0102 95.9531 77.0957 95.9423 77.183C95.874 77.7361 95.8043 77.7645 95.7439 78.3191C95.6828 78.8779 95.6566 79.4389 95.6447 80.0006C95.5527 79.4008 95.4385 78.788 95.317 78.1778L95.3162 78.1749C95.3369 78.0924 95.3497 78.008 95.3544 77.923C95.3961 77.398 95.4671 76.8757 95.5671 76.3586Z" fill="#D70926"/>
<path d="M129.36 19.3228V27.7641L132.529 19.3235L129.36 19.3228ZM152.179 69.2632C151.761 68.1196 151.279 66.9387 150.744 65.7462L147.959 59.5014L147.921 59.4159H145.391V71.7508H147.132V61.7541C147.501 62.8435 147.925 63.9133 148.403 64.9591L151.456 71.7508H153.92V59.4159H152.179V69.2632ZM159.247 61.1899H162.757V71.7508H164.761V61.1899H168.271V59.4159H159.247V61.1899ZM122.282 59.4159H120.562V64.392H116.486V59.4159H114.482V71.7508H116.486V66.1652H120.562V71.7508H122.567V60.3137L122.991 59.6251L124.293 55.9636L122.567 58.9904L122.282 59.4159ZM138.037 59.4159H136.214V66.8927C136.214 69.274 135.577 70.2896 134.086 70.2896C132.746 70.2896 132.123 69.3099 132.123 67.206V59.4159H130.119V67.5359C130.119 70.4556 131.522 72.0635 134.07 72.0635C136.443 72.0635 138.037 70.3428 138.037 67.7832V66.2572L137.481 66.953L138.037 65.2409V65.1898L138.996 63.7041L139.88 61.4881L138.037 63.8817V59.4159ZM34.6498 67.7516C34.6131 67.9176 34.524 68.3395 34.409 69.0504C34.2645 68.0592 34.1211 67.4181 34.0431 67.1047L32.0873 59.4159H30.5254L28.4891 67.7473C28.4615 67.8558 28.3727 68.2375 28.2447 69.0483C28.1146 68.1749 27.9784 67.5223 27.881 67.1047L25.959 59.4159H24.0765L27.2154 71.7508H29.1224L30.9128 64.6206C31.0564 64.0379 31.1636 63.4469 31.2338 62.8509C31.3026 63.4354 31.4038 64.0156 31.5367 64.589L33.3269 71.7508H35.301L38.3885 59.4159H36.6207L34.6498 67.7516ZM43.8397 60.8434H44.878V70.3227H43.8397V71.7508H47.9202V70.3227H46.8827V60.8434H47.9202V59.4159H43.8397V60.8434ZM56.6358 59.4159H54.6318V71.7508H62.1553V69.9769H56.6358V59.4159ZM70.8 59.431L67.0121 54.5799L68.4855 57.6506L68.0945 57.8001L69.2004 59.3282L69.3085 59.4159H67.4663V71.7508H70.3964C74.037 71.7508 75.9623 69.6154 75.9623 65.5751C75.9623 61.6995 74.1761 59.587 70.8 59.431ZM70.248 69.9769H69.4706V61.1899H70.248C72.8255 61.1899 73.9249 62.5009 73.9249 65.5751C73.9249 68.6601 72.8255 69.9769 70.248 69.9769ZM81.8976 10.5494H83.844V2.09584L87.4753 2.09654V0.290989H83.507L82.2354 0.290253H78.2656V2.09654H81.8976V10.5494ZM90.0636 0.919926V10.6162H92.0112V6.00957L97.1799 6.55371V12.6957L97.7046 12.3485C98.0635 12.0929 98.3765 11.7784 98.6304 11.4184C98.8724 11.096 99.041 10.7246 99.1242 10.3302L99.1264 10.3136L99.1271 10.3064L99.1285 10.3014V0.358556H97.1813V4.73734L92.0108 4.19467L92.0112 0.35782H89.1874C89.5338 0.442694 89.8421 0.640459 90.0636 0.919926ZM31.4508 47.9104L34.2203 43.813L34.2081 19.3228L26.8313 19.3199C27.2102 19.3731 27.5726 19.5098 27.8922 19.7203C28.4006 19.9851 28.8086 20.4085 29.0544 20.9264V41.1917L27.0124 40.2968L26.6573 40.1379C26.6365 40.1293 26.6221 40.1228 26.5833 40.1084L25.8257 39.7763C24.5269 39.164 21.9278 37.5863 20.966 35.1963C20.4381 33.942 20.0981 32.6167 19.9569 31.2631L19.9522 19.3221H14.8018V19.3235H14.7831V30.0729C14.7795 30.1979 14.7759 30.3719 14.7759 30.5659C14.7759 30.7312 14.7781 30.9109 14.7845 31.1093V41.1679L12.7374 40.2716L12.3385 40.0926L12.3378 40.0984L11.5522 39.7526C10.2533 39.1402 7.65281 37.5618 6.69145 35.1719C6.16397 33.9171 5.82382 32.5917 5.68191 31.238L5.67797 19.2969H0.528268L0.518221 29.8371C0.508874 30.0146 0.500961 30.2597 0.500961 30.5422C0.472606 33.0404 1.07194 35.5057 2.24399 37.712C3.97343 40.7322 6.6758 43.0768 9.90977 44.3629L17.1774 47.8853L19.9385 43.7943V41.8479L20.1696 42.0333C21.3832 43.0141 22.7364 43.8082 24.1844 44.3895L31.4508 47.9104ZM108.45 8.88612H107.327C107.032 8.84516 105.287 8.40814 104.793 7.47014C104.496 6.96608 104.297 6.40988 104.207 5.83134H107.121V4.02505H104.212V1.85431H106.325L108.413 1.85505V0.426124L101.353 0.426823C101.701 0.513022 102.011 0.712849 102.232 0.994669C102.236 0.998276 102.238 1.00115 102.242 1.00472V5.42593H102.238L102.242 5.48055V5.55098H102.244L102.259 5.827C102.325 6.8326 102.665 7.80097 103.243 8.62667C104.418 10.1957 106.309 10.5781 106.867 10.668L107.003 10.6903L107.014 10.6917L107.019 10.6924H108.45V8.88612ZM47.4013 47.7422V19.3221L39.9087 19.3199C40.4264 19.4135 40.9121 19.6362 41.3208 19.9674C41.7295 20.2986 42.0481 20.7276 42.2469 21.2146V43.7009L47.4013 47.7422ZM155.759 43.192C154.902 43.1273 150.035 41.8716 148.58 39.1654H148.579C147.728 37.6609 147.168 36.0096 146.928 34.2978L146.905 34.1382H155.06V29.3749H146.937V23.3286L152.983 23.3293L158.675 23.33V19.3235L139.302 19.3199C139.87 19.4203 140.398 19.6789 140.825 20.066C141.253 20.453 141.562 20.9528 141.718 21.5079V33.2836H141.718L141.718 33.3002V33.3562H141.721L141.767 34.2561C141.865 35.5895 142.29 39.026 144.486 42.001C147.73 46.3327 152.974 47.3987 154.519 47.6481C154.519 47.6481 154.801 47.6955 154.896 47.7092L154.927 47.7142H158.776V43.1934C158.776 43.1934 156.511 43.2495 155.759 43.192ZM192.046 46.5296C190.358 45.311 188.739 44.0009 187.194 42.6055L187.006 42.4387C185.38 40.9803 183.863 39.5061 182.496 38.1778C181.733 37.4396 180.785 36.3729 179.872 35.3652C179.284 34.7154 178.714 34.0937 178.193 33.5819L178.084 33.477L180.934 30.9368C181.939 30.1877 182.831 29.299 183.584 28.2975C184.489 26.9706 184.751 25.2743 184.759 23.5219C184.767 21.845 184.773 20.2378 184.773 20.232L184.775 19.3257L163.255 19.3199C163.634 19.3733 163.996 19.51 164.315 19.7203C164.79 19.9677 165.178 20.3528 165.429 20.8251V30.8499H165.427V35.7512L165.429 47.6905H170.583V35.6089H172.972L173.003 35.6254C173.914 36.2214 174.739 36.9378 175.458 37.7552C176.548 38.8865 177.791 40.2759 179.142 41.5719C180.818 43.1812 182.697 44.9818 184.736 46.7093C186.773 48.4755 188.972 50.0442 191.305 51.3943L192.5 52.0599V46.8962L192.046 46.5296ZM173.826 30.8096L173.785 30.8491H172.18V30.8477H170.583V23.3659L173.882 23.3695L174.998 23.3703L177.255 23.3724L179.656 23.3746V24.5095C179.652 24.5444 179.645 24.579 179.635 24.613C179.593 24.7779 179.538 24.9394 179.471 25.096C179.45 25.1456 179.426 25.1995 179.402 25.2455C179.382 25.2915 179.359 25.3232 179.349 25.3455C179.308 25.4238 179.268 25.5043 179.213 25.592C179.11 25.7537 178.508 26.3668 177.934 26.9447L173.826 30.8096ZM69.0095 21.8471L67.0189 19.5032L66.9157 19.3235H62.0252L67.237 28.9875V24.0825H77.3801V19.3235H68.0446L69.0095 21.8471ZM67.6942 49.5859C67.0925 48.9821 66.4492 48.2892 66.4554 48.093C66.4665 47.725 65.4239 45.5985 65.4239 45.5985L66.5815 46.9206L67.0311 47.6912H67.237V35.3013L61.5206 19.3235L51.9367 19.3228V24.0833H62.0816L62.0809 47.6912H65.398L66.9078 50.0459L69.0095 53.0051L67.6942 49.5859ZM117.787 32.7007L118.155 30.3913L114.636 30.0211V19.3221L107.177 19.3199C107.679 19.4108 108.151 19.6227 108.552 19.9372C108.954 20.2517 109.273 20.6593 109.481 21.1248V47.6905H110.316L110.745 47.0321L112.123 43.8138L111.631 47.5L111.599 47.6121L114.637 44.5757V34.8089L126.257 36.0301L127.985 31.4249L119.02 30.4825L117.787 32.7007ZM129.359 44.1875V53.3753L130.599 52.5544C131.588 51.8496 132.451 50.9831 133.153 49.9913C133.815 49.1097 134.276 48.0941 134.505 47.0155L134.511 46.9666L134.513 46.9537L134.513 46.9523V19.3235H132.818L128.452 36.2608L129.359 36.3557V41.7954L131.641 37.4777L130.569 41.293L129.359 44.1875ZM95.6511 24.084H102.629V19.3228L95.2043 19.3221L95.6183 22.4732L95.6511 24.084ZM101.632 45.0773L101.885 43.7915L101.856 42.9526H97.8282C96.9981 42.9039 96.18 42.7301 95.4017 42.4373L96.2196 47.6409C96.2333 47.643 96.2495 47.6459 96.2624 47.6481L96.9629 47.7092L101.59 47.7163L101.816 47.7149H103.862V42.9534H102.942L101.632 45.0773ZM90.6495 38.9246C89.0947 36.1911 88.9596 34.0894 88.9441 33.735V27.2269C88.9438 29.1614 88.9431 31.8269 88.9398 31.8087L88.9409 24.0833L93.9989 24.084L94.1528 22.7471L94.5319 19.3221L81.59 19.3199C81.9685 19.3734 82.3305 19.5101 82.6498 19.7203L82.6545 19.7225C83.0001 19.9687 83.3187 20.2509 83.6051 20.5641C83.6732 20.6631 83.7341 20.7669 83.7873 20.8746V30.8743L83.8901 34.8304L83.8972 34.8923C84.0677 36.455 84.4716 37.9834 85.0955 39.4263C85.0955 39.4263 85.6223 40.5304 85.6874 40.654C85.9247 41.0695 86.188 41.4697 86.4755 41.8522L87.5095 45.2894L89.3618 47.932L88.6401 44.7625C88.6123 44.5384 88.5722 44.316 88.5201 44.0962C88.2519 43.1043 88.0302 42.1498 88.0302 42.1498L88.4945 42.5652L88.0302 38.1188L89.7952 45.0651C90.9512 45.8503 92.2051 46.4807 93.5249 46.9401L94.2113 43.7656L94.3447 44.0984L94.6893 42.1656C93.1134 41.5058 91.4555 40.4305 90.6495 38.9246ZM186.951 15.1338H187.223L187.632 15.8073H187.896L187.453 15.123C187.525 15.1155 187.595 15.0937 187.659 15.059C187.72 15.0292 187.77 14.9806 187.801 14.9203C187.84 14.8523 187.859 14.7749 187.856 14.6967C187.862 14.634 187.853 14.5706 187.83 14.5121C187.806 14.4536 187.768 14.4018 187.72 14.3611C187.599 14.2797 187.454 14.2417 187.308 14.2532H186.718V15.8073H186.951V15.1338ZM186.951 14.4531H187.269C187.497 14.4559 187.609 14.5307 187.609 14.6831C187.609 14.7916 187.579 14.8592 187.515 14.8894C187.425 14.9242 187.329 14.9394 187.233 14.9339H186.951V14.4531ZM186.183 16.0782C186.321 16.2109 186.484 16.3148 186.662 16.3837C186.842 16.4576 187.035 16.4952 187.23 16.4944C187.423 16.4946 187.614 16.4585 187.793 16.388C187.971 16.3171 188.133 16.2118 188.27 16.0782C188.407 15.9447 188.517 15.7858 188.593 15.6103C188.672 15.4262 188.712 15.2282 188.712 15.0281C188.712 14.828 188.672 14.63 188.593 14.4459C188.521 14.2701 188.411 14.1118 188.272 13.9816C187.992 13.7133 187.618 13.5641 187.23 13.5654C187.034 13.5676 186.841 13.6046 186.659 13.6747C186.483 13.7476 186.322 13.8516 186.183 13.9816C186.045 14.1148 185.935 14.2735 185.858 14.4488C185.779 14.6314 185.739 14.8289 185.741 15.0281C185.74 15.2239 185.779 15.4178 185.855 15.5983C185.93 15.7788 186.042 15.942 186.183 16.0782ZM186.124 14.5494C186.182 14.4037 186.27 14.2718 186.382 14.162C186.49 14.0509 186.619 13.9618 186.761 13.8996C186.91 13.8406 187.07 13.8106 187.23 13.8112C187.389 13.8105 187.547 13.8405 187.695 13.8996C187.836 13.9607 187.963 14.0485 188.07 14.1584C188.179 14.2696 188.266 14.401 188.325 14.5451C188.384 14.6991 188.414 14.863 188.413 15.0281C188.416 15.2467 188.362 15.4623 188.258 15.6542C188.156 15.836 188.007 15.9876 187.827 16.0933C187.645 16.1976 187.439 16.2521 187.23 16.2515C187.018 16.2526 186.81 16.1981 186.625 16.0933C186.447 15.986 186.298 15.8348 186.194 15.6542C186.087 15.4631 186.033 15.2471 186.036 15.0281C186.035 14.8644 186.065 14.7021 186.124 14.5494Z" fill="white"/>
</svg>
