<svg width="683" height="350" viewBox="0 0 683 350" fill="none" xmlns="http://www.w3.org/2000/svg">
<g filter="url(#filter0_d_186_241)">
<path d="M361.395 255.518C361.66 255.791 361.944 256.044 362.244 256.277C362.328 256.111 362.391 256 362.443 255.883C362.791 254.774 363.077 253.647 363.302 252.507C364.229 251.22 365.382 249.603 366.311 248.251C365.787 249.356 365.263 250.459 364.739 251.562C364.066 252.971 363.674 256.272 363.145 257.734C363.125 257.803 363.122 257.875 363.137 257.945C363.152 258.015 363.184 258.08 363.231 258.134C363.62 258.721 363.907 259.369 364.081 260.052C364.093 260.113 364.112 260.173 364.127 260.234C364.212 260.762 364.353 261.28 364.548 261.777C364.812 263.746 364.678 265.748 364.154 267.664L367.585 261.015L371.601 259.025L379.179 250.013C377.927 250.549 376.827 250.872 376.807 250.355C376.771 249.426 376.813 244.005 376.813 244.005L376.521 235.911C376.521 235.911 376.42 231.381 376.42 228.388C376.424 227.919 376.428 227.452 376.431 226.984C376.441 226.514 376.454 226.142 376.478 225.955C376.495 225.814 376.481 225.806 376.44 225.911C376.456 223.779 376.473 221.648 376.491 219.518C376.508 217.91 376.552 216.297 376.55 214.685C376.52 213.875 376.556 213.063 376.658 212.258C376.851 211.087 376.965 209.9 377.091 208.716L369.501 226.372L371.361 219.452C371.368 219.41 371.374 219.369 371.381 219.329C372.126 215.084 373.82 210.968 374.601 206.728C374.933 204.928 375.311 203.141 375.735 201.366C375.775 201.191 375.809 201.013 375.852 200.838C375.977 200.321 376.113 199.806 376.241 199.29C376.05 199.978 375.9 200.674 375.735 201.366C375.413 202.756 375.136 204.156 374.841 205.555C374.758 205.944 374.672 206.335 374.601 206.728C374.484 207.385 374.368 208.042 374.251 208.698L378.895 191.419C378.891 191.372 378.898 191.325 378.891 191.278L378.892 191.276C379.039 190.698 380.302 181.608 380.302 181.608C380.302 181.608 376.158 194.196 375.703 195.649C375.414 196.563 374.518 197.047 374.246 197.963C373.612 200.105 365.175 226.925 365.075 227.418C364.935 228.096 363.248 231.132 363.123 231.811C362.736 233.972 362.788 236.713 362.149 238.818C360.834 243.111 360.844 248.27 360.548 249.155C360.325 249.807 360.08 252.242 359.85 252.894C359.72 253.254 359.593 253.617 359.463 253.989C359.531 254.041 359.602 254.089 359.676 254.133C360.335 254.477 360.919 254.947 361.395 255.518ZM317.826 305.078C317.784 304.778 317.674 304.492 317.504 304.242C317.392 304.078 317.309 303.895 317.259 303.703C317.057 302.863 316.868 302.02 316.692 301.173C316.66 301.005 316.566 300.855 316.428 300.754C315.397 299.838 314.482 298.799 313.702 297.661C313.593 297.525 313.484 297.389 313.375 297.253C313.707 297.237 313.678 297.176 313.989 297.087L313.731 296.763L310.848 288.924L316.124 297.963L316.139 297.98C316.129 297.577 316.081 297.176 315.995 296.783C315.622 294.948 315.234 293.114 314.878 291.275C314.72 290.468 314.614 289.648 314.495 288.836C314.37 287.968 314.259 287.097 314.139 286.226C314.063 285.69 313.954 285.15 313.901 284.61C313.811 283.667 313.742 282.73 313.681 281.785C313.585 280.257 313.501 280.52 313.416 278.992C313.39 278.501 313.386 278.01 313.38 277.516C313.377 277.356 313.35 277.228 313.186 277.162C312.357 276.781 311.599 276.262 310.944 275.627C310.776 275.479 310.617 275.321 310.454 275.169C309.126 267.321 306.415 266.933 304.824 263.813C302.281 262.182 298.834 259.89 298.834 259.89L294.004 255.88C294.004 255.88 295.215 258.543 296.897 262.251C297.108 262.845 297.316 263.441 297.534 264.035C298.048 265.431 298.577 266.818 299.094 268.214C299.445 269.157 299.794 270.103 300.139 271.052C300.717 272.626 301.294 274.197 301.869 275.767C302.132 276.49 302.366 277.225 302.646 277.944C303.284 279.561 303.939 281.174 304.588 282.79C304.691 283.048 304.771 283.316 304.883 283.573C305.153 284.208 305.437 284.835 305.71 285.466C306.085 286.333 306.455 287.203 306.824 288.069C307.048 288.536 307.249 289.014 307.424 289.501C307.736 290.473 308.018 291.457 308.282 292.445C308.585 293.547 308.967 294.625 309.424 295.671C309.49 295.817 309.565 295.958 309.649 296.094C310.264 297.119 310.954 298.097 311.712 299.021C311.9 299.243 312.104 299.452 312.281 299.681C313.139 300.794 313.988 301.912 314.848 303.021C315.391 303.723 315.942 304.421 316.499 305.115C316.975 305.702 317.465 306.278 317.951 306.855C318.037 306.946 318.129 307.033 318.225 307.115C318.247 307.099 318.271 307.085 318.296 307.073C318.267 306.964 318.237 306.855 318.21 306.749C318.078 306.193 317.914 305.64 317.826 305.078ZM294.081 190.685C294.087 190.911 294.079 191.137 294.058 191.361C294.019 191.72 294.052 192.083 294.154 192.429C294.276 192.864 294.332 193.315 294.319 193.766C294.297 195.619 294.284 197.47 294.28 199.319C294.262 199.733 294.293 200.148 294.371 200.555C294.607 201.548 294.846 202.548 295.179 203.512C295.55 204.587 295.926 205.662 296.298 206.737C296.292 207.539 296.354 208.339 296.484 209.131L298.834 216.85L294.434 206.304V207.541C294.432 208.274 294.427 209.004 294.43 209.734C294.405 210.065 294.42 210.397 294.474 210.725C294.624 211.331 294.757 211.94 294.92 212.542L295.949 214.658L297.734 219.959L301.653 230.084L294.599 219.408C294.6 219.613 294.601 219.818 294.61 220.025C294.646 220.823 294.687 221.619 294.728 222.416C294.739 222.681 294.763 222.946 294.802 223.208C294.865 223.631 294.99 224.042 295.02 224.466C295.044 224.983 295.096 225.499 295.176 226.011C295.371 227.12 295.519 228.238 295.717 229.346C295.861 230.146 296.075 230.93 296.232 231.729C296.479 232.979 296.676 234.241 296.95 235.488C296.972 235.587 296.982 235.685 297.002 235.784C296.913 237.114 296.895 238.447 296.95 239.779C296.937 239.928 296.965 240.079 297.031 240.214C296.733 240.553 297.144 248.499 297.144 248.499C297 250.719 297.16 252.948 297.62 255.125C297.62 255.131 299.995 258.311 300.148 258.534C300.383 258.853 300.636 259.159 300.904 259.451C302.003 260.715 303.387 261.699 304.942 262.322C305.157 262.421 305.356 262.552 305.533 262.709C307.073 264.894 308.862 267.135 309.456 266.953C309.459 266.945 309.383 266.784 309.293 266.504L309.296 266.505C309.254 265.771 309 264.691 309 263.811C309 263.122 309.1 262.437 309.296 261.777C309.539 260.736 309.846 259.71 310.213 258.706C310.254 258.629 310.279 258.545 310.323 258.47C310.379 258.373 310.416 258.267 310.432 258.157C310.829 257.093 311.401 256.102 312.123 255.226C312.41 254.952 312.714 254.697 313.032 254.461C313.237 254.312 313.21 254.138 313.166 253.933C312.839 252.372 312.441 249.037 312.274 247.445C312.181 246.545 311.982 245.658 311.839 244.767C311.627 243.411 311.444 242.053 311.201 240.707C311.086 240.052 310.911 239.409 310.678 238.786C310.393 238.043 309.994 237.348 309.688 236.612C309.442 236.038 309.239 235.448 309.08 234.844C308.752 233.53 308.478 232.202 308.172 230.883C308.003 230.16 307.84 229.429 307.638 228.717C307.08 226.762 306.512 224.81 305.934 222.859C305.596 221.712 305.239 220.571 304.902 219.429C304.67 218.638 304.407 217.85 304.248 217.045C303.752 214.991 303.111 212.975 302.329 211.012C301.873 209.693 301.344 208.4 300.914 207.074C300.506 205.809 300.194 204.515 299.826 203.237C298.882 199.954 297.928 196.672 296.989 193.39C296.579 191.969 296.195 190.547 295.802 189.125C295.754 188.959 295.735 188.785 295.681 188.62C295.579 188.301 295.447 187.991 295.354 187.669C295.228 187.224 295.144 186.767 295.01 186.323C294.759 185.481 294.488 184.647 294.222 183.813C294.214 183.789 294.159 183.776 294.12 183.754C293.992 184.007 293.951 184.295 294.004 184.574C294.024 186.611 294.055 188.645 294.081 190.685ZM376.521 256.632L368.103 261.909L363.847 268.903C363.145 271.423 362.139 273.848 360.852 276.125C360.835 276.155 360.83 276.181 360.816 276.212C360.308 276.61 359.843 276.942 359.843 276.942L359.137 277.513L359.125 277.671C359.125 277.671 359.071 278.17 359.035 278.419C359.003 278.641 358.934 278.863 358.922 279.09C358.858 280.12 358.797 281.161 358.751 282.198C358.662 284.153 358.601 286.108 358.498 288.064C358.467 288.671 358.332 289.274 358.246 289.88C358.161 290.471 358.072 291.065 357.977 291.732C358.579 290.925 359.172 290.21 359.686 289.439C360.303 288.513 360.851 287.542 361.431 286.59C361.691 286.163 361.915 285.716 362.144 285.273C362.365 285.254 362.585 285.22 362.801 285.171L365.843 280.84L361.177 291.732L359.966 292.488C359.747 292.92 359.532 293.351 359.314 293.782C359.206 293.996 359.15 294.232 359.052 294.449C358.935 294.732 358.804 295.007 358.657 295.275C358.345 295.727 358.181 296.264 358.187 296.813C358.188 296.893 358.179 296.972 358.163 297.05C358.021 298.158 357.842 299.262 357.744 300.376C357.597 302.047 357.345 303.705 357.047 305.355C356.829 306.466 356.733 307.597 356.76 308.729C356.765 308.85 356.78 308.969 356.787 309.093H356.863C356.966 308.858 357.069 308.622 357.166 308.385C358.102 306.176 359.035 303.968 359.965 301.76C360.403 300.722 360.844 299.681 361.297 298.649C361.786 297.529 362.249 296.393 362.793 295.302C363.672 293.545 364.607 291.818 365.523 290.076C366.115 288.947 366.69 287.815 367.305 286.7C367.934 285.499 368.492 284.262 368.977 282.996C369.261 282.298 369.489 281.574 369.763 280.867C370.062 280.087 370.383 279.317 370.696 278.54C370.924 277.974 371.168 277.414 371.384 276.844C371.668 276.085 371.925 275.32 372.199 274.56C372.319 274.221 372.449 273.886 372.574 273.55C372.775 273.003 372.978 272.456 373.169 271.907C373.384 271.296 373.624 270.685 373.791 270.059C374.007 269.227 374.217 268.391 374.428 267.556C376.719 261.165 380.555 252.921 382.114 249.643L376.521 256.632ZM338.322 269.417C338.444 268.656 338.616 267.903 338.836 267.164C339.186 266.133 339.644 265.141 340.05 264.133C340.349 263.392 340.66 262.657 340.929 261.909C341.151 261.184 341.487 260.5 341.926 259.883C342.244 259.471 342.565 259.068 342.888 258.662C342.925 258.612 342.971 258.553 343.01 258.501C343.47 258.161 343.993 257.78 344.651 257.313C344.624 257.104 344.592 256.936 344.577 256.763C344.462 255.437 344.349 252.318 344.237 250.994C344.002 248.21 343.767 245.425 343.534 242.639C343.443 241.566 343.363 240.491 343.272 239.416C343.125 237.691 342.973 235.968 342.826 234.244C342.729 233.074 342.632 231.908 342.538 230.743C342.44 229.534 342.342 228.326 342.246 227.12C342.217 226.749 342.212 226.378 342.175 226.003C342.05 224.735 341.913 223.462 341.796 222.193C341.7 221.159 341.627 220.125 341.541 219.086C341.441 217.869 341.326 216.649 341.238 215.434C341.171 214.489 341.135 213.546 341.088 212.599C341.071 212.242 341.064 211.882 341.049 211.524C341.029 210.978 341.01 210.433 340.985 209.889C340.973 209.598 340.939 209.303 340.932 209.013C340.878 207.029 340.838 205.044 340.787 203.061C340.755 201.957 340.728 200.854 340.667 199.752C340.606 198.661 340.547 197.57 340.413 196.487C340.141 194.258 339.815 192.032 339.514 189.804C339.186 187.39 338.861 184.978 338.539 182.566C338.437 181.804 338.371 181.033 338.27 180.266C338.047 178.608 336.464 168.973 336.464 168.973C336.415 169.558 336.325 170.14 336.196 170.713C336.175 170.79 336.17 170.87 336.181 170.948C336.217 171.255 337.247 187.822 337.352 189.469C337.462 191.2 337.558 192.925 337.683 194.651C337.776 195.924 337.915 197.195 338.025 198.469C338.066 198.933 338.101 199.398 338.143 199.862C338.105 199.774 338.06 199.69 338.007 199.61C337.817 199.337 337.506 198.826 337.13 198.188C337.105 197.941 337.535 211.601 337.535 211.601L334.047 178.224C333.308 180 332.776 181.856 332.46 183.754C332.063 184.865 331.528 185.922 330.866 186.899L330.903 187.936C330.858 188.495 330.817 189.019 330.779 189.535C330.734 190.144 330.703 190.757 330.653 191.366C330.538 192.775 330.413 194.179 330.295 195.585C330.197 196.753 330.103 197.921 330.011 199.089C329.916 200.228 329.801 201.369 329.738 202.51C329.699 203.198 329.731 203.895 329.753 204.588C329.823 206.688 329.924 208.793 329.973 210.898C330 212.171 329.924 213.45 330.005 214.726C330.135 216.28 330.104 217.843 329.911 219.39C329.796 220.177 329.802 220.981 329.753 221.775C329.731 222.179 329.716 222.577 329.683 222.974C329.644 223.397 329.599 223.818 329.534 224.239C329.462 224.694 329.351 225.148 329.276 225.608C328.937 227.668 328.602 229.73 328.272 231.792C328.153 232.544 328.027 233.288 327.933 234.04C327.818 234.977 327.732 235.914 327.634 236.854C327.569 237.488 327.49 238.123 327.438 238.757C327.384 239.437 327.362 240.117 327.313 240.793C327.261 241.536 327.153 242.276 327.132 243.019C327.072 245.375 327.04 247.734 326.995 250.089C326.967 251.444 327.047 254.509 326.847 255.93C326.812 256.076 326.802 256.182 326.847 256.208C326.672 257.646 327.603 257.31 329.516 258.912C329.505 258.938 329.493 258.976 329.482 258.994C329.589 259.111 329.705 259.217 329.83 259.313C330.056 259.449 330.267 259.611 330.458 259.793L330.463 259.798C330.653 259.98 330.832 260.174 330.998 260.379C331.798 261.361 332.387 262.498 332.729 263.718C332.911 264.439 333.024 265.177 333.067 265.92C333.145 266.687 333.156 267.463 333.224 268.229C333.287 268.972 333.393 269.709 333.47 270.451C333.614 271.868 333.617 271.503 333.799 272.918C333.886 273.605 333.943 274.297 333.991 274.991C333.552 276.712 333.272 278.469 333.153 280.24C333.087 281.037 332.993 281.785 332.881 282.495C332.875 282.422 332.873 282.347 332.867 282.274C332.785 281.251 332.683 280.232 332.597 279.21C332.485 277.913 332.091 276.375 331.946 275.083C331.915 274.742 331.858 274.404 331.777 274.072C331.762 273.99 331.73 273.909 331.708 273.827C331.653 274.021 331.631 274.222 331.642 274.424C331.646 274.744 331.552 275.059 331.374 275.326C331.226 275.556 331.098 275.806 330.96 276.047C330.869 276.24 330.759 276.422 330.631 276.592C330.052 277.368 329.375 278.064 328.616 278.664C328.599 278.674 328.594 278.71 328.591 278.716C328.692 279.077 328.804 279.787 329.012 280.444C329.415 281.501 329.696 282.6 329.85 283.721C329.942 284.311 329.979 284.908 330.048 285.504C330.153 286.426 330.3 287.348 330.368 288.276C330.437 289.229 330.437 290.19 330.461 291.149C330.478 291.827 330.461 292.509 330.501 293.187C330.514 293.412 330.522 293.635 330.533 293.861C330.483 294.519 330.454 295.204 330.462 295.935C330.465 296.19 330.474 296.47 330.487 296.767C330.442 297.164 330.374 297.558 330.283 297.947C330.238 298.398 330.024 298.816 329.686 299.116C329.771 299.479 329.852 299.788 329.921 300.098C330.254 301.633 330.574 303.169 331.024 304.672C331.141 305.064 331.25 305.465 331.335 305.867C331.456 306.453 331.542 307.045 331.659 307.633C331.676 307.713 331.702 307.791 331.723 307.87C331.978 309.526 332.242 311.022 332.484 312.162C332.488 312.182 332.48 312.196 332.487 312.216C332.5 312.261 332.512 312.308 332.525 312.353C332.552 312.476 332.579 312.609 332.605 312.723C332.607 312.837 332.646 312.948 332.716 313.038C332.841 313.467 332.973 313.894 333.077 314.329C333.27 315.124 333.412 315.937 333.592 316.743C333.754 317.464 333.946 318.187 334.106 318.911C334.304 319.796 334.473 320.682 334.673 321.565C334.956 322.824 335.216 324.089 335.556 325.331C335.82 326.293 336.186 327.23 336.515 328.175C336.921 329.343 337.329 330.509 337.739 331.673C337.784 331.784 337.834 331.894 337.891 332C337.945 331.522 337.991 331.126 338.042 330.731C338.16 329.782 338.287 328.829 338.405 327.878C338.53 326.863 338.645 325.844 338.77 324.829C338.85 324.156 338.946 323.481 339.022 322.809C339.105 322.11 339.159 321.407 339.247 320.709C339.313 320.17 339.441 319.637 339.492 319.098C339.573 318.185 339.612 317.263 339.678 316.35C339.674 316.031 339.718 315.713 339.808 315.406C339.98 314.903 340.102 314.383 340.173 313.856C340.354 312.921 340.542 311.983 340.723 311.061C340.706 311.043 340.689 311.023 340.671 311.005C340.744 310.551 340.819 310.04 340.894 309.462C341.275 307.535 341.607 304.295 341.953 302.401C342.156 301.306 342.29 300.196 342.432 299.089C342.538 298.299 342.596 297.502 342.689 296.708C342.866 295.178 343.049 293.649 343.231 292.113C343.333 291.231 343.436 290.346 343.527 289.46C343.639 288.39 343.784 287.316 343.835 286.242C343.958 283.743 344.031 283.032 344.136 280.531C344.146 280.434 344.126 280.337 344.079 280.253C344.032 280.168 343.959 280.101 343.872 280.059C343.511 279.841 343.173 279.587 342.863 279.302C341.841 278.249 341.078 276.972 340.635 275.572C340.421 274.901 340.257 274.216 340.146 273.52C340.021 272.805 339.969 272.073 339.884 271.347C339.854 271.347 339.822 271.345 339.793 271.345C339.727 271.639 339.636 271.931 339.6 272.228C339.367 274.115 339.13 274.212 338.924 276.103C338.716 278.008 338.626 279.922 338.586 281.837C338.273 279.792 337.883 277.702 337.47 275.621L337.467 275.611C337.538 275.33 337.581 275.042 337.597 274.752C337.739 272.961 337.981 271.18 338.322 269.417Z" fill="#D70926"/>
<path d="M453.428 74.9069V103.694L464.223 74.9094L453.428 74.9069ZM531.158 245.219C529.733 241.319 528.09 237.292 526.269 233.225L516.784 211.929L516.654 211.637H508.036V253.703H513.966V219.611C515.221 223.326 516.665 226.974 518.294 230.541L528.695 253.703H537.085V211.637H531.158V245.219ZM555.232 217.687H567.188V253.703H574.014V217.687H585.969V211.637H555.232V217.687ZM429.319 211.637H423.463V228.607H409.578V211.637H402.752V253.703H409.578V234.654H423.463V253.703H430.291V214.699L431.733 212.35L436.17 199.864L430.291 210.186L429.319 211.637ZM482.987 211.637H476.775V237.135C476.775 245.256 474.606 248.72 469.528 248.72C464.965 248.72 462.839 245.379 462.839 238.204V211.637H456.014V239.329C456.014 249.286 460.793 254.769 469.472 254.769C477.557 254.769 482.987 248.901 482.987 240.172V234.968L481.092 237.341L482.987 231.502V231.328L486.253 226.261L489.264 218.704L482.987 226.867V211.637ZM130.823 240.064C130.698 240.63 130.394 242.069 130.002 244.494C129.51 241.113 129.022 238.927 128.756 237.858L122.094 211.637H116.774L109.838 240.049C109.744 240.42 109.441 241.721 109.006 244.486C108.562 241.508 108.098 239.282 107.767 237.858L101.22 211.637H94.8075L105.499 253.703H111.995L118.094 229.386C118.583 227.399 118.948 225.384 119.187 223.351C119.421 225.345 119.766 227.324 120.219 229.279L126.317 253.703H133.041L143.558 211.637H137.536L130.823 240.064ZM162.126 216.505H165.663V248.832H162.126V253.703H176.025V248.832H172.491V216.505H176.025V211.637H162.126V216.505ZM205.712 211.637H198.887V253.703H224.513V247.653H205.712V211.637ZM253.959 211.688L241.057 195.145L246.076 205.617L244.744 206.126L248.511 211.338L248.879 211.637H242.604V253.703H252.585C264.986 253.703 271.543 246.42 271.543 232.642C271.543 219.425 265.459 212.22 253.959 211.688ZM252.079 247.653H249.431V217.687H252.079C260.859 217.687 264.604 222.158 264.604 232.642C264.604 243.163 260.859 247.653 252.079 247.653ZM291.76 44.9869H298.391V16.1576L310.76 16.16V10.0025H297.242L292.911 10H279.389V16.16H291.76V44.9869ZM319.576 12.1474V45.2148H326.21V29.5047L343.816 31.3604V52.3063L345.603 51.1224C346.826 50.2508 347.892 49.1783 348.757 47.9504C349.581 46.8511 350.155 45.5844 350.439 44.2393L350.446 44.1829L350.448 44.1583L350.453 44.1412V10.2329H343.821V25.166L326.209 23.3153L326.21 10.2304H316.592C317.771 10.5199 318.821 11.1943 319.576 12.1474ZM119.926 172.4L129.36 158.426L129.318 74.9069L104.191 74.8971C105.482 75.0784 106.716 75.5448 107.805 76.2625C109.536 77.1655 110.926 78.6096 111.764 80.3756V149.487L104.808 146.435L103.598 145.893C103.527 145.864 103.478 145.842 103.346 145.792L100.766 144.66C96.3415 142.572 87.4883 137.191 84.2124 129.041C82.4143 124.763 81.256 120.243 80.7749 115.627L80.759 74.9045H63.2155V74.9094H63.1518V111.568C63.1395 111.994 63.1273 112.588 63.1273 113.25C63.1273 113.813 63.1346 114.426 63.1567 115.103V149.406L56.1838 146.349L54.825 145.739L54.8226 145.758L52.1465 144.579C47.7223 142.491 38.8643 137.108 35.5896 128.957C33.7929 124.678 32.6343 120.158 32.1509 115.542L32.1375 74.8187H14.5963L14.5621 110.764C14.5302 111.369 14.5033 112.205 14.5033 113.169C14.4067 121.688 16.4482 130.096 20.4405 137.62C26.3314 147.92 35.5363 155.916 46.552 160.301L71.3073 172.314L80.7125 158.362V151.725L81.4996 152.357C85.6334 155.702 90.2426 158.41 95.1748 160.392L119.926 172.4ZM382.203 39.3146H378.379C377.375 39.1749 371.431 37.6845 369.749 34.4857C368.735 32.7667 368.058 30.8698 367.753 28.8968H377.676V22.7368H367.768V15.3339H374.966L382.079 15.3365V10.4634L358.031 10.4657C359.216 10.7597 360.27 11.4412 361.025 12.4023C361.038 12.4146 361.045 12.4244 361.057 12.4365V27.5143H361.045L361.057 27.7005V27.9407H361.067L361.118 28.882C361.341 32.3115 362.5 35.6139 364.468 38.4298C368.471 43.7808 374.912 45.0849 376.812 45.3913L377.275 45.4673L377.314 45.4722L377.331 45.4747H382.203V39.3146ZM174.257 171.826V74.9045L148.736 74.8971C150.499 75.2162 152.154 75.9756 153.546 77.1051C154.938 78.2346 156.023 79.6976 156.7 81.3586V158.044L174.257 171.826ZM543.351 156.308C540.432 156.088 523.855 151.805 518.899 142.576H518.894C515.995 137.446 514.088 131.814 513.27 125.976L513.192 125.432H540.971V109.188H513.302V88.5678L533.895 88.5702L553.284 88.5727V74.9094L487.296 74.8971C489.23 75.2396 491.028 76.1215 492.484 77.4414C493.939 78.7614 494.993 80.4658 495.525 82.3587V122.518H495.522L495.525 122.574V122.765H495.535L495.691 125.834C496.024 130.381 497.471 142.101 504.953 152.247C516.003 167.019 533.863 170.654 539.127 171.505C539.127 171.505 540.089 171.667 540.41 171.713L540.518 171.73H553.626V156.313C553.626 156.313 545.914 156.504 543.351 156.308ZM666.953 167.691C661.204 163.535 655.687 159.067 650.426 154.308L649.787 153.739C644.249 148.766 639.081 143.738 634.424 139.208C631.824 136.691 628.597 133.053 625.488 129.617C623.482 127.401 621.541 125.28 619.768 123.535L619.396 123.177L629.104 114.514C632.526 111.96 635.565 108.929 638.131 105.513C641.213 100.988 642.104 95.2034 642.134 89.2272C642.161 83.5084 642.18 78.0275 642.18 78.0077L642.185 74.9167L568.884 74.8971C570.174 75.0791 571.408 75.5455 572.496 76.2625C574.112 77.1061 575.434 78.4196 576.291 80.0301V114.218H576.283V130.933L576.291 171.65H593.845V130.448H601.983L602.089 130.504C605.19 132.536 608.003 134.98 610.45 137.767C614.164 141.625 618.397 146.364 623 150.783C628.71 156.272 635.11 162.412 642.055 168.304C648.992 174.327 656.484 179.677 664.431 184.281L668.5 186.551V168.941L666.953 167.691ZM604.892 114.081L604.753 114.215H599.285V114.21H593.845V88.6953L605.083 88.7075L608.885 88.71L616.573 88.7173L624.751 88.7247V92.5953C624.735 92.7144 624.711 92.8323 624.68 92.9482C624.535 93.5106 624.347 94.0613 624.119 94.5954C624.048 94.7646 623.967 94.9485 623.886 95.1054C623.815 95.2622 623.739 95.37 623.703 95.4461C623.566 95.7132 623.428 95.9878 623.24 96.2868C622.89 96.8383 620.838 98.9292 618.884 100.9L604.892 114.081ZM247.861 83.5158L241.08 75.5223L240.729 74.9094H224.07L241.823 107.867V91.1392H276.373V74.9094H244.574L247.861 83.5158ZM243.38 178.114C241.331 176.054 239.14 173.691 239.16 173.022C239.198 171.767 235.647 164.515 235.647 164.515L239.59 169.024L241.121 171.652H241.823V129.398L222.351 74.9094L189.706 74.9069V91.1417H224.262L224.26 171.652H235.559L240.702 179.682L247.861 189.774L243.38 178.114ZM414.007 120.53L415.263 112.654L403.276 111.391V74.9045L377.867 74.8971C379.577 75.2071 381.185 75.9296 382.553 77.0021C383.921 78.0746 385.007 79.4648 385.717 81.0522V171.65H388.559L390.023 169.404L394.714 158.429L393.04 171L392.932 171.382L403.279 161.027V127.719L442.859 131.884L448.747 116.179L418.209 112.965L414.007 120.53ZM453.426 159.703V191.037L457.649 188.237C461.019 185.833 463.959 182.878 466.348 179.496C468.603 176.489 470.175 173.026 470.953 169.348L470.975 169.181L470.98 169.137L470.983 169.132V74.9094H465.207L450.336 132.671L453.426 132.994V151.546L461.199 136.821L457.546 149.832L453.426 159.703ZM338.608 91.144H362.377V74.9069L337.087 74.9045L338.497 85.6508L338.608 91.144ZM358.981 162.738L359.843 158.353L359.742 155.492H346.024C343.197 155.326 340.41 154.733 337.759 153.735L340.545 171.48C340.591 171.488 340.647 171.498 340.691 171.505L343.077 171.713L358.836 171.738L359.608 171.733H366.578V155.495H363.444L358.981 162.738ZM321.572 141.755C316.276 132.433 315.815 125.266 315.763 124.057V101.862C315.762 108.46 315.759 117.55 315.748 117.488L315.752 91.1417L332.981 91.144L333.505 86.5847L334.796 74.9045L290.713 74.8971C292.002 75.0795 293.235 75.5458 294.323 76.2625L294.339 76.2699C295.516 77.1098 296.601 78.072 297.577 79.1403C297.809 79.4777 298.016 79.8316 298.197 80.1992V114.301L298.547 127.793L298.572 128.004C299.152 133.333 300.528 138.545 302.653 143.466C302.653 143.466 304.448 147.231 304.669 147.653C305.478 149.07 306.375 150.435 307.354 151.739L310.876 163.461L317.185 172.473L314.727 161.664C314.632 160.9 314.496 160.141 314.318 159.392C313.405 156.009 312.65 152.754 312.65 152.754L314.231 154.171L312.65 139.007L318.662 162.696C322.599 165.374 326.871 167.524 331.366 169.091L333.704 158.264L334.158 159.399L335.332 152.808C329.964 150.558 324.317 146.891 321.572 141.755ZM649.599 60.621H650.524L651.92 62.9178H652.818L651.308 60.5842C651.554 60.5586 651.793 60.4845 652.01 60.3661C652.219 60.2646 652.389 60.0987 652.495 59.8929C652.627 59.6611 652.691 59.3971 652.681 59.1306C652.703 58.9165 652.672 58.7004 652.591 58.5009C652.511 58.3014 652.383 58.1246 652.219 57.9859C651.806 57.7083 651.311 57.5787 650.816 57.6182H648.806V62.9178H649.599V60.621ZM649.599 58.2997H650.683C651.46 58.3094 651.839 58.5643 651.839 59.0841C651.839 59.4542 651.736 59.6846 651.518 59.7875C651.213 59.9063 650.886 59.9582 650.559 59.9395H649.599V58.2997ZM646.982 63.8419C647.451 64.2944 648.006 64.6486 648.615 64.8837C649.228 65.1357 649.885 65.264 650.549 65.2613C651.206 65.2618 651.857 65.1387 652.468 64.8984C653.073 64.6564 653.625 64.2974 654.092 63.8419C654.559 63.3865 654.933 62.8445 655.193 62.2461C655.46 61.6182 655.597 60.943 655.597 60.2607C655.597 59.5784 655.46 58.9031 655.193 58.2752C654.945 57.6755 654.572 57.1357 654.099 56.6917C653.143 55.7767 651.871 55.268 650.549 55.2724C649.883 55.2798 649.224 55.406 648.602 55.645C648.004 55.8939 647.455 56.2484 646.982 56.6917C646.514 57.146 646.139 57.6871 645.877 58.285C645.606 58.9079 645.47 59.5813 645.478 60.2607C645.474 60.9283 645.606 61.5897 645.864 62.2052C646.122 62.8207 646.503 63.3774 646.982 63.8419ZM646.783 58.6281C646.98 58.1314 647.279 57.6814 647.66 57.3069C648.029 56.9282 648.468 56.6244 648.952 56.4122C649.461 56.2109 650.002 56.1086 650.549 56.1107C651.091 56.1084 651.629 56.2107 652.133 56.4122C652.612 56.6204 653.046 56.9201 653.411 57.2946C653.782 57.6741 654.076 58.1219 654.278 58.6134C654.481 59.1386 654.583 59.6975 654.579 60.2607C654.588 61.006 654.406 61.7413 654.05 62.3957C653.702 63.016 653.196 63.5327 652.583 63.8934C651.964 64.249 651.262 64.435 650.549 64.4327C649.827 64.4366 649.117 64.2506 648.49 63.8934C647.881 63.5274 647.375 63.0119 647.021 62.3957C646.656 61.7442 646.47 61.0075 646.482 60.2607C646.48 59.7025 646.582 59.1488 646.783 58.6281Z" fill="black"/>
</g>
<defs>
<filter id="filter0_d_186_241" x="0.7" y="0.2" width="681.6" height="349.6" filterUnits="userSpaceOnUse" color-interpolation-filters="sRGB">
<feFlood flood-opacity="0" result="BackgroundImageFix"/>
<feColorMatrix in="SourceAlpha" type="matrix" values="0 0 0 0 0 0 0 0 0 0 0 0 0 0 0 0 0 0 127 0" result="hardAlpha"/>
<feOffset dy="4"/>
<feGaussianBlur stdDeviation="6.9"/>
<feComposite in2="hardAlpha" operator="out"/>
<feColorMatrix type="matrix" values="0 0 0 0 0 0 0 0 0 0 0 0 0 0 0 0 0 0 0.5 0"/>
<feBlend mode="normal" in2="BackgroundImageFix" result="effect1_dropShadow_186_241"/>
<feBlend mode="normal" in="SourceGraphic" in2="effect1_dropShadow_186_241" result="shape"/>
</filter>
</defs>
</svg>
