<svg width="991" height="43" viewBox="0 0 991 43" fill="none" xmlns="http://www.w3.org/2000/svg">
<path d="M41 21H476" stroke="#8B969C" stroke-width="2"/>
<path d="M515 21H950" stroke="#8B969C" stroke-width="2"/>
<rect y="21.2133" width="30" height="30" transform="rotate(-45 0 21.2133)" fill="#8B969C"/>
<rect x="4.24265" y="21.2133" width="24" height="24" transform="rotate(-45 4.24265 21.2133)" fill="#D9D9D9"/>
<rect x="8.48529" y="21.2133" width="18" height="18" transform="rotate(-45 8.48529 21.2133)" fill="#8B969C"/>
<rect x="474" y="21.2133" width="30" height="30" transform="rotate(-45 474 21.2133)" fill="#8B969C"/>
<rect x="478.243" y="21.2133" width="24" height="24" transform="rotate(-45 478.243 21.2133)" fill="#D9D9D9"/>
<rect x="482.485" y="21.2133" width="18" height="18" transform="rotate(-45 482.485 21.2133)" fill="#8B969C"/>
<rect x="948" y="21.2133" width="30" height="30" transform="rotate(-45 948 21.2133)" fill="#8B969C"/>
<rect x="952.243" y="21.2133" width="24" height="24" transform="rotate(-45 952.243 21.2133)" fill="#D9D9D9"/>
<rect x="956.485" y="21.2133" width="18" height="18" transform="rotate(-45 956.485 21.2133)" fill="#8B969C"/>
</svg>
