<svg width="132" height="159" viewBox="0 0 132 159" fill="none" xmlns="http://www.w3.org/2000/svg">
<g clip-path="url(#clip0_176_1258)">
<path d="M2.76629 2.61159L1.24049 86.9875C1.24049 86.9875 -5.44368 157.924 66.0104 157.924C137.445 157.924 130.759 86.9875 130.759 86.9875L129.234 2.61159C129.234 2.61159 87.0909 1.07613 66.0104 1.07613C44.9229 1.07613 2.76629 2.61159 2.76629 2.61159Z" fill="#EAD452" stroke="black" stroke-width="3.2"/>
<path fill-rule="evenodd" clip-rule="evenodd" d="M37.9503 44.9446L36.4231 47.3448L33.5925 49.0767C30.6148 51.0429 25.7325 52.1431 23.0196 49.8572C22.8495 49.7113 22.6772 49.4768 22.7085 49.2496C22.7361 49.0473 23.1195 49.096 23.3152 49.0887C24.3676 49.0477 24.8228 49.6886 25.5993 49.7804C27.7334 50.0314 30.8763 48.7448 33.0448 46.8481L35.8834 43.1291" fill="#E64151"/>
<path d="M37.9503 44.9446L36.4231 47.3448L33.5925 49.0767C30.6148 51.0429 25.7325 52.1431 23.0196 49.8572C22.8495 49.7113 22.6772 49.4768 22.7085 49.2496C22.7361 49.0473 23.1195 49.096 23.3152 49.0887C24.3676 49.0477 24.8228 49.6886 25.5993 49.7804C27.7334 50.0314 30.8763 48.7448 33.0448 46.8481L35.8834 43.1291" stroke="black" stroke-width="1.29893"/>
<path fill-rule="evenodd" clip-rule="evenodd" d="M41.0785 25.6193C37.9726 24.0858 34.5313 23.0351 31.9804 20.5672C29.7674 20.4697 27.7918 18.8916 26.3109 17.6579C24.3654 17.6348 23.4876 16.7544 22.2801 15.3C21.0078 16.0976 19.1695 13.901 18.3844 13.1778C17.1445 13.4657 15.8058 12.4055 15.0463 11.4189C12.6928 11.4343 8.83999 9.11609 6.95044 6.89351C9.89596 7.467 12.1758 7.854 14.7215 9.45012C15.8497 9.49311 17.1501 9.76027 17.8414 10.7303C19.1539 10.5426 20.2602 10.9657 21.0401 12.0693C22.6127 11.8889 24.0534 12.311 25.1301 13.5463C27.0687 13.3482 28.6063 14.2843 29.9411 15.6823C32.1683 15.1537 34.2269 16.173 35.9563 17.5492C38.8151 16.8275 44.9666 20.0638 49.1875 21.2158" fill="#E64151"/>
<path d="M41.0785 25.6193C37.9726 24.0858 34.5313 23.0351 31.9804 20.5672C29.7674 20.4697 27.7918 18.8916 26.3109 17.6579C24.3654 17.6348 23.4876 16.7544 22.2801 15.3C21.0078 16.0976 19.1695 13.901 18.3844 13.1778C17.1445 13.4657 15.8058 12.4055 15.0463 11.4189C12.6928 11.4343 8.83999 9.11609 6.95044 6.89351C9.89596 7.467 12.1758 7.854 14.7215 9.45012C15.8497 9.49311 17.1501 9.76027 17.8414 10.7303C19.1539 10.5426 20.2602 10.9657 21.0401 12.0693C22.6127 11.8889 24.0534 12.311 25.1301 13.5463C27.0687 13.3482 28.6063 14.2843 29.9411 15.6823C32.1683 15.1537 34.2269 16.173 35.9563 17.5492C38.8151 16.8275 44.9666 20.0638 49.1875 21.2158" stroke="black" stroke-width="1.29893"/>
<path fill-rule="evenodd" clip-rule="evenodd" d="M43.8583 20.8766C42.6083 19.6655 40.7868 18.6588 40.9638 16.6803C39.9705 16.2193 38.866 15.6556 39.0296 14.3539C41.8351 14.5247 43.9297 16.1063 46.7039 17.2936C48.6019 18.3481 50.3438 19.6818 51.3345 21.7317C51.3345 21.7317 52.5505 21.2657 53.1881 21.2016C57.563 20.764 62.242 23.3528 65.5889 25.5201C66.9576 26.4187 68.1564 27.5791 69.3446 28.7226C70.8307 30.1537 73.5481 33.2851 73.5481 33.2851C82.9713 48.8129 74.2258 50.9426 72.7366 66.2957C76.0518 72.2606 83.5055 71.6835 89.6764 72.7319C103.654 73.3672 105.33 76.0992 113.662 80.7428C117.691 83.1696 122.048 83.532 121.28 77.9129C121.031 76.0923 118.852 75.1379 117.328 73.9671L117.136 73.6016C115.201 73.3843 114.128 73.1676 113.105 74.8435C111.596 73.2489 113.856 72.7221 113.806 71.268C111.512 71.5563 109.719 71.3508 107.714 70.296L108.619 69.5706C107.032 69.6113 105.501 68.954 104.127 68.1847L105.099 67.5422C102.704 67.6289 101.287 66.213 100.193 64.1755C102.151 64.8208 103.807 65.2494 104.939 63.2859C104.691 62.0011 103.714 61.4525 102.795 60.6502C98.9111 56.972 97.5911 55.1416 97.125 49.6696C96.5388 46.219 99.1794 43.1381 99.4439 40.4399C100.694 41.2683 100.528 42.0028 100.58 43.4546C102.151 40.7886 104.087 39.3859 106.982 40.2431C110.65 41.3291 113.485 44.4016 117.263 44.926C120.894 45.4304 123.008 42.4425 122.773 38.7474C127.52 44.8689 123.765 50.164 116.868 49.2032L117.409 49.6388C119.517 50.3167 121.613 50.2183 123.762 49.9031C122.672 52.2178 120.201 52.5507 117.98 52.9215L119.064 53.5449C119.064 53.5449 118.615 53.7747 118.399 53.9041C118.065 54.1056 117.79 54.429 117.423 54.553C116.807 54.7618 116.131 54.7339 115.486 54.6771C111.037 52.914 106.735 55.9384 109.565 60.5644C113.255 66.687 121.386 69.9241 124.501 75.188C126.27 78.3407 126.993 81.0712 124.999 83.6769C121.068 88.5758 116.67 86.7547 111.761 84.5125L111.693 85.134C117.202 94.6171 110.557 98.0287 109.295 106.941C109.159 110.243 111.616 111.515 114.282 112.451L114.41 114.104C115.907 116.186 115.233 117.214 113.73 119.024C112.019 121.138 111.405 123.242 111.595 125.926C112.703 127.935 112.889 129.457 111.604 131.319L111.004 130.564C110.934 132.081 110.602 132.788 109.636 133.798L109.183 133.137C108.957 134.812 108.265 136.52 106.474 136.42C106.957 134.345 106.455 133.243 104.354 133.508L101.6 136.2C98.8858 133.255 97.3056 135.505 95.2807 135.978C94.9276 134.556 95.188 133.521 95.5851 132.177L100.016 129.192L101.277 129.116C102.854 127.53 104.15 125.802 104.925 123.602C106.019 120.394 107.209 115.329 103.999 114.621C103.91 115.096 103.701 115.376 103.513 115.689L102.313 114.551C101.958 115.165 101.863 115.812 101.747 116.503C101.397 116.29 100.953 116.192 100.696 115.865C96.3495 111.675 95.3514 113.628 93.3362 111.543C90.6724 112.601 94.4338 115.484 95.7108 116.646C95.9515 118.698 94.3675 119.572 93.9521 121.974C90.7706 121.593 88.7281 121.469 86.1596 122.85C85.2837 124.829 84.696 127.134 82.6892 128.032L82.6052 126.743C81.7344 128.128 80.6972 128.298 79.2297 128.379L79.4577 127.313C78.3414 128.274 77.5369 128.819 76.1093 128.872C78.5961 122.854 74.581 120.936 71.2957 125.55C70.6767 124.376 68.8457 123.304 66.094 123.861C66.2833 122.853 66.1794 122.091 66.1518 121.265L67.9227 119.896C70.2447 116.665 72.892 116.206 76.7116 117.318C79.6404 117.997 90.1843 116.96 85.2847 112.675L84.673 113.85C83.8609 112.706 83.9768 111.829 82.4467 111.467C82.1685 112.741 81.9605 112.864 80.8346 113.188C79.8408 107.787 75.0279 109.313 75.9343 104.444C77.5007 98.9405 82.3043 95.4278 86.8557 92.6363C78.5701 90.4556 76.6675 98.6905 66.2938 96.5436C60.8152 95.0933 55.4027 93.4837 49.7972 92.7229C48.7588 93.8495 47.9698 94.7996 46.5258 95.0891C42.3294 92.807 38.9199 89.693 35.9867 85.8935C33.1588 82.5128 28.7372 82.9064 26.8561 87.089C27.2276 89.4221 27.5942 91.5578 26.5082 93.6518L25.996 92.775C25.9068 94.2084 25.8687 95.201 24.9225 96.1818L24.5688 95.4205C24.1438 96.6711 23.8232 97.3031 22.7371 97.8436L22.672 96.6212C22.8103 92.9184 18.4698 92.9096 18.6036 97.212C16.7851 97.3045 14.8583 98.2676 13.704 99.6913C13.5384 98.795 13.1077 98.5467 12.4503 98.0112C12.1818 96.3095 12.2632 94.1954 13.5448 92.5471C11.8549 88.077 21.4344 84.6182 24.3398 79.0199L25.4994 78.6481C27.4713 75.075 31.537 76.0862 34.7648 76.2804L35.8926 77.5673C36.5403 77.3646 37.189 77.4574 37.8524 77.4942L37.9759 75.7897C32.4018 71.3514 33.0655 66.4648 27.0895 69.5346C26.1346 71.6409 26.6191 73.9181 24.9009 75.368L24.4782 74.072C24.217 75.5035 23.5576 76.2975 22.4787 77.1208L22.1098 76.454C21.4995 78.2147 20.6792 78.4393 19.104 79.0927C19.8001 76.8812 20.7838 74.5687 18.808 73.3879C17.2409 72.452 15.6354 73.9803 14.9123 76.4067C12.986 75.0444 11.1863 75.8723 9.48866 77.3075C9.32621 76.5598 9.02468 75.8848 8.70952 75.1996C8.50163 72.6454 10.0837 71.6461 11.1008 70.0392L12.0909 69.977C12.7724 65.2573 22.8451 65.1011 27.8377 61.8854L28.6636 62.1111L30.0823 61.1143C34.5675 62.0536 37.1087 61.7433 39.6823 66.1897C41.0736 59.6639 47.0792 56.2041 49.7277 51.8146C51.6015 48.6477 53.5869 44.3277 51.3254 41.6717C47.4851 42.545 47.0771 41.691 45.3694 42.1489C44.572 43.9489 48.3422 45.223 48.0786 46.722C47.5606 48.4797 48.2686 49.3964 49.3659 50.6393C47.8817 51.1384 46.141 51.8249 44.9968 50.423L44.6284 50.9081C43.8742 50.5339 43.2432 49.9054 42.9356 49.1196C42.0982 46.9811 44.8919 44.9513 42.04 43.7897C40.6424 44.6461 41.3576 46.7692 40.4669 48.1941C39.5169 49.7146 37.4547 50.2735 35.9563 49.2954C35.2363 49.8413 34.4598 50.2585 33.6612 50.6577C33.2003 50.0232 33.3459 49.7794 33.5925 49.0773C34.7791 48.2757 35.8079 47.325 36.5581 46.1C37.0754 45.2548 36.7932 44.9732 36.2265 44.2516C34.992 44.8815 34.0532 45.9001 33.0448 46.8487C30.9407 48.3584 27.9389 48.0716 28.4795 45.6191L29.2427 45.3728C30.8681 43.5928 29.9597 41.8639 30.5292 40.1411C30.5292 40.1411 31.0229 39.2464 31.5793 38.9877C32.0855 38.7527 32.8802 39.3125 33.2376 38.8711C33.3945 38.6772 33.1628 38.1146 33.1628 38.1146C35.8086 34.9865 38 32.0386 39.1877 28.1228C40.7103 25.4953 43.2712 24.5623 45.784 23.1723C45.2557 22.2933 44.6182 21.5633 43.8583 20.8766Z" fill="#222B2C" stroke="#E3E0D7" stroke-width="1.29893" stroke-linecap="round"/>
<path d="M35.9564 17.5531C37.1715 20.2182 38.018 22.0555 38.4439 24.3798M29.9412 15.6858C31.0077 17.2248 31.5985 18.759 31.9805 20.567M25.1302 13.5502C25.7024 14.9195 26.2838 16.1729 26.311 17.6577M21.0402 12.0714C21.7455 13.0594 21.9936 14.1347 22.2802 15.2997M18.3845 13.1776C18.3392 12.3227 18.0907 11.5384 17.8415 10.7323M15.0465 11.4187C15.1458 10.7074 14.9241 10.1167 14.7217 9.44989" stroke="black" stroke-width="1.29893"/>
<path fill-rule="evenodd" clip-rule="evenodd" d="M51.3344 21.7313C51.3344 21.7313 52.5504 21.2654 53.188 21.2013C57.5629 20.7637 62.2419 23.3525 65.5888 25.5198C66.9575 26.4184 68.1563 27.5787 69.3445 28.7223C70.8306 30.1533 73.548 33.2848 73.548 33.2848C73.6221 34.3642 73.3631 35.3512 73.1163 36.385C73.608 39.1242 74.7553 41.5154 76.2652 43.7729C77.2053 45.4715 76.7086 46.2557 76.7467 47.5482C76.1264 48.2645 76.1917 49.0325 76.1235 49.9526C74.9982 50.824 74.3017 51.2468 74.7698 52.6307C72.0401 54.968 69.1445 55.9524 65.6308 55.2626C66.3207 56.4795 67.1791 57.3111 68.2684 58.1184C62.2335 61.7974 58.9874 67.838 62.9533 72.9553C63.6185 70.6038 64.8601 68.6579 66.9771 67.8245C67.1969 69.4552 68.4525 69.9287 69.8307 70.3118C70.0183 68.4665 71.2818 67.2382 72.7368 66.2954C77.1761 63.8529 79.8266 60.7149 79.8187 55.4756C81.1944 56.2978 81.2063 57.4363 81.3379 58.9641C81.5858 60.8846 82.5625 61.8034 84.1475 62.6007L84.3678 61.5653C85.5042 54.0577 89.5578 55.7389 88.2178 48.4363C87.7088 44.7116 82.6187 44.7781 81.0729 40.5955C83.3478 38.5718 84.7583 41.1849 85.5149 42.5238C87.004 45.1591 89.865 42.2159 87.6956 41.3422L88.077 40.8429C88.7516 35.6174 85.7842 29.4824 79.9955 31.0232C78.6097 29.7403 78.5672 28.2198 80.5387 28.3065C82.1648 28.376 83.3766 29.762 84.9131 30.2795C86.1231 29.1313 83.377 27.4093 82.3496 26.8093C82.4896 26.7364 82.6612 26.657 82.8966 26.5664C80.7854 22.3842 74.4293 19.6392 71.7104 24.6609C70.1142 24.1873 69.5011 21.8278 71.2519 21.2298C72.3097 20.8121 77.9381 20.4677 74.7712 18.1963C74.292 18.8608 73.9092 19.0237 73.1757 19.1819C73.2274 18.97 73.4035 18.7507 73.3304 18.5453C73.2296 18.2632 72.6071 17.8417 72.3389 17.7292C68.9933 15.7032 66.0174 15.4141 63.1693 17.1055C64.0364 13.0653 61.0544 9.83722 57.9624 8.20157C58.3723 15.1699 54.167 14.4059 51.6277 16.5552C51.1029 14.7621 48.0945 12.3914 46.8741 12.6513C47.8384 14.2558 47.0984 15.6357 46.7038 17.2933C48.6994 18.246 50.2366 19.7805 51.3344 21.7313ZM38.4438 24.3798C36.7651 26.9041 34.6025 24.8249 34.6818 26.8494C37.4223 26.7062 37.0527 28.1057 39.1881 28.118C40.7112 25.4916 43.2721 24.5589 45.785 23.1697C45.3278 22.2481 44.5556 21.5964 43.8594 20.8763C40.812 20.1876 39.7569 22.4056 38.4438 24.3798Z" fill="#222B2C" stroke="#E3E0D7" stroke-width="1.29893" stroke-linecap="round"/>
<path fill-rule="evenodd" clip-rule="evenodd" d="M46.3868 28.688L46.3088 27.9866C43.3435 28.81 42.8891 30.4762 41.4006 30.7898C41.3899 31.8209 41.7539 32.2819 42.605 32.6769C44.0164 31.1822 46.5062 29.7616 46.3868 28.688Z" fill="#F5FBF8" stroke="#E3E0D7" stroke-width="1.29893" stroke-linecap="round"/>
<path d="M51.3342 21.7313C51.3682 22.6104 51.7291 23.4762 51.5878 24.3453L51.7846 24.3723C52.5201 23.5927 53.8404 23.8601 54.7541 24.1691C67.411 28.4515 74.7226 41.0303 72.3634 54.1493M46.9994 23.1945C49.0312 20.256 43.2696 17.8385 40.9635 16.68M79.8185 55.4756C77.0973 52.5313 75.0192 56.4293 75.4197 59.1954M79.9747 46.972C78.6729 46.7678 77.7087 46.784 76.7464 47.5467M81.682 48.9566C79.5146 48.3052 77.9061 48.6356 76.1233 49.9526M81.8823 51.9192C79.4268 50.5261 77.0822 51.3578 74.7696 52.6307M78.986 36.3318C78.5323 36.9125 78.0559 36.7119 77.4141 36.9525C75.8451 37.5402 75.1829 39.1534 74.6273 40.72M75.7224 36.2043C74.496 36.8526 74.2736 37.7303 73.7875 38.9959M87.6954 41.3419C86.754 41.6517 86.3499 40.632 85.9614 40.1303C82.3687 35.4924 76.5653 37.6169 76.265 43.7722M81.0727 40.5951C80.3355 41.3291 80.4434 42.0759 80.3964 43.0835M79.9953 31.0232C78.876 31.6366 78.3419 32.6738 77.6505 33.7298M82.3494 26.8086C77.2829 24.4958 73.0544 28.2727 73.5478 33.2844M73.3872 27.267C72.3224 28.4728 71.8727 29.7074 71.7397 31.2935M71.0333 27.3176C70.3536 27.9384 70.3846 28.8108 70.3245 29.6894M71.71 24.6602C71.5379 25.0947 71.4754 25.5438 71.4125 26.0045M64.4284 20.6787C63.4617 21.6879 63.2521 22.8004 63.3349 24.1631M73.1753 19.1815C68.9768 20.3254 67.2816 18.0188 65.2892 21.8832C64.625 23.171 64.9973 24.2619 65.5887 25.519M62.6403 21.0843C61.8644 21.8482 61.8365 22.271 61.8946 23.3167M60.9516 19.2325C61.5261 16.6456 61.9722 14.0584 60.2613 11.8734M60.9516 19.2325C61.6572 18.4812 62.3389 17.7124 63.1688 17.1051M60.9516 19.2325C60.3025 20.1253 59.9937 20.2887 58.9943 20.2963M51.627 16.5548C51.4752 16.8995 51.4718 17.2284 51.4684 17.5969M46.0773 25.8073C43.8321 26.3981 40.6538 27.8965 41.4002 30.7897L39.7332 31.1406M41.7239 33.894L42.6046 32.6768M45.7845 23.1716C49.2977 23.0395 51.0786 25.3683 49.8595 28.1056C48.1363 32.2713 40.8723 35.8602 39.7719 38.6743L39.7913 38.9708C41.0051 38.7574 41.7255 39.2305 42.4739 40.1296M58.1075 35.1648C57.0564 34.9748 56.4672 35.1078 55.5983 35.6341C55.6308 38.4632 53.8039 39.7344 51.3254 41.6703M32.9527 44.9043C34.6131 42.6928 32.5167 39.3052 31.1464 41.8506C30.7801 42.5308 31.562 43.3837 32.0211 42.4421M32.9527 44.9043C37.166 39.8806 39.0198 41.8049 38.5815 44.7149C38.3482 46.2635 37.4072 48.1213 35.9563 49.2944M32.9527 44.9043C31.3661 46.0716 30.6347 45.9805 29.2426 45.3717M53.9407 89.035C52.5166 88.7494 51.084 88.7198 49.6408 88.683M53.9407 89.035C57.2776 87.1652 61.1108 85.6809 62.1631 81.511M53.9407 89.035C52.3274 89.9689 51.1095 91.3982 49.7971 92.7222M62.1631 81.511L60.7432 81.9856M62.1631 81.511C63.0913 80.6784 64.113 79.9841 64.6191 78.7853M105.099 67.5415C105.906 67.3023 106.44 67.489 107.196 67.7612M108.618 69.5699C109.274 69.3365 109.741 69.3332 110.218 69.8511M104.403 101.531C105.057 104.607 103.389 106.542 100.836 107.82C103.795 108.168 104.394 112.646 103.999 114.621M93.3361 111.542C89.6971 107.06 89.8348 101.945 93.7705 98.6759L94.4059 98.743C94.4354 98.1326 94.4316 97.3512 94.5283 97.0759M94.5283 97.0759C97.0438 89.718 91.6446 88.3388 88.9815 86.2452C88.2556 85.6736 88.2812 85.1113 88.2928 84.3075M94.5283 97.0759L93.8335 96.2771L91.8498 96.1354C90.8409 93.9209 89.1687 92.6356 86.8557 92.6356M101.099 112.225C101.134 113.202 101.902 113.714 102.313 114.55M85.1341 102.57C85.3968 104.109 84.5889 104.556 83.5948 105.594C86.4521 107.045 86.0136 110.003 85.2846 112.674M51.2894 68.852C47.1061 71.3756 43.6595 75.9247 43.46 81.1365M43.46 81.1365C41.526 80.0329 39.5667 78.9541 37.8523 77.4931M43.46 81.1365C45.5467 82.1963 47.9497 83.3363 47.5665 85.8287M39.6822 66.189C38.7646 69.3631 38.2107 72.4931 37.9759 75.7886M80.315 123.37C80.2192 124.715 79.7884 126.013 79.4576 127.312M83.4256 123.258C83.6465 124.617 83.1066 125.565 82.6049 126.742M44.859 48.7467L44.9967 50.4223M110.436 126.653C110.242 128.04 110.919 129.213 111.004 130.563M108.102 129.209C108.33 130.62 108.962 131.712 109.183 133.136M24.9767 88.7673C25.5655 90.0383 25.7499 91.402 25.996 92.7743M22.8918 90.8261C24.0272 92.2998 24.352 93.6279 24.5688 95.4198M24.4656 71.4634C24.3627 72.3344 24.4289 73.1992 24.4782 74.0713M22.1097 76.4532C22.1216 75.0525 22.3771 73.6712 21.7107 72.4294M12.0908 69.9759C12.0629 70.3728 12.1428 70.711 12.2623 71.078M28.6636 62.11C28.3694 62.6939 28.5547 63.1729 28.677 63.7887M100.58 43.4539C99.6448 45.7828 99.8513 48.2306 100.78 50.4954M115.245 48.3557C115.88 48.9353 116.657 49.2585 117.409 49.6381M113.503 51.3007C114.885 52.3164 116.363 52.5792 117.98 52.9208M35.8928 77.5666C36.1154 78.342 35.9804 78.9997 35.8406 79.7701M25.4994 78.6466L25.7246 79.7836M13.5448 92.5464L14.2959 92.931M101.104 129.767L101.278 129.122" stroke="#E3E0D7" stroke-width="1.29893"/>
<path fill-rule="evenodd" clip-rule="evenodd" d="M44.8305 30.5236C44.4259 31.0084 43.8826 30.8492 43.6014 30.4373C43.3992 30.1414 43.5437 29.6866 43.8023 29.4398C44.0691 29.1853 44.5585 29.2612 44.7545 29.5733C44.9574 29.8961 45.0303 30.284 44.8305 30.5236Z" fill="black" stroke="black" stroke-width="1.29893" stroke-linecap="round"/>
<path fill-rule="evenodd" clip-rule="evenodd" d="M8.70937 75.1994C7.59571 77.7314 6.68085 79.9434 5.82153 82.2837C6.24366 83.2514 6.55125 83.1438 7.50494 83.1531L7.03367 84.509C9.8256 86.4217 16.4091 81.4775 14.9122 76.4083C12.9861 75.0465 11.1869 75.8735 9.48945 77.3087C9.327 76.5609 9.02522 75.886 8.71007 75.2008L8.70937 75.1994ZM18.6039 97.2121C16.7854 97.3046 14.8586 98.2675 13.7043 99.6912C13.5387 98.7948 13.1075 98.5468 12.4501 98.0113C12.2155 98.4662 11.8304 98.8692 11.7548 99.3791C11.8378 102.036 11.6839 104.502 11.4509 107.022L11.808 107.622L13.2365 107.333L13.9122 108.033C18.9853 107.488 20.3079 101.37 18.6039 97.2121ZM66.1516 121.261C63.5792 123.189 61.7418 125.307 59.7709 127.74C60.3399 128.791 60.9599 128.524 62.142 128.501C61.6544 129.336 61.1857 130.001 61.1819 131.014C65.9341 131.778 68.2202 130.829 71.2956 125.549C70.6766 124.374 68.8458 123.304 66.0941 123.86C66.2834 122.853 66.1792 122.09 66.1516 121.264V121.261ZM95.5846 132.177C92.9044 133.278 92.3622 137.846 90.7907 141.196L90.7473 142.107C91.667 142.058 92.4865 141.938 93.3389 141.512C93.1883 142.208 93.0209 142.842 93.1534 143.559C97.5416 144.319 100.483 140.95 101.6 136.2C98.8859 133.255 97.3057 135.505 95.2807 135.977C94.9276 134.556 95.1883 133.52 95.5854 132.177H95.5846Z" fill="#E64151" stroke="black" stroke-width="1.29893"/>
<path d="M9.48879 77.3073C8.62312 79.1902 8.04671 81.1546 7.50488 83.153M13.7041 99.6911C13.1878 102.244 14.1148 104.896 13.2344 107.333M66.0942 123.861C64.5426 125.105 63.4036 126.91 62.1424 128.501M95.2808 135.977C94.3977 137.743 93.869 139.614 93.3388 141.512" stroke="black" stroke-width="1.29893"/>
</g>
<defs>
<clipPath id="clip0_176_1258">
<rect width="131" height="158" fill="white" transform="translate(0.5 0.5)"/>
</clipPath>
</defs>
</svg>
