<svg width="133" height="157" viewBox="0 0 133 157" fill="none" xmlns="http://www.w3.org/2000/svg">
<g clip-path="url(#clip0_176_1236)">
<path d="M131.922 72.1903V0.57251H1.07812V72.1903C1.07812 114.499 32.0278 141.025 66.5002 156.479C100.973 141.025 131.922 114.499 131.922 72.1903Z" fill="#222B2C"/>
<path d="M1.07764 0.57251V72.1903C1.07764 80.4553 2.2637 88.1151 4.4215 95.2106C4.1294 91.6884 4.11079 89.0969 7.03576 86.2432C8.54489 84.8047 9.18587 84.1162 9.30005 84.2162C9.38888 84.2944 9.16614 84.8555 8.78214 85.9101C8.05555 87.9064 8.72861 90.2349 10.3112 92.0389C11.1336 90.956 11.9558 89.9006 11.8649 88.7837C11.5029 84.334 10.9495 81.4005 14.3338 78.1C15.8429 76.6608 16.4832 75.9611 16.5974 76.0611C16.6862 76.1393 16.4515 76.7 16.0675 77.7542C15.3407 79.751 16.0258 82.079 17.6093 83.8831C18.4317 82.8002 19.2412 81.7447 19.1503 80.6279C18.7882 76.1785 18.2349 73.2458 21.6192 69.9449C23.1283 68.5057 23.7686 67.8049 23.8828 67.9052C23.9716 67.9831 23.7376 68.5557 23.3536 69.6103C22.604 71.6692 23.3604 74.068 25.0513 75.8941C25.8159 74.8838 26.5214 73.8864 26.4364 72.8417C26.0743 68.3915 25.5203 65.4596 28.9046 62.158C30.4136 60.7199 31.0547 60.0194 31.1689 60.1198V60.1309C31.2576 60.2088 31.0349 60.7691 30.6509 61.8241C29.9489 63.7529 30.5543 65.9867 32.024 67.7621C32.8969 66.606 33.8184 65.4809 33.7217 64.2923C33.3597 59.8426 32.8183 56.9092 36.2026 53.6079C37.7117 52.1694 38.34 51.4812 38.4542 51.5816C38.543 51.6598 38.3203 52.2198 37.9363 53.2748C37.2192 55.2448 37.8786 57.5264 39.4174 59.3201C40.2598 58.2098 41.1122 57.1254 41.0191 55.9815C40.6571 51.5313 40.1037 48.5987 43.488 45.2978C44.9971 43.8589 45.6381 43.1585 45.7523 43.2588C45.8411 43.3367 45.6064 43.8966 45.2224 44.952C44.489 46.9662 45.1973 49.3176 46.8114 51.1285C47.6178 49.8846 48.3943 48.3014 48.3052 47.2056C47.9431 42.7554 47.3891 39.8228 50.7734 36.5219C52.2825 35.083 52.9235 34.3826 53.0377 34.4829C53.1265 34.5608 52.9037 35.1207 52.5198 36.1761C51.7915 38.1766 52.4711 40.5113 54.0615 42.3168C54.8793 41.2401 55.681 40.1847 55.5905 39.0736C55.2285 34.6238 54.6872 31.6912 58.0715 28.3899C59.5806 26.9514 60.2089 26.2502 60.323 26.3509C60.4118 26.4284 60.1891 27.0006 59.8051 28.0553C59.0447 30.1443 59.8209 32.5869 61.5635 34.4226C62.3022 33.4423 62.9705 32.4696 62.8879 31.4543C62.5259 27.0045 61.9725 24.0715 65.3568 20.7706C66.6773 19.5115 67.3292 18.8171 67.5484 18.7316C67.5798 18.7202 67.6061 18.7202 67.6204 18.7316C67.7092 18.8091 67.4745 19.3817 67.0905 20.4367C66.2436 22.7635 67.3114 25.5241 69.4874 27.4002C71.5726 29.1977 72.1318 31.9898 71.4504 34.3398C71.4121 34.4719 71.38 34.6055 71.3538 34.7333C73.1309 32.8927 73.9396 30.4268 73.1721 28.3183C72.7881 27.263 72.5534 26.7034 72.6422 26.6252C72.7564 26.5252 73.3974 27.2134 74.9065 28.6522C78.2908 31.9531 77.7368 34.8977 77.3747 39.3478C77.2883 40.4093 78.029 41.4082 78.8078 42.4353C80.4741 40.6141 81.2019 38.2213 80.4575 36.1761C80.0735 35.1211 79.8514 34.5608 79.9403 34.4829C80.0545 34.3826 80.6828 35.083 82.1918 36.5219C85.5761 39.8228 85.0348 42.7558 84.6728 47.2056C84.583 48.3083 85.3664 49.905 86.1778 51.1523C87.7833 49.343 88.4751 47.0094 87.7436 44.9997C87.3595 43.9451 87.1369 43.3724 87.2256 43.2946C87.3398 43.1942 87.9801 43.8954 89.4892 45.3343C92.8735 48.6352 92.3202 51.5679 91.9581 56.0172C91.8634 57.1821 92.7508 58.2838 93.6078 59.4155C95.109 57.6313 95.7499 55.3773 95.0409 53.4298C94.6569 52.3751 94.4222 51.8141 94.511 51.7359C94.6252 51.6359 95.2662 52.3252 96.7753 53.7636C100.16 57.0645 99.6056 59.9976 99.2435 64.4473C99.1492 65.6069 100.029 66.7081 100.882 67.8337C102.397 66.0461 103.039 63.7804 102.327 61.8241C101.943 60.7691 101.72 60.1968 101.809 60.119C101.923 60.0187 102.552 60.7195 104.061 62.158C107.445 65.4592 106.904 68.3919 106.542 72.8417C106.457 73.8867 107.162 74.8838 107.927 75.8941C109.617 74.0684 110.362 71.6692 109.612 69.6103C109.228 68.5557 109.006 67.9831 109.094 67.9052C109.209 67.8049 109.85 68.5049 111.359 69.9442C114.743 73.2451 114.189 76.1785 113.827 80.6279C113.736 81.7447 114.546 82.7998 115.369 83.8831C116.951 82.0787 117.636 79.7506 116.91 77.7542C116.526 76.6996 116.291 76.1385 116.38 76.0603C116.494 75.9604 117.135 76.6615 118.644 78.1008C122.028 81.4013 121.475 84.3347 121.113 88.7845C121.022 89.9013 121.832 90.956 122.654 92.0389C124.238 90.2349 124.923 87.9072 124.196 85.9101C123.812 84.8555 123.577 84.2951 123.666 84.2169C123.78 84.117 124.42 84.8055 125.929 86.244C128.896 89.1377 128.837 91.7582 128.534 95.3574C130.72 88.2207 131.922 80.5118 131.922 72.1896V0.57251H1.07764Z" fill="#EAD452"/>
<path d="M65.2123 59.8327C65.2011 59.8327 65.1957 59.8324 65.1883 59.8438C65.0995 59.9404 65.3222 60.6433 65.7062 61.9543C66.5531 64.8458 65.486 68.2912 63.31 70.6222C61.6728 72.3766 60.9872 74.8865 61.0937 77.3002C59.5647 75.0742 58.9216 72.2421 59.6366 69.8009C60.0206 68.4899 60.2433 67.7866 60.1545 67.6897C60.0403 67.5653 59.4 68.4299 57.8909 70.2175C54.5066 74.3197 55.06 77.9703 55.422 83.4998C55.4829 84.4297 55.1439 85.3248 54.6635 86.2192C52.5383 83.8898 51.5021 80.5031 52.3392 77.6453C52.7232 76.3346 52.958 75.6324 52.8691 75.5355C52.755 75.4111 52.1139 76.2757 50.6048 78.0633C47.2205 82.1659 47.7746 85.8045 48.1366 91.3345C48.2053 92.3826 47.7492 93.7928 47.1728 95.0905C45.1835 92.771 44.2434 89.4993 45.0539 86.7327C45.4378 85.4216 45.6725 84.7306 45.5838 84.6333C45.4696 84.5086 44.8286 85.3612 43.3195 87.1492C39.9352 91.2514 40.4885 94.9024 40.8506 100.432C40.9074 101.3 40.5951 102.136 40.1647 102.972C37.9887 100.641 36.9208 97.195 37.7678 94.3035C38.1518 92.9928 38.3745 92.2899 38.2857 92.193C38.1715 92.0682 37.5312 92.9325 36.0221 94.7208C32.6379 98.823 33.1912 102.474 33.5532 108.004C33.6179 108.993 33.2266 109.937 32.698 110.889C30.6426 108.564 29.6469 105.235 30.4704 102.424C30.8544 101.113 31.0891 100.41 31.0003 100.313C30.8861 100.189 30.2451 101.053 28.736 102.841C25.3517 106.943 25.9058 110.594 26.2678 116.124C26.3074 116.729 26.1834 117.316 25.9545 117.901C25.8361 117.752 25.7116 117.599 25.5813 117.459C23.4053 115.128 22.3381 111.695 23.185 108.804C23.569 107.493 23.8038 106.789 23.7149 106.692C23.6008 106.568 22.9597 107.432 21.4507 109.22C18.1446 113.227 18.5961 116.816 18.9563 122.135C31.1519 137.116 48.3358 148.335 66.5 156.478C84.473 148.421 101.486 137.352 113.656 122.608C113.657 122.573 113.656 122.539 113.659 122.504C114.021 116.974 114.563 113.323 111.178 109.221C109.669 107.432 109.04 106.568 108.926 106.692C108.837 106.789 109.06 107.493 109.444 108.804C110.291 111.695 109.224 115.129 107.048 117.46C106.998 117.514 106.951 117.572 106.903 117.627C106.549 116.882 106.311 116.134 106.361 115.362C106.723 109.831 107.277 106.18 103.892 102.078C102.383 100.29 101.743 99.4256 101.629 99.5499C101.54 99.6465 101.775 100.35 102.159 101.661C103.006 104.552 101.938 107.998 99.7617 110.33C99.7364 110.36 99.7144 110.386 99.6898 110.412C99.2958 109.62 99.022 108.827 99.0759 108.005C99.4379 102.475 99.9913 98.823 96.607 94.7208C95.0979 92.9325 94.4569 92.0682 94.3427 92.193C94.2539 92.2899 94.4886 92.9936 94.8726 94.3042C95.687 97.0847 94.7267 100.377 92.717 102.698C92.1515 101.702 91.7221 100.704 91.7898 99.6692C92.1518 94.1396 92.7052 90.489 89.3209 86.3869C87.8118 84.5993 87.1715 83.7462 87.0573 83.871C86.9685 83.9679 87.1912 84.6585 87.5752 85.9695C88.4065 88.8068 87.3943 92.179 85.2989 94.5069C84.8021 93.3161 84.4303 92.0699 84.4924 91.1206C84.8545 85.5906 85.4078 81.952 82.0235 77.8495C80.5144 76.0618 79.8861 75.1968 79.7719 75.3216C79.6831 75.4185 79.9052 76.1211 80.2891 77.4321C81.1346 80.3182 80.0732 83.7455 77.9049 86.0761C77.4646 85.2287 77.1487 84.3808 77.2064 83.5006C77.5684 77.971 78.1224 74.3197 74.7382 70.2175C73.2291 68.4299 72.588 67.5653 72.4739 67.6897C72.385 67.7866 72.6198 68.4899 73.0038 69.8009C73.8408 72.6588 72.8047 76.0439 70.6795 78.3734C70.1991 77.479 69.8601 76.585 69.921 75.6555C70.283 70.1259 70.8364 66.4746 67.4521 62.3724C66.0373 60.6962 65.382 59.8327 65.2123 59.8327ZM116.24 113.764C116.228 113.764 116.218 113.764 116.211 113.775C116.123 113.872 116.357 114.563 116.741 115.874C116.966 116.64 117.052 117.445 117.023 118.258C117.502 117.597 117.976 116.932 118.436 116.257C117.058 114.622 116.407 113.762 116.24 113.764ZM16.3894 113.764C16.2337 113.764 15.6007 114.585 14.4038 116.016C14.8007 116.603 15.2044 117.185 15.616 117.762C15.6319 117.119 15.7204 116.484 15.899 115.874C16.283 114.563 16.5057 113.873 16.4169 113.776C16.4097 113.768 16.4006 113.764 16.3894 113.764Z" fill="#E64151"/>
<path fill-rule="evenodd" clip-rule="evenodd" d="M48.1577 99.0951V109.474L53.3982 114.664V130.231H48.1577V125.041H42.9165V130.231H37.6759V125.041H32.4354V130.231H27.1949V125.041H21.9543V125.637C33.8876 138.881 49.779 148.982 66.4999 156.478C83.2208 148.982 99.1122 138.881 111.045 125.637V125.041H105.805V130.231H100.564V125.041H95.3238V130.231H90.0826V125.041H84.8421V130.231H79.6016V114.664L84.8421 109.474V99.0951H79.6016V104.286H74.361V99.0951H69.1205V104.286H63.8793V99.0951H58.6388V104.286H53.3982V99.0951H48.1577Z" fill="#F5FBF8" stroke="black" stroke-width="1.5"/>
<path d="M93.054 59.8557C93.0788 59.8826 93.102 59.9128 93.1266 59.9397C93.1544 59.909 93.1832 59.8822 93.2106 59.8557H93.054Z" fill="#E64151"/>
<path fill-rule="evenodd" clip-rule="evenodd" d="M66.4998 135.689C63.5073 135.689 59.9587 137.12 57.639 139.603C55.3194 142.086 54.2287 145.626 53.262 149.859C57.5746 152.26 62.0068 154.464 66.4998 156.479C70.9919 154.465 75.4231 152.261 79.7349 149.861C78.7685 145.628 77.6783 142.088 75.3592 139.605C73.0401 137.121 69.4919 135.694 66.4998 135.689Z" fill="#222B2C" stroke="black" stroke-width="1.5" stroke-linecap="round" stroke-linejoin="bevel"/>
<path d="M57.4858 142.828C56.8299 142.828 56.1838 143.136 55.7641 143.634C55.064 144.427 55.159 145.724 55.9045 146.455C56.4558 146.909 56.7457 147.645 56.6652 148.349C56.57 149.41 55.5392 150.239 54.4813 150.229C54.1582 150.229 53.8383 150.155 53.5464 150.018C57.7693 152.358 62.1057 154.509 66.4999 156.479C70.9919 154.465 75.4232 152.261 79.7349 149.861C79.374 150.095 78.9475 150.233 78.5156 150.229C77.4577 150.237 76.4269 149.41 76.3318 148.349C76.2512 147.645 76.5411 146.909 77.0924 146.455C77.838 145.724 77.933 144.427 77.2328 143.634C76.8132 143.136 76.167 142.83 75.5112 142.828C74.8553 142.828 74.2099 143.136 73.7902 143.634C73.0901 144.427 73.185 145.724 73.9306 146.455C74.4819 146.909 74.7711 147.645 74.6906 148.349C74.5954 149.41 73.5653 150.239 72.5074 150.229C71.4495 150.237 70.4187 149.41 70.3236 148.349C70.243 147.645 70.5322 146.909 71.0835 146.455C71.8291 145.724 71.9248 144.427 71.2246 143.634C70.8049 143.136 70.1588 142.83 69.5029 142.828C68.8471 142.828 68.2009 143.136 67.7813 143.634C67.0811 144.427 67.1761 145.724 67.9217 146.455C68.473 146.909 68.7629 147.645 68.6823 148.349C68.5872 149.41 67.5564 150.239 66.4985 150.229C65.4405 150.237 64.4098 149.41 64.3146 148.349C64.2341 147.645 64.524 146.909 65.0753 146.455C65.8208 145.724 65.9158 144.427 65.2157 143.634C64.796 143.136 64.1499 142.83 63.494 142.828C62.8381 142.828 62.1927 143.136 61.773 143.634C61.0729 144.427 61.1679 145.724 61.9134 146.455C62.4647 146.909 62.754 147.645 62.6734 148.349C62.5782 149.41 61.5482 150.239 60.4902 150.229C59.4323 150.237 58.4016 149.41 58.3064 148.349C58.2259 147.645 58.515 146.909 59.0663 146.455C59.8119 145.724 59.9076 144.427 59.2075 143.634C58.7878 143.136 58.1417 142.83 57.4858 142.828Z" fill="#5BB7EA"/>
<path d="M131.922 72.1903V0.57251H1.07812V72.1903C1.07812 114.499 32.0278 141.025 66.5002 156.479C100.973 141.025 131.922 114.499 131.922 72.1903Z" stroke="black" stroke-width="3.2" stroke-linejoin="bevel"/>
<path fill-rule="evenodd" clip-rule="evenodd" d="M127.521 47.6401C131.087 52.8604 118.972 60.8292 114.138 65.1518C109.285 60.8091 97.1356 52.7895 100.68 47.5848C103.916 42.8312 109.478 43.3704 111.3 47.7432L114.1 47.75L116.9 47.755C118.703 43.3892 124.264 42.8732 127.521 47.6401ZM125.122 48.9183C124.161 47.2596 120.392 46.8174 118.092 48.9082L117.51 51.2402C118.739 52.5108 120.372 53.4508 121.853 53.4758C123.34 53.5048 124.665 52.6178 125.287 50.2443C125.417 49.7481 125.344 49.3009 125.122 48.9183ZM118.44 54.3987C117.972 53.7327 116.715 53.5072 115.468 53.8553L114.114 53.8526L112.758 53.8491C111.094 53.3778 109.417 53.929 109.618 55.1866C110.049 57.8902 112.612 61.6279 114.131 62.1177C115.646 61.6372 118.197 57.9085 118.615 55.2054C118.665 54.8908 118.596 54.6207 118.44 54.3987ZM110.117 48.8911C107.273 46.305 102.22 47.5461 102.927 50.197C103.559 52.5734 104.885 53.4665 106.374 53.4423C107.855 53.4239 109.484 52.491 110.707 51.2256L110.117 48.8911Z" fill="#A94F38" stroke="black" stroke-width="1.50001"/>
<path fill-rule="evenodd" clip-rule="evenodd" d="M115.892 10.42L124.864 10.4393L124.875 15.9304L122.206 15.9253L122.741 12.9371L119.068 12.9296L119.615 15.9201L117.403 15.3706L117.409 18.6139L119.621 18.0745L119.086 21.0627L122.759 21.0703L122.212 18.0796L124.879 18.0859L124.891 23.577L115.92 23.5577" fill="#A94F38"/>
<path d="M115.892 10.42L124.864 10.4393L124.875 15.9304L122.206 15.9253L122.741 12.9371L119.068 12.9296L119.615 15.9201L117.403 15.3706L117.409 18.6139L119.621 18.0745L119.086 21.0627L122.759 21.0703L122.212 18.0796L124.879 18.0859L124.891 23.577L115.92 23.5577" stroke="black" stroke-width="1.50001" stroke-linejoin="bevel"/>
<path fill-rule="evenodd" clip-rule="evenodd" d="M112.252 8.50637L112.329 44.2527C112.081 46.5605 111.423 48.5265 109.574 50.0869C112.312 51.7123 113.574 54.371 114.165 57.4003C114.741 54.3733 115.993 51.7214 118.724 50.1073C116.868 48.539 116.2 46.5688 115.942 44.2598L115.865 8.51345C115.764 6.95835 115.45 6.92261 114.054 6.44867C112.659 6.91674 112.346 6.95191 112.252 8.50637Z" fill="#A94F38" stroke="black" stroke-width="1.50001"/>
<path d="M114.105 37.7741C116.199 37.7785 117.898 38.6681 117.9 39.7611C117.902 40.8541 116.207 41.7366 114.113 41.7322C112.02 41.7278 110.321 40.8382 110.318 39.7452C110.316 38.6522 112.011 37.7697 114.105 37.7741Z" fill="#A94F38" stroke="black" stroke-width="1.50001" stroke-linecap="round" stroke-linejoin="round"/>
<path fill-rule="evenodd" clip-rule="evenodd" d="M32.7092 123.7V111.538H39.2121V122.627H41.3797V111.538H47.8826V123.7H32.7092ZM34.8768 122.627H37.0445V112.611H34.8768V122.627ZM43.5473 122.627H45.7149V112.611H43.5473V122.627Z" fill="#EAD452" stroke="black" stroke-width="1.25"/>
<path fill-rule="evenodd" clip-rule="evenodd" d="M60.24 87.4218V88.9473H63.383V97.2462H66.5261V88.9473C68.4629 88.974 72.7567 88.9474 72.8122 79.611H63.383V87.3912L60.24 87.4218ZM66.5261 81.1678H69.6691C69.6941 87.3914 68.6214 87.3912 66.5261 87.3912V81.1678Z" fill="#EAD452" stroke="black" stroke-width="1.5"/>
<path d="M89.0826 117.572C88.3807 119.542 87.6021 121.747 86.9001 123.717H89.21C89.9607 121.448 90.7306 120.686 93.0405 118.78L93.0597 123.717H99.9893V116.092C94.2147 116.092 92.8176 117.36 90.3649 119.904L93.8297 110.754H91.9048H91.5198L85.726 110.777C85.341 118.402 88.8058 116.877 89.9607 118.021V117.259C88.4208 116.496 88.0358 116.114 88.0358 111.921L91.112 111.898C90.4978 113.622 89.9346 115.169 89.3204 116.892M97.6794 117.236V122.574H95.3696L95.3503 117.637C96.1203 117.255 96.5245 117.236 97.6794 117.236Z" fill="#EAD452"/>
<path d="M89.0826 117.572C88.3807 119.542 87.6021 121.747 86.9001 123.717H89.21C89.9607 121.448 90.7306 120.686 93.0405 118.78L93.0597 123.717H99.9893V116.092C94.2147 116.092 92.8176 117.36 90.3649 119.904L93.8297 110.754H91.9048H91.5198L85.726 110.777C85.341 118.402 88.8058 116.877 89.9607 118.021V117.259C88.4208 116.496 88.0358 116.114 88.0358 111.921L91.112 111.898C90.4978 113.622 89.9346 115.169 89.3204 116.892M97.6794 117.236V122.574H95.3696L95.3503 117.637C96.1203 117.255 96.5245 117.236 97.6794 117.236Z" stroke="black" stroke-width="1.25"/>
<path fill-rule="evenodd" clip-rule="evenodd" d="M22.6483 22.8949L32.1092 24.9562V22.1891L22.6483 20.1278V16.8264C24.5798 16.1251 25.9593 14.2908 25.9593 12.1411C25.9593 9.38739 23.6963 7.15176 20.9079 7.15176C18.1195 7.15176 15.8564 9.38739 15.8564 12.1411C15.8564 14.2908 17.236 16.1251 19.1674 16.8264V20.1278L9.70655 22.1891V24.9562L19.1674 22.8949C19.2099 26.7936 19.3255 35.0735 18.7674 44.4687C18.5224 48.5948 18.0355 50.7473 17.5801 51.8904C7.21235 51.5848 7.79404 49.9906 6.95335 41.955L8.77485 42.9245L5.97256 35.9968L3.73071 42.8552L5.4121 42.0936C5.34204 46.8043 5.37083 50.6942 9.41412 53.5449C13.4842 56.415 15.9735 53.2749 20.8728 58.8793L20.9079 58.9202L20.9429 58.8793C25.8422 53.2749 28.3315 56.415 32.4016 53.5449C36.4449 50.6942 36.4737 46.8043 36.4036 42.0936L38.085 42.8552L35.8432 35.9968L33.0409 42.9245L34.8624 41.955C34.0217 49.9906 34.6034 51.5848 24.2356 51.8904C23.7803 50.7473 23.2934 48.5948 23.0483 44.4687C22.4903 35.0735 22.6059 26.7936 22.6483 22.8949ZM20.9078 8.78755C22.7824 8.78755 24.3038 10.2898 24.3038 12.1411C24.3038 13.9924 22.7824 15.4954 20.9078 15.4954C19.0333 15.4954 17.5119 13.9924 17.5119 12.1411C17.5119 10.2898 19.0333 8.78755 20.9078 8.78755Z" fill="#A94F38" stroke="black" stroke-width="1.5"/>
</g>
<defs>
<clipPath id="clip0_176_1236">
<rect width="132" height="157" fill="white" transform="translate(0.5)"/>
</clipPath>
</defs>
</svg>
