<svg width="133" height="159" viewBox="0 0 133 159" fill="none" xmlns="http://www.w3.org/2000/svg">
<g clip-path="url(#clip0_176_1098)">
<path d="M2.61959 2.61036L1.07813 86.9547C1.07813 86.9547 1.05695 127.556 66.5106 157.865C131.943 127.556 131.922 86.9547 131.922 86.9547L130.381 2.61036C130.381 2.61036 87.8068 1.07547 66.5106 1.07547C45.2074 1.07547 2.61959 2.61036 2.61959 2.61036Z" fill="#8B5481" stroke="black" stroke-width="3.2"/>
<path d="M45.0481 79.4179C44.2909 79.4179 43.5648 79.7504 43.0294 80.3412C42.494 80.932 42.1932 81.7331 42.193 82.5686C42.1931 83.4043 42.4939 84.2052 43.0293 84.7961C43.5647 85.387 44.2909 85.7193 45.0481 85.7194C45.8053 85.7193 46.5315 85.387 47.0669 84.7961C47.6023 84.2052 47.9031 83.4043 47.9031 82.5686C47.903 81.7331 47.6022 80.932 47.0668 80.3412C46.5314 79.7504 45.8052 79.4179 45.0481 79.4179ZM98.7038 79.4179C97.9467 79.4179 97.2206 79.7504 96.6852 80.3412C96.1497 80.932 95.8489 81.7331 95.8488 82.5686C95.8488 83.4043 96.1496 84.2052 96.685 84.7961C97.2205 85.387 97.9466 85.7193 98.7038 85.7194C99.4611 85.7193 100.187 85.387 100.723 84.7961C101.258 84.2052 101.559 83.4043 101.559 82.5686C101.559 81.7331 101.258 80.932 100.723 80.3412C100.187 79.7504 99.461 79.4179 98.7038 79.4179ZM34.9879 79.4924C34.6128 79.4924 34.2414 79.5733 33.8949 79.7316C33.5484 79.89 33.2335 80.1222 32.9683 80.4149C32.7031 80.7076 32.4928 81.0557 32.3493 81.4381C32.2058 81.8205 32.132 82.2301 32.1321 82.644C32.1321 83.0578 32.206 83.4676 32.3495 83.8499C32.493 84.2322 32.7034 84.5797 32.9686 84.8723C33.2338 85.1649 33.5486 85.3972 33.8951 85.5555C34.2415 85.7138 34.6129 85.7948 34.9879 85.7948C35.7451 85.7947 36.4713 85.4624 37.0067 84.8715C37.5421 84.2806 37.8429 83.4796 37.8429 82.644C37.843 82.2302 37.7692 81.8205 37.6258 81.4381C37.4823 81.0557 37.2721 80.7084 37.0069 80.4157C36.7418 80.123 36.4271 79.8909 36.0806 79.7325C35.7342 79.5741 35.3629 79.4925 34.9879 79.4924ZM88.6377 79.526C87.8805 79.5261 87.1544 79.8577 86.619 80.4485C86.0836 81.0393 85.7828 81.8404 85.7826 82.676C85.7826 83.5116 86.0835 84.3134 86.6189 84.9043C87.1543 85.4952 87.8805 85.8275 88.6377 85.8275C89.0127 85.8276 89.384 85.7458 89.7305 85.5875C90.077 85.4292 90.3918 85.1968 90.657 84.9043C90.9222 84.6117 91.1325 84.2642 91.2761 83.8819C91.4196 83.4995 91.4935 83.0898 91.4935 82.676C91.4934 82.2622 91.4195 81.8523 91.276 81.4701C91.1324 81.0878 90.922 80.741 90.6568 80.4485C90.3917 80.1559 90.0768 79.9235 89.7304 79.7652C89.384 79.607 89.0126 79.5259 88.6377 79.526ZM79.4913 80.2158C78.7341 80.2159 78.0079 80.5482 77.4725 81.1391C76.937 81.73 76.6363 82.5317 76.6362 83.3674C76.6363 84.203 76.937 85.004 77.4725 85.5949C78.0079 86.1858 78.7341 86.5181 79.4913 86.5181C79.8663 86.5182 80.2376 86.4364 80.5841 86.2781C80.9306 86.1198 81.2454 85.8883 81.5106 85.5957C81.7758 85.3031 81.9861 84.9556 82.1297 84.5733C82.2732 84.191 82.3471 83.7812 82.3471 83.3674C82.3471 82.9535 82.2732 82.5438 82.1297 82.1615C81.9861 81.7792 81.7758 81.4317 81.5106 81.1391C81.2454 80.8465 80.9306 80.6142 80.5841 80.4558C80.2376 80.2975 79.8663 80.2157 79.4913 80.2158ZM71.0226 80.3772C70.2654 80.3772 69.5392 80.7088 69.0038 81.2997C68.4684 81.8905 68.1676 82.6923 68.1676 83.528C68.1677 84.3635 68.4686 85.1646 69.004 85.7554C69.5394 86.3462 70.2655 86.6778 71.0226 86.6779C71.7798 86.6778 72.5059 86.3462 73.0413 85.7554C73.5767 85.1646 73.8776 84.3635 73.8777 83.528C73.8777 82.6923 73.5769 81.8905 73.0415 81.2997C72.5061 80.7088 71.7799 80.3773 71.0226 80.3772ZM53.7461 80.5378C52.989 80.5378 52.2628 80.8694 51.7274 81.4602C51.192 82.051 50.8912 82.8521 50.8911 83.6877C50.8911 84.5233 51.1919 85.3251 51.7273 85.916C52.2627 86.5069 52.9889 86.8384 53.7461 86.8385C54.5033 86.8384 55.2295 86.5069 55.7649 85.916C56.3004 85.3251 56.6011 84.5233 56.6012 83.6877C56.601 82.8521 56.3002 82.051 55.7648 81.4602C55.2294 80.8694 54.5033 80.5378 53.7461 80.5378ZM62.4568 80.5902C61.6996 80.5902 60.9735 80.9218 60.4381 81.5127C59.9027 82.1035 59.6018 82.9046 59.6017 83.7401C59.6017 84.5758 59.9025 85.3775 60.4379 85.9684C60.9734 86.5593 61.6995 86.8908 62.4568 86.8909C62.8318 86.891 63.2031 86.81 63.5496 86.6517C63.896 86.4934 64.2109 86.261 64.476 85.9684C64.7412 85.6758 64.9516 85.3284 65.0951 84.946C65.2387 84.5637 65.3125 84.154 65.3125 83.7401C65.3125 83.3263 65.2386 82.9165 65.095 82.5342C64.9515 82.152 64.7411 81.8052 64.4759 81.5127C64.2107 81.2201 63.8959 80.9877 63.5495 80.8294C63.203 80.6711 62.8317 80.5901 62.4568 80.5902Z" fill="#EAD452" stroke="black" stroke-width="1.10987" stroke-linecap="round" stroke-linejoin="bevel"/>
<path fill-rule="evenodd" clip-rule="evenodd" d="M22.1127 53.3204C20.3467 52.8685 18.3388 55.4028 20.0189 56.9298C21.0878 57.8769 22.8722 56.6505 21.4802 55.4237C21.7916 53.7204 23.4099 56.0069 23.4007 57.0945C23.4946 60.6424 21.7058 63.6596 19.9191 66.5167C17.1178 70.9962 15.0361 76.2368 14.4562 81.6858C14.0654 89.2568 16.6365 93.6035 21.9277 97.6727C25.2113 98.951 28.7594 98.9887 32.1901 99.4361C54.9278 100.929 77.7607 101.101 100.494 99.4536C113.645 96.3312 118.986 92.8133 119.117 79.9879C118.6 76.6283 118.149 72.9726 116.422 70.1589C113.778 65.849 110.625 61.9002 108.271 57.3903C106.243 56.6252 108.592 62.0205 108.917 63.5815C109.798 67.8207 110.953 72.087 110.257 76.4322C109.669 77.668 108.387 78.7487 107.231 79.4435C105.093 80.6412 103.022 82.0603 100.561 82.1847C95.4116 83.3265 90.104 82.6434 84.8855 83.021C69.4274 83.378 53.9318 84.2335 38.4857 83.2639C34.6696 82.5543 30.6751 82.6748 27.086 80.9098C25.4225 80.0244 22.8802 79.2844 22.5812 77.2545C21.5658 70.3617 25.252 65.2491 24.7452 56.5475C24.6734 55.0321 23.5853 53.3194 22.1127 53.3234V53.3204Z" fill="#F5FBF8" stroke="black" stroke-width="1.10987" stroke-linejoin="bevel"/>
<path fill-rule="evenodd" clip-rule="evenodd" d="M26.8488 80.7923C30.0119 82.5104 33.7318 82.5107 37.2047 83.0547C55.0278 84.5795 72.9318 83.0685 90.7806 82.8922C95.3699 83.9861 100.56 82.1846 105.184 81.446L107.094 81.1393L109.364 80.2287L107.966 83.3509L105.799 86.4776C99.1102 87.8614 92.2696 87.8029 85.4374 88.1309C69.4493 88.4816 53.3897 89.1899 37.4509 87.403C33.0814 86.3283 28.429 86.2442 24.2843 84.3987L23.2571 80.7015L25.6444 81.1008L26.8488 80.7923Z" fill="#222B2C" stroke="black" stroke-width="1.10987" stroke-linejoin="bevel"/>
<path fill-rule="evenodd" clip-rule="evenodd" d="M65.0844 67.9326C65.3319 73.8581 65.4478 79.7906 65.432 85.7223L68.0323 85.8254C67.8888 82.4515 67.7427 79.0776 67.5938 75.7037C67.2177 67.1757 66.8246 58.6486 66.4146 50.1224L67.1358 24.5415L66.7581 23.9801L65.7902 24.3003C65.6296 26.0967 65.4844 27.8951 65.3547 29.6946C64.6537 39.4167 64.4039 49.1782 64.6068 58.9286C64.7997 61.9275 64.959 64.9292 65.0844 67.9326Z" fill="#EAD452" stroke="black" stroke-width="1.10987" stroke-linejoin="bevel"/>
<path fill-rule="evenodd" clip-rule="evenodd" d="M43.8438 38.2544C44.498 35.5745 47.8562 36.5264 49.6589 35.3533C58.3132 32.7901 66.9689 30.1658 75.7491 28.1865C79.5001 27.5516 83.2954 27.2689 87.0295 26.5074C90.2272 26.9132 92.2204 30.0522 94.3998 32.3237C98.7168 36.8233 98.5784 44.142 98.9036 50.3297C99.2484 52.9148 98.8919 55.464 97.8562 57.8076C96.766 60.8034 95.0743 63.6808 92.3675 65.1465C88.8615 67.3567 85.043 68.88 81.4264 70.8396C77.579 72.3098 73.4397 72.2767 69.4273 72.631C65.3301 72.5362 61.2991 71.4689 57.2726 70.8117C55.06 68.8668 59.1178 68.4417 60.159 68.0171C63.2438 65.6682 64.9389 61.7856 66.566 58.1942C68.0035 54.1184 66.1157 49.8718 64.1375 46.4594C62.6442 43.9817 60.5658 41.9125 57.9357 41.0503C55.3832 40.1313 52.896 38.3729 50.1007 38.9854C48.0822 39.1702 45.685 39.8316 43.9438 38.3825L43.8526 38.2654L43.8438 38.2566V38.2544Z" fill="#F5FBF8"/>
<path fill-rule="evenodd" clip-rule="evenodd" d="M83.6459 27.0385C82.3083 27.2411 80.9698 27.438 79.6306 27.6267C79.4235 27.6561 79.2162 27.6826 79.0092 27.7111C79.0092 27.7111 80.8599 28.9342 81.7433 29.6158C90.8412 36.1332 94.8651 49.8332 90.4346 60.998C89.9283 62.253 89.3808 63.4875 88.7925 64.6985C88.4523 65.3989 88.1542 66.131 87.7317 66.7744L86.8483 68.1196C87.1686 67.9556 87.4896 67.7937 87.8089 67.6272C88.955 67.0303 90.0913 66.4119 91.223 65.7823C91.223 65.7823 92.7202 63.3322 93.3127 62.0122C97.3841 52.4711 96.2484 38.1355 88.8252 31.4722C87.5964 30.3766 86.3539 29.2986 85.0986 28.2404C84.6175 27.8347 84.1308 27.4387 83.6459 27.0385ZM73.3867 28.7532C73.3867 28.7532 69.8661 29.6016 68.1146 30.0672C68.1047 30.0672 68.0849 30.0754 68.0849 30.0754C68.0849 30.0754 70.6395 31.5758 71.879 32.3979C72.9558 33.1122 74.0183 33.8577 75.0399 34.6647C76.2895 35.6521 77.5893 36.5975 78.6633 37.8106C84.0682 44.6635 84.0928 54.5112 81.0937 62.2441C80.3472 64.1693 79.5282 66.0787 78.4925 67.8336C77.9481 68.7564 77.2576 69.5643 76.61 70.4019C76.1552 70.99 75.204 72.1239 75.204 72.1239L80.2311 71.136C80.2311 71.136 80.7426 70.6423 80.9734 70.3675C81.462 69.7857 81.9304 69.1763 82.3253 68.5136C83.5866 66.3967 84.5579 64.0803 85.5418 61.791C89.3482 53.986 87.9263 41.9381 82.5984 35.8092C81.5025 34.5475 80.3104 33.3792 79.0396 32.3365C78.049 31.5236 76.9652 30.8559 75.8914 30.1836C75.0738 29.6718 73.3867 28.754 73.3867 28.754L73.3867 28.7532ZM61.1559 31.9695L54.6062 33.8619C54.6062 33.8619 56.7109 34.5167 57.7322 34.9433C59.3599 35.6232 60.9742 36.3679 62.4995 37.2928C63.6522 37.9916 64.7435 38.8169 65.7896 39.6964C67.2627 40.9355 68.7269 42.2199 69.9757 43.7295C70.2912 44.1108 70.5887 44.5232 70.7989 44.9846C71.8361 47.2609 72.6719 49.7372 72.8804 52.2749C72.9718 53.3864 72.7188 54.5067 72.5041 55.5977C72.2529 56.8736 71.886 58.1249 71.4433 59.3358C70.7465 61.2413 69.8398 63.0468 68.9453 64.8492C68.4218 65.9037 67.8844 66.9539 67.2683 67.9459C66.6711 68.9072 66.0424 69.8541 65.3175 70.7018C64.9181 71.1686 64.0065 71.974 64.0065 71.974C64.0065 71.974 65.7195 72.3658 66.5883 72.4615C67.5408 72.5663 69.459 72.5557 69.459 72.5557C69.459 72.5557 70.4854 71.3393 70.9466 70.6837C72.0402 69.1293 73.082 67.5189 73.9687 65.8118C74.8245 64.1638 75.462 62.3891 76.1705 60.658C79.0136 54.4112 78.1623 48.7714 75.1297 42.7939C74.7841 42.1312 74.2742 41.5884 73.7995 41.0318C73.1953 40.3233 72.5553 39.649 71.8738 39.032C70.8364 38.0929 69.7057 37.2861 68.5949 36.4556C67.7616 35.8323 66.9315 35.1982 66.0561 34.65C64.4706 33.6567 61.1559 31.9695 61.1559 31.9695Z" fill="#222B2C"/>
<path fill-rule="evenodd" clip-rule="evenodd" d="M43.8438 38.2544C44.498 35.5745 47.8562 36.5264 49.6589 35.3533C58.3132 32.7901 66.9689 30.1658 75.7491 28.1865C79.5001 27.5516 83.2954 27.2689 87.0295 26.5074C90.2272 26.9132 92.2204 30.0522 94.3998 32.3237C98.7168 36.8233 98.5784 44.142 98.9036 50.3297C99.2484 52.9148 98.8919 55.464 97.8562 57.8076C96.766 60.8034 95.0743 63.6808 92.3675 65.1465C88.8615 67.3567 85.043 68.88 81.4264 70.8396C77.579 72.3098 73.4397 72.2767 69.4273 72.631C65.3301 72.5362 61.2991 71.4689 57.2726 70.8117C55.06 68.8668 59.1178 68.4417 60.159 68.0171C63.2438 65.6682 64.9389 61.7856 66.566 58.1942C68.0035 54.1184 66.1157 49.8718 64.1375 46.4594C62.6442 43.9817 60.5658 41.9125 57.9357 41.0503C55.3832 40.1313 52.896 38.3729 50.1007 38.9854C48.0822 39.1702 45.685 39.8316 43.9438 38.3825L43.8526 38.2654L43.8438 38.2566V38.2544Z" stroke="black" stroke-width="1.10987" stroke-linejoin="bevel"/>
<path d="M91.2232 65.7816C91.2232 65.7816 92.7205 63.3319 93.3129 62.0123C97.3844 52.4708 96.2486 38.1356 88.8254 31.4723C87.5966 30.3767 86.3541 29.2987 85.0989 28.2405C84.6178 27.8349 84.131 27.4376 83.6461 27.0378M79.0095 27.7112C79.0095 27.7112 80.8602 28.9344 81.7435 29.616C90.8414 36.1333 94.8654 49.8321 90.4348 60.9973C89.9286 62.2523 89.381 63.4872 88.7928 64.6978C88.4525 65.3982 88.1545 66.1311 87.732 66.7745L86.8486 68.1197M80.2306 71.1352C80.2306 71.1352 80.7429 70.6415 80.9737 70.3668C81.4623 69.785 81.9299 69.1752 82.3248 68.5129C83.5862 66.3955 84.5574 64.0805 85.5413 61.7911C89.3477 53.9861 87.9265 41.9378 82.5987 35.8093C81.5027 34.5476 80.3106 33.3785 79.0399 32.3358C78.0492 31.5229 76.9654 30.8552 75.8916 30.1829C75.0741 29.6711 73.387 28.7533 73.387 28.7533M68.1148 30.0682C68.1049 30.0682 68.0852 30.0764 68.0852 30.0764C68.0852 30.0764 70.6398 31.5768 71.8793 32.3989C72.9561 33.1128 74.0186 33.8574 75.0402 34.664C76.2897 35.6518 77.5895 36.5977 78.6635 37.8107C84.0684 44.6632 84.0923 54.5113 81.0932 62.2442C80.3467 64.1694 79.5277 66.0776 78.492 67.8329C77.9476 68.7553 77.2579 69.5636 76.6102 70.4012C76.1555 70.9893 75.2042 72.1241 75.2042 72.1241M69.4592 72.555C69.4592 72.555 70.4857 71.3382 70.9469 70.683C72.0405 69.1286 73.0822 67.5195 73.969 65.8119C74.8248 64.1643 75.4622 62.3892 76.1708 60.6581C79.0139 54.4113 78.1626 48.7716 75.13 42.7941C74.7843 42.1318 74.2745 41.5885 73.7997 41.0319C73.1956 40.3239 72.5556 39.6479 71.8741 39.0313C70.8366 38.0922 69.706 37.2858 68.5952 36.4549C67.7619 35.8316 66.9317 35.1987 66.0563 34.6501C64.4708 33.6569 61.1561 31.9688 61.1561 31.9688M54.6064 33.862C54.6064 33.862 56.7112 34.5168 57.7325 34.9434C59.3601 35.6233 60.9744 36.3681 62.4998 37.2929C63.6525 37.9917 64.7438 38.817 65.7899 39.6966C67.263 40.936 68.7272 42.2192 69.9759 43.7288C70.2914 44.1105 70.5889 44.5225 70.7992 44.9839C71.8364 47.2602 72.6722 49.7365 72.8807 52.2742C72.9721 53.3857 72.719 54.506 72.5043 55.5969C72.2531 56.8729 71.8863 58.1237 71.4435 59.3351C70.7467 61.2406 69.8401 63.0474 68.9455 64.8493C68.422 65.9038 67.8847 66.954 67.2686 67.946C66.6713 68.9074 66.0427 69.8546 65.3177 70.7019C64.9184 71.1691 64.0067 71.9733 64.0067 71.9733" stroke="black" stroke-width="1.10987" stroke-linejoin="bevel"/>
<path d="M29.7915 87.2658C31.3684 87.2658 32.6467 85.8549 32.6467 84.1147C32.6467 82.3745 31.3684 80.9636 29.7915 80.9636C28.2146 80.9636 26.9363 82.3745 26.9363 84.1147C26.9363 85.8549 28.2146 87.2658 29.7915 87.2658Z" fill="#EAD452" stroke="black" stroke-width="1.10987" stroke-linecap="round" stroke-linejoin="bevel"/>
<path d="M29.7915 84.9054C30.1872 84.9054 30.508 84.5513 30.508 84.1146C30.508 83.6779 30.1872 83.3237 29.7915 83.3237C29.3957 83.3237 29.075 83.6779 29.075 84.1146C29.075 84.5513 29.3957 84.9054 29.7915 84.9054Z" fill="#EAD452" stroke="black" stroke-width="1.10987" stroke-linecap="round" stroke-linejoin="bevel"/>
<path d="M39.9541 88.2797C41.531 88.2797 42.8093 86.8688 42.8093 85.1286C42.8093 83.3884 41.531 81.9775 39.9541 81.9775C38.3772 81.9775 37.0989 83.3884 37.0989 85.1286C37.0989 86.8688 38.3772 88.2797 39.9541 88.2797Z" fill="#EAD452" stroke="black" stroke-width="1.10987" stroke-linecap="round" stroke-linejoin="bevel"/>
<path d="M49.9072 89.3455C51.4841 89.3455 52.7624 87.9347 52.7624 86.1945C52.7624 84.4542 51.4841 83.0434 49.9072 83.0434C48.3303 83.0434 47.052 84.4542 47.052 86.1945C47.052 87.9347 48.3303 89.3455 49.9072 89.3455Z" fill="#EAD452" stroke="black" stroke-width="1.10987" stroke-linecap="round" stroke-linejoin="bevel"/>
<path d="M49.9072 86.9851C50.3029 86.9851 50.6237 86.631 50.6237 86.1943C50.6237 85.7576 50.3029 85.4035 49.9072 85.4035C49.5115 85.4035 49.1907 85.7576 49.1907 86.1943C49.1907 86.631 49.5115 86.9851 49.9072 86.9851Z" fill="#EAD452" stroke="black" stroke-width="1.10987" stroke-linecap="round" stroke-linejoin="bevel"/>
<path d="M39.9541 85.92C40.3498 85.92 40.6706 85.5658 40.6706 85.1291C40.6706 84.6924 40.3498 84.3383 39.9541 84.3383C39.5583 84.3383 39.2375 84.6924 39.2375 85.1291C39.2375 85.5658 39.5583 85.92 39.9541 85.92Z" fill="#EAD452" stroke="black" stroke-width="1.10987" stroke-linecap="round" stroke-linejoin="bevel"/>
<path d="M61.1311 89.3441C62.708 89.3441 63.9863 87.9333 63.9863 86.1931C63.9863 84.4528 62.708 83.042 61.1311 83.042C59.5542 83.042 58.2759 84.4528 58.2759 86.1931C58.2759 87.9333 59.5542 89.3441 61.1311 89.3441Z" fill="#EAD452" stroke="black" stroke-width="1.10987" stroke-linecap="round" stroke-linejoin="bevel"/>
<path d="M61.1311 86.9844C61.5268 86.9844 61.8476 86.6303 61.8476 86.1936C61.8476 85.7569 61.5268 85.4028 61.1311 85.4028C60.7353 85.4028 60.4146 85.7569 60.4146 86.1936C60.4146 86.6303 60.7353 86.9844 61.1311 86.9844Z" fill="#EAD452" stroke="black" stroke-width="1.10987" stroke-linecap="round" stroke-linejoin="bevel"/>
<path d="M71.876 89.3455C73.4529 89.3455 74.7312 87.9347 74.7312 86.1945C74.7312 84.4542 73.4529 83.0434 71.876 83.0434C70.2991 83.0434 69.0208 84.4542 69.0208 86.1945C69.0208 87.9347 70.2991 89.3455 71.876 89.3455Z" fill="#EAD452" stroke="black" stroke-width="1.10987" stroke-linecap="round" stroke-linejoin="bevel"/>
<path d="M71.8759 86.9851C72.2716 86.9851 72.5924 86.631 72.5924 86.1943C72.5924 85.7576 72.2716 85.4035 71.8759 85.4035C71.4802 85.4035 71.1594 85.7576 71.1594 86.1943C71.1594 86.631 71.4802 86.9851 71.8759 86.9851Z" fill="#EAD452" stroke="black" stroke-width="1.10987" stroke-linecap="round" stroke-linejoin="bevel"/>
<path d="M82.9758 88.494C84.5527 88.494 85.831 87.0831 85.831 85.3429C85.831 83.6027 84.5527 82.1918 82.9758 82.1918C81.3989 82.1918 80.1206 83.6027 80.1206 85.3429C80.1206 87.0831 81.3989 88.494 82.9758 88.494Z" fill="#EAD452" stroke="black" stroke-width="1.10987" stroke-linecap="round" stroke-linejoin="bevel"/>
<path d="M82.9758 86.1336C83.3715 86.1336 83.6923 85.7794 83.6923 85.3427C83.6923 84.906 83.3715 84.5519 82.9758 84.5519C82.5801 84.5519 82.2593 84.906 82.2593 85.3427C82.2593 85.7794 82.5801 86.1336 82.9758 86.1336Z" fill="#EAD452" stroke="black" stroke-width="1.10987" stroke-linecap="round" stroke-linejoin="bevel"/>
<path d="M93.8162 88.6844C95.393 88.6844 96.6714 87.2735 96.6714 85.5333C96.6714 83.7931 95.393 82.3822 93.8162 82.3822C92.2393 82.3822 90.9609 83.7931 90.9609 85.5333C90.9609 87.2735 92.2393 88.6844 93.8162 88.6844Z" fill="#EAD452" stroke="black" stroke-width="1.10987" stroke-linecap="round" stroke-linejoin="bevel"/>
<path d="M93.8161 86.324C94.2118 86.324 94.5326 85.9698 94.5326 85.5331C94.5326 85.0964 94.2118 84.7423 93.8161 84.7423C93.4204 84.7423 93.0996 85.0964 93.0996 85.5331C93.0996 85.9698 93.4204 86.324 93.8161 86.324Z" fill="#EAD452" stroke="black" stroke-width="1.10987" stroke-linecap="round" stroke-linejoin="bevel"/>
<path d="M103.64 87.5089C105.217 87.5089 106.495 86.098 106.495 84.3578C106.495 82.6176 105.217 81.2067 103.64 81.2067C102.063 81.2067 100.785 82.6176 100.785 84.3578C100.785 86.098 102.063 87.5089 103.64 87.5089Z" fill="#EAD452" stroke="black" stroke-width="1.10987" stroke-linecap="round" stroke-linejoin="bevel"/>
<path d="M103.64 85.1492C104.036 85.1492 104.356 84.7951 104.356 84.3584C104.356 83.9217 104.036 83.5675 103.64 83.5675C103.244 83.5675 102.923 83.9217 102.923 84.3584C102.923 84.7951 103.244 85.1492 103.64 85.1492Z" fill="#EAD452" stroke="black" stroke-width="1.10987" stroke-linecap="round" stroke-linejoin="bevel"/>
<path fill-rule="evenodd" clip-rule="evenodd" d="M107.257 83.5701C106.912 83.5952 106.817 84.0194 107.428 84.6678L113.627 91.2552C114.177 92.0065 114.478 92.9599 114.928 93.7899C115.79 95.1322 116.389 96.8695 117.686 97.687C120.232 99.2939 120.87 95.7233 118.9 93.7645C117.664 92.7088 116.278 91.866 114.949 90.9554C113.236 89.3359 110.02 86.1147 108.049 83.9944C107.761 83.6836 107.464 83.5554 107.257 83.5701ZM26.033 83.9084C25.8604 83.9168 25.6147 84.0518 25.3151 84.3827L19.2316 91.1012C18.5409 91.6939 17.6723 92.0075 16.9118 92.4882C15.6798 93.4147 14.0952 94.0447 13.33 95.4595C11.8269 98.2388 15.0496 99.0094 16.8606 96.8719C17.8401 95.528 18.6287 94.0152 19.4788 92.566C20.9779 90.7062 23.9562 87.2161 25.9142 85.0807C26.4395 84.5082 26.4126 83.8933 26.033 83.9084ZM97.9748 85.2511C97.7023 85.2889 97.6112 85.6782 98.0506 86.3661L103.007 94.1291C103.418 94.9822 103.55 95.9818 103.849 96.8907C104.465 98.3886 104.757 100.219 105.889 101.292C108.113 103.403 109.352 100.031 107.754 97.696C106.722 96.4008 105.506 95.2838 104.357 94.1119C102.954 92.164 100.347 88.3284 98.7766 85.8344C98.5084 85.4083 98.1868 85.2226 97.9748 85.2511ZM33.9708 85.3847C33.7935 85.3888 33.5534 85.5902 33.3102 86.0826L29.1931 94.4224C28.6821 95.2063 27.929 95.779 27.3224 96.477C26.3776 97.7492 25.0191 98.8473 24.647 100.443C23.9163 103.577 27.2055 103.312 28.3959 100.698C28.9916 99.1034 29.3608 97.4063 29.8056 95.7512C30.7677 93.5 32.731 89.2236 34.0629 86.5652C34.3878 85.9167 34.2664 85.3779 33.9708 85.3847ZM76.4135 85.9008C76.225 85.9343 76.0572 86.2389 76.0572 86.8937V96.391C75.9481 97.3486 75.5344 98.2497 75.3045 99.1829C75.0265 100.799 74.3092 102.481 74.6742 104.079C75.3913 107.217 78.1642 105.247 78.0764 102.323C77.9082 100.608 77.4971 98.9227 77.17 97.234C77.0391 94.7492 76.9103 89.9583 76.928 86.9207C76.9318 86.2542 76.6558 85.8555 76.4135 85.9008ZM65.6206 86.4906C65.4321 86.5242 65.2635 86.8296 65.2635 87.4843V96.9808C65.1545 97.9388 64.7415 98.8395 64.5115 99.7728C64.2335 101.389 63.5155 103.071 63.8806 104.668C64.5976 107.807 67.3713 105.838 67.2834 102.914C67.1153 101.199 66.7042 99.5129 66.377 97.8246C66.2462 95.3394 66.1174 90.5478 66.135 87.5106C66.1389 86.8436 65.8629 86.4453 65.6206 86.4906ZM44.4854 86.516C44.2973 86.4783 44.0464 86.7019 43.8455 87.318L40.9303 96.2534C40.5336 97.1132 39.8684 97.8061 39.3654 98.598C38.6078 100.015 37.4168 101.33 37.2698 102.969C36.9812 106.19 40.195 105.374 41.0097 102.589C41.3779 100.913 41.5081 99.1735 41.7187 97.4625C42.3582 95.0751 43.7076 90.5196 44.6561 87.6678C44.8644 87.042 44.7272 86.5638 44.4854 86.516ZM87.6177 86.5709C87.272 86.5751 87.1568 86.9936 87.7357 87.6769L93.6128 94.6141C94.126 95.3963 94.382 96.3652 94.7917 97.22C95.589 98.6105 96.1048 100.38 97.3602 101.272C99.8264 103.024 100.633 99.4948 98.7595 97.4249C97.5753 96.2986 96.2323 95.3786 94.9483 94.3921C93.3149 92.6757 90.2552 89.2722 88.3882 87.0403C88.1151 86.714 87.8251 86.568 87.6177 86.5709ZM55.6999 87.0174C55.5092 87.03 55.3143 87.3138 55.2538 87.9652L54.3756 97.4126C54.1786 98.353 53.6847 99.2019 53.3697 100.105C52.9438 101.681 52.0741 103.273 52.2896 104.904C52.7129 108.107 55.6537 106.46 55.8365 103.541C55.8277 101.816 55.5746 100.093 55.4052 98.3768C55.5047 95.8899 55.8196 91.1085 56.1179 88.0889C56.1833 87.4266 55.9452 86.9998 55.6999 87.0174Z" fill="#EAD452" stroke="black" stroke-width="1.10987"/>
<path d="M108.529 62.2474C108.529 62.2474 108.061 61.3414 107.783 60.9745L107.1 60.0726C105.808 58.366 104.933 56.2722 105.19 54.7453C105.408 53.6426 104.098 53.381 103.513 53.4761C103.737 52.7835 103.554 51.5194 102.895 51.0758C102.771 50.9924 102.777 50.8139 102.777 50.8139C102.777 50.8139 103.295 51.4548 105.276 51.8131C106.08 51.9586 107.105 52.5101 107.33 52.8809L107.377 52.8139C113.973 47.6764 109.473 55.1184 109.519 57.8588C109.519 57.8588 109.487 58.5194 109.536 58.8433C109.617 59.3825 109.987 60.4054 109.987 60.4054" fill="#F5FBF8"/>
<path d="M108.529 62.2474C108.529 62.2474 108.061 61.3414 107.783 60.9745L107.1 60.0726C105.808 58.366 104.933 56.2722 105.19 54.7453C105.408 53.6426 104.098 53.381 103.513 53.4761C103.737 52.7835 103.554 51.5194 102.895 51.0758C102.771 50.9924 102.777 50.8139 102.777 50.8139C102.777 50.8139 103.295 51.4548 105.276 51.8131C106.08 51.9586 107.105 52.5101 107.33 52.8809L107.377 52.8139C113.973 47.6764 109.473 55.1184 109.519 57.8588C109.519 57.8588 109.487 58.5194 109.536 58.8433C109.617 59.3825 109.987 60.4054 109.987 60.4054" stroke="black" stroke-width="1.11008"/>
<path d="M105.19 54.2321C105.19 54.2321 105.102 54.3052 104.811 54.7194C105.462 54.5801 105.806 54.5314 105.806 54.5314" fill="#F5FBF8"/>
<path d="M105.19 54.2321C105.19 54.2321 105.102 54.3052 104.811 54.7194C105.462 54.5801 105.806 54.5314 105.806 54.5314" stroke="black" stroke-width="1.11008"/>
<path d="M107.648 53.2593C107.558 53.1078 107.374 52.9268 107.257 52.793L107.648 53.2593Z" fill="#F5FBF8"/>
<path d="M107.648 53.2593C107.558 53.1078 107.374 52.9268 107.257 52.793" stroke="black" stroke-width="1.11008"/>
<path d="M108.819 52.7986C108.632 53.3845 108.383 53.7311 108.111 54.2357C108.722 54.2874 109.021 54.3016 109.848 54.2705C109.848 54.2705 110.297 53.3576 110.434 52.714C109.429 52.8504 108.819 52.7986 108.819 52.7986Z" fill="#F5FBF8" stroke="black" stroke-width="1.11008"/>
<path d="M108.851 52.8079C109.249 53.0339 109.467 53.8689 109.848 54.27L108.851 52.8079Z" fill="#F5FBF8"/>
<path d="M108.851 52.8079C109.249 53.0339 109.467 53.8689 109.848 54.27" stroke="black" stroke-width="1.11008"/>
<path fill-rule="evenodd" clip-rule="evenodd" d="M110.265 55.1818L117.263 52.9791L116.903 53.9027L117.787 54.2296L111.106 56.2058L110.012 56.1712L110.265 55.1818Z" fill="#EAD452" stroke="black" stroke-width="1.11008"/>
<path d="M115.309 51.324C115.309 51.324 115.622 53.6177 115.22 54.2629C114.986 53.4657 114.785 52.9819 114.564 52.6723" fill="#EAD452"/>
<path d="M115.309 51.324C115.309 51.324 115.622 53.6177 115.22 54.2629C114.986 53.4657 114.785 52.9819 114.564 52.6723" stroke="#192021" stroke-width="1.11008"/>
<path d="M114.489 55.6757C114.535 55.2393 114.395 54.1126 114.383 53.5761C114.957 53.9976 115.142 55.2991 115.356 55.9184" fill="#EAD452"/>
<path d="M114.489 55.6757C114.535 55.2393 114.395 54.1126 114.383 53.5761C114.957 53.9976 115.142 55.2991 115.356 55.9184" stroke="#192021" stroke-width="1.11008"/>
<path d="M114.514 52.8105C113.761 53.5548 112.828 53.6742 112.008 54.0507C111.349 54.3622 110.936 54.6893 110.64 54.8068C110.248 55.5181 110.012 56.1717 110.012 56.1717C110.012 56.1717 110.466 56.0281 110.528 56.0371C111.227 56.1371 113.518 55.6867 114.289 55.7312C114.646 55.7444 115.004 55.7576 115.361 55.7708C115.891 55.754 116.132 55.9712 116.132 55.9712C116.132 55.9712 115.407 56.4986 115.322 56.7527C115.136 57.3015 115.075 57.5544 115.261 58.0685C114.682 57.9497 114.095 57.3577 114.132 56.9068C113.429 56.8341 111.384 57.0861 110.722 57.1184C109.682 57.169 108.34 57.4151 107.733 58.0673C107.398 58.3262 107.225 58.5164 106.795 58.8874C106.681 58.5989 107.115 57.4572 107.319 57.1253C107.354 57.0693 107.447 56.8073 107.605 56.6818C107.17 56.3571 106.442 56.3446 106.148 56.3997C106.697 55.6975 108.318 55.0866 108.318 55.0866C108.318 55.0866 106.868 54.6417 106.754 54.6372C107.688 53.7993 109.261 53.9807 109.607 53.9535C109.736 53.6442 109.926 53.3491 110.086 53.0394C110.705 51.838 114.699 50.2493 116.685 50.1255C115.812 50.7313 115.477 51.0312 115.194 51.5665L114.514 52.8105Z" fill="#F5FBF8" stroke="black" stroke-width="1.11008"/>
</g>
<defs>
<clipPath id="clip0_176_1098">
<rect width="132" height="158" fill="white" transform="translate(0.5 0.5)"/>
</clipPath>
</defs>
</svg>
