<svg width="133" height="159" viewBox="0 0 133 159" fill="none" xmlns="http://www.w3.org/2000/svg">
<g clip-path="url(#clip0_176_1164)">
<path fill-rule="evenodd" clip-rule="evenodd" d="M1.07812 1.07547V52.6238H131.922V1.07547H1.07812Z" fill="#2972CC"/>
<path fill-rule="evenodd" clip-rule="evenodd" d="M98.0411 15.4174C97.8071 15.4174 97.5744 15.422 97.3443 15.4299C96.0847 15.4732 94.9252 16.0216 93.9874 16.8715C93.1142 17.6627 92.2619 18.5815 92.2075 19.8093C92.0016 21.7968 92.5288 23.8816 93.9562 25.4077C94.9238 26.4425 95.389 28.2577 94.5728 29.5668C94.0488 29.7645 93.6593 30.1042 94.4392 30.2967C95.7438 30.2002 96.385 28.6423 96.5564 27.5224C96.7044 26.3673 96.4604 25.1418 96.8909 24.037C97.4248 22.7809 98.8725 22.2492 100.152 22.5169C102.127 22.6925 103.969 23.7319 105.131 25.3344C106.045 26.5878 107.125 27.7267 107.876 29.0926C108.29 31.576 108.775 34.1511 108.282 36.6577C107.745 38.6942 105.317 39.3969 103.44 39.0862C102.139 38.9721 100.897 37.8583 101.072 36.4809C100.852 36.1159 99.8066 37.4451 99.6329 37.9998C99.0604 39.3729 99.0405 41.2384 100.386 42.1887C101.841 43.3487 103.436 43.6944 105.011 42.8329C106.497 42.2372 107.463 41.5308 108.253 40.1291H113.647C114.437 41.5308 115.402 42.2372 116.889 42.8329C118.464 43.6944 120.059 43.3487 121.514 42.1887C122.859 41.2384 122.839 39.3729 122.267 37.9998C122.093 37.4451 121.048 36.1159 120.828 36.4809C121.003 37.8583 119.76 38.9721 118.46 39.0862C116.582 39.3969 114.154 38.6942 113.617 36.6577C113.125 34.1511 113.609 31.576 114.024 29.0926C114.775 27.7267 115.855 26.5878 116.768 25.3344C117.93 23.7319 119.773 22.6925 121.748 22.5169C123.027 22.2492 124.475 22.7809 125.009 24.037C125.439 25.1418 125.195 26.3673 125.343 27.5224C125.514 28.6423 126.156 30.2002 127.46 30.2967C128.24 30.1042 127.851 29.7645 127.327 29.5668C126.511 28.2577 126.976 26.4425 127.943 25.4077C129.371 23.8816 129.898 21.7968 129.692 19.8093C129.638 18.5815 128.785 17.6627 127.912 16.8715C126.974 16.0216 125.815 15.4732 124.555 15.4299C122.715 15.3704 120.706 15.4777 119.153 16.5744C116.755 18.1659 115.358 20.7481 114.155 23.2713H107.745C106.541 20.7481 105.145 18.1659 102.746 16.5744C101.388 15.6149 99.6797 15.4131 98.0411 15.4174Z" fill="#F5FBF8" stroke="black" stroke-width="1.75"/>
<path fill-rule="evenodd" clip-rule="evenodd" d="M110.95 3.49371C110.085 5.84636 108.337 7.72306 107.235 9.96068C105.49 12.9141 105.867 16.5288 106.81 19.6759C107.591 22.8886 108.55 26.0681 109.287 29.2845C109.347 31.479 109.46 33.6768 109.487 35.8692C109.22 37.6574 108.739 38.3793 108.253 40.1293C107.685 42.1753 108.424 45.3508 109.217 47.292C109.81 48.5605 110.781 49.6619 110.95 51.0956C111.118 49.6619 112.089 48.5605 112.682 47.292C113.475 45.3508 114.214 42.1753 113.646 40.1293C113.161 38.3793 112.679 37.6574 112.413 35.8692C112.439 33.6768 112.552 31.479 112.612 29.2845C113.349 26.0681 114.308 22.8886 115.089 19.6759C116.032 16.5288 116.409 12.9141 114.664 9.96068C113.562 7.72306 111.814 5.84636 110.95 3.49371Z" fill="#F5FBF8" stroke="black" stroke-width="1.75"/>
<path fill-rule="evenodd" clip-rule="evenodd" d="M107.876 29.0925C107.043 29.6817 107.02 30.8647 107.876 31.4368V34.1792C107.259 34.5854 107.258 35.4948 107.876 35.8873H114.024C114.642 35.4947 114.641 34.585 114.024 34.1789V31.4365C114.88 30.8644 114.856 29.6815 114.024 29.0925H107.876Z" fill="#F5FBF8" stroke="black" stroke-width="1.75"/>
<path fill-rule="evenodd" clip-rule="evenodd" d="M107.876 31.437C107.453 31.4897 107.047 31.6696 106.724 31.9476C106.456 32.1792 106.246 32.4776 106.118 32.808C106.254 33.1759 106.494 33.5042 106.804 33.7452C107.112 33.9847 107.487 34.137 107.876 34.1794H114.024C114.412 34.137 114.788 33.985 115.096 33.7456C115.406 33.5045 115.646 33.1759 115.781 32.808C115.654 32.4776 115.444 32.1795 115.176 31.9479C114.853 31.6699 114.447 31.4897 114.024 31.437H107.876Z" fill="#F5FBF8" stroke="black" stroke-width="1.75"/>
<path d="M1.07764 52.6241V62.8464C1.07764 78.9981 4.7509 92.8259 10.3521 104.53C28.4006 142.245 66.5007 157.877 66.5007 157.877C66.5007 157.877 104.599 142.245 122.648 104.53C128.249 92.8259 131.922 78.9981 131.922 62.8464V52.6241H1.07764Z" fill="#F5FBF8"/>
<path fill-rule="evenodd" clip-rule="evenodd" d="M9.14124 15.4174C8.90716 15.4174 8.67448 15.422 8.44445 15.4299C7.18475 15.4732 6.0253 16.0216 5.08747 16.8715C4.21427 17.6627 3.36196 18.5815 3.30756 19.8093C3.10167 21.7968 3.62895 23.8816 5.05626 25.4077C6.02393 26.4425 6.48906 28.2577 5.67286 29.5668C5.14893 29.7645 4.75944 30.1042 5.53931 30.2967C6.8439 30.2002 7.48508 28.6423 7.65653 27.5224C7.80452 26.3673 7.56046 25.1418 7.99104 24.037C8.52489 22.7809 9.97263 22.2492 11.2522 22.5169C13.2269 22.6925 15.0694 23.7319 16.2315 25.3344C17.1447 26.5878 18.2252 27.7267 18.976 29.0926C19.3906 31.576 19.8747 34.1511 19.3826 36.6577C18.8454 38.6942 16.4175 39.3969 14.5396 39.0862C13.2396 38.9721 11.9972 37.8583 12.1718 36.4809C11.952 36.1159 10.9067 37.4451 10.733 37.9998C10.1605 39.3729 10.1406 41.2384 11.4859 42.1887C12.9409 43.3487 14.5358 43.6944 16.1108 42.8329C17.5975 42.2372 18.5632 41.5308 19.3532 40.1291H24.7466C25.5367 41.5308 26.5023 42.2372 27.9891 42.8329C29.564 43.6944 31.159 43.3487 32.6139 42.1887C33.9593 41.2384 33.9393 39.3729 33.3669 37.9998C33.1931 37.4451 32.1479 36.1159 31.928 36.4809C32.1027 37.8583 30.8602 38.9721 29.5602 39.0862C27.6823 39.3969 25.2544 38.6942 24.7173 36.6577C24.2251 34.1511 24.7092 31.576 25.1239 29.0926C25.8746 27.7267 26.9552 26.5878 27.8683 25.3344C29.0304 23.7319 30.8729 22.6925 32.8476 22.5169C34.1272 22.2492 35.5749 22.7809 36.1088 24.037C36.5394 25.1418 36.295 26.3673 36.443 27.5224C36.6144 28.6423 37.2559 30.2002 38.5605 30.2967C39.3404 30.1042 38.9509 29.7645 38.427 29.5668C37.6108 28.2577 38.0759 26.4425 39.0436 25.4077C40.4709 23.8816 40.9982 21.7968 40.7923 19.8093C40.7379 18.5815 39.8856 17.6627 39.0124 16.8715C38.0745 16.0216 36.9151 15.4732 35.6554 15.4299C33.8151 15.3704 31.8061 15.4777 30.2536 16.5744C27.8547 18.1659 26.4581 20.7481 25.2546 23.2713H18.8449C17.6414 20.7481 16.2452 18.1659 13.8463 16.5744C12.4878 15.6149 10.7798 15.4131 9.14124 15.4174Z" fill="#F5FBF8" stroke="black" stroke-width="1.75"/>
<path fill-rule="evenodd" clip-rule="evenodd" d="M22.0501 3.49371C21.1858 5.84636 19.4376 7.72306 18.3358 9.96068C16.5906 12.9141 16.9674 16.5288 17.9108 19.6759C18.6913 22.8886 19.6508 26.0681 20.3878 29.2845C20.4473 31.479 20.5608 33.6768 20.5869 35.8692C20.3203 37.6574 19.8389 38.3793 19.3534 40.1293C18.7857 42.1753 19.5246 45.3508 20.3173 47.292C20.9106 48.5605 21.8818 49.6619 22.0501 51.0956C22.2183 49.6619 23.1895 48.5605 23.7828 47.292C24.5755 45.3508 25.3144 42.1753 24.7467 40.1293C24.2612 38.3793 23.7798 37.6574 23.5132 35.8692C23.5393 33.6768 23.6528 31.479 23.7123 29.2845C24.4493 26.0681 25.4088 22.8886 26.1893 19.6759C27.1327 16.5288 27.5095 12.9141 25.7643 9.96068C24.6625 7.72306 22.9143 5.84636 22.0501 3.49371Z" fill="#F5FBF8" stroke="black" stroke-width="1.75"/>
<path fill-rule="evenodd" clip-rule="evenodd" d="M18.9759 29.0925C18.1435 29.6817 18.12 30.8647 18.9759 31.4368V34.1792C18.3589 34.5854 18.3581 35.4948 18.9759 35.8873H25.1238C25.7416 35.4947 25.7409 34.585 25.1238 34.1789V31.4365C25.9798 30.8644 25.9563 29.6815 25.1238 29.0925H18.9759Z" fill="#F5FBF8" stroke="black" stroke-width="1.75"/>
<path fill-rule="evenodd" clip-rule="evenodd" d="M18.9759 31.437C18.5529 31.4897 18.1468 31.6696 17.8245 31.9476C17.5559 32.1792 17.3456 32.4776 17.2185 32.808C17.3536 33.1759 17.5942 33.5042 17.9041 33.7452C18.212 33.9847 18.5876 34.137 18.9759 34.1794H25.1239C25.5122 34.137 25.8881 33.985 26.196 33.7456C26.506 33.5045 26.7461 33.1759 26.8813 32.808C26.7542 32.4776 26.5442 32.1795 26.2756 31.9479C25.9533 31.6699 25.5469 31.4897 25.1239 31.437H18.9759Z" fill="#F5FBF8" stroke="black" stroke-width="1.75"/>
<path d="M131.922 52.6241H1.07788" stroke="black" stroke-width="1.74999"/>
<path fill-rule="evenodd" clip-rule="evenodd" d="M53.5912 15.4174C53.3571 15.4174 53.1244 15.422 52.8944 15.4299C51.6347 15.4732 50.4753 16.0216 49.5374 16.8715C48.6642 17.6627 47.8119 18.5815 47.7575 19.8093C47.5516 21.7968 48.0789 23.8816 49.5062 25.4077C50.4739 26.4425 50.939 28.2577 50.1228 29.5668C49.5989 29.7645 49.2094 30.1042 49.9893 30.2967C51.2939 30.2002 51.935 28.6423 52.1065 27.5224C52.2545 26.3673 52.0104 25.1418 52.441 24.037C52.9748 22.7809 54.4226 22.2492 55.7022 22.5169C57.6768 22.6925 59.5194 23.7319 60.6815 25.3344C61.5946 26.5878 62.6752 27.7267 63.4259 29.0926C63.8405 31.576 64.3246 34.1511 63.8325 36.6577C63.2954 38.6942 60.8674 39.3969 58.9896 39.0862C57.6895 38.9721 56.4471 37.8583 56.6218 36.4809C56.4019 36.1159 55.3566 37.4451 55.1829 37.9998C54.6105 39.3729 54.5905 41.2384 55.9359 42.1887C57.3908 43.3487 58.9857 43.6944 60.5607 42.8329C62.0475 42.2372 63.0131 41.5308 63.8032 40.1291H69.1966C69.9866 41.5308 70.9522 42.2372 72.439 42.8329C74.014 43.6944 75.6089 43.3487 77.0638 42.1887C78.4092 41.2384 78.3892 39.3729 77.8168 37.9998C77.6431 37.4451 76.5978 36.1159 76.378 36.4809C76.5526 37.8583 75.3102 38.9721 74.0102 39.0862C72.1323 39.3969 69.7044 38.6942 69.1672 36.6577C68.6751 34.1511 69.1592 31.576 69.5738 29.0926C70.3246 27.7267 71.4051 26.5878 72.3183 25.3344C73.4804 23.7319 75.3229 22.6925 77.2976 22.5169C78.5772 22.2492 80.0249 22.7809 80.5587 24.037C80.9893 25.1418 80.7449 26.3673 80.8929 27.5224C81.0644 28.6423 81.7059 30.2002 83.0105 30.2967C83.7903 30.1042 83.4009 29.7645 82.8769 29.5668C82.0607 28.2577 82.5259 26.4425 83.4935 25.4077C84.9208 23.8816 85.4481 21.7968 85.2422 19.8093C85.1878 18.5815 84.3355 17.6627 83.4623 16.8715C82.5245 16.0216 81.365 15.4732 80.1053 15.4299C78.2651 15.3704 76.2561 15.4777 74.7035 16.5744C72.3046 18.1659 70.9081 20.7481 69.7046 23.2713H63.2949C62.0914 20.7481 60.6951 18.1659 58.2962 16.5744C56.9377 15.6149 55.2298 15.4131 53.5912 15.4174Z" fill="#F5FBF8" stroke="black" stroke-width="1.75"/>
<path fill-rule="evenodd" clip-rule="evenodd" d="M66.5 3.49371C65.6357 5.84636 63.8876 7.72306 62.7857 9.96068C61.0405 12.9141 61.4174 16.5288 62.3607 19.6759C63.1413 22.8886 64.1007 26.0681 64.8377 29.2845C64.8973 31.479 65.0107 33.6768 65.0368 35.8692C64.7702 37.6574 64.2889 38.3793 63.8033 40.1293C63.2356 42.1753 63.9745 45.3508 64.7672 47.292C65.3605 48.5605 66.3318 49.6619 66.5 51.0956C66.6682 49.6619 67.6395 48.5605 68.2328 47.292C69.0255 45.3508 69.7644 42.1753 69.1967 40.1293C68.7112 38.3793 68.2298 37.6574 67.9632 35.8692C67.9893 33.6768 68.1027 31.479 68.1623 29.2845C68.8993 26.0681 69.8587 22.8886 70.6393 19.6759C71.5826 16.5288 71.9595 12.9141 70.2143 9.96068C69.1124 7.72306 67.3643 5.84636 66.5 3.49371Z" fill="#F5FBF8" stroke="black" stroke-width="1.75"/>
<path fill-rule="evenodd" clip-rule="evenodd" d="M63.4259 29.0925C62.5935 29.6817 62.57 30.8647 63.4259 31.4368V34.1792C62.8088 34.5854 62.8081 35.4948 63.4259 35.8873H69.5738C70.1916 35.4947 70.1909 34.585 69.5738 34.1789V31.4365C70.4297 30.8644 70.4062 29.6815 69.5738 29.0925H63.4259Z" fill="#F5FBF8" stroke="black" stroke-width="1.75"/>
<path fill-rule="evenodd" clip-rule="evenodd" d="M63.4259 31.437C63.0028 31.4897 62.5968 31.6696 62.2744 31.9476C62.0058 32.1792 61.7956 32.4776 61.6685 32.808C61.8036 33.1759 62.0441 33.5042 62.354 33.7452C62.662 33.9847 63.0375 34.137 63.4259 34.1794H69.5738C69.9622 34.137 70.338 33.985 70.646 33.7456C70.9559 33.5045 71.1961 33.1759 71.3312 32.808C71.2041 32.4776 70.9942 32.1795 70.7256 31.9479C70.4033 31.6699 69.9969 31.4897 69.5738 31.437H63.4259Z" fill="#F5FBF8" stroke="black" stroke-width="1.75"/>
<path fill-rule="evenodd" clip-rule="evenodd" d="M66.5001 157.877C66.5001 157.877 131.922 131.043 131.922 62.846V1.07547H1.07812V62.846C1.07812 131.043 66.5001 157.877 66.5001 157.877Z" stroke="black" stroke-width="3.2"/>
<path d="M63.9969 111.187C63.8641 107.474 65.1307 106.214 66.406 105.876C67.3932 106.165 68.9928 107.651 68.7148 111.233L63.9969 111.187Z" fill="#2972CC" stroke="black" stroke-width="1.5"/>
<path d="M63.9819 110.372C64.7885 110.785 67.8256 110.89 68.7381 110.395C68.9394 110.383 68.9811 110.595 68.9775 110.712C68.9034 113.18 66.8967 112.64 66.7577 113.21C66.5865 113.233 66.8008 113.229 66.3797 113.229C65.9586 113.229 66.1274 113.229 65.9617 113.213C65.9092 112.774 63.8019 113.14 63.7834 110.81C63.7834 110.625 63.8058 110.365 63.9819 110.369V110.372Z" fill="#2972CC" stroke="black" stroke-width="1.5"/>
<path d="M74.4852 83.4829C74.3524 79.7698 75.6191 78.5096 76.8944 78.1711C77.8816 78.4609 79.4811 79.9471 79.2031 83.5283L74.4852 83.4829Z" fill="#2972CC" stroke="black" stroke-width="1.5"/>
<path d="M74.4699 82.6681C75.2766 83.0818 78.3137 83.186 79.2262 82.691C79.4275 82.6795 79.4691 82.8917 79.4656 83.0091C79.3914 85.4763 77.3849 84.9359 77.2458 85.5058C77.0747 85.5288 77.2888 85.5249 76.8677 85.5249C76.4467 85.5249 76.6154 85.5249 76.4497 85.5095C76.3972 85.0698 74.29 85.436 74.2715 83.1062C74.2715 82.9212 74.2938 82.6609 74.4699 82.6647V82.6681Z" fill="#2972CC" stroke="black" stroke-width="1.5"/>
<path d="M67.4407 97.2979C69.5935 95.3753 72.1876 93.7404 75.0406 92.492C81.5468 89.6454 86.9491 87.4216 92.9439 87.1637L92.8743 86.3677C89.2982 86.4994 84.9273 87.4223 81.6367 88.6706C86.3691 86.4238 91.5343 81.3551 94.961 78.5368L94.4542 78.0489C89.5917 81.8891 84.65 86.3778 78.5249 89.1938C77.7614 89.5449 75.0447 90.5154 75.9257 89.0049C76.7641 87.5678 76.891 86.6051 77.2379 85.4458L76.4297 85.3701C75.0922 90.5842 71.0492 92.6889 67.1495 95.0988L66.0569 95.9791" fill="#2972CC"/>
<path d="M67.4407 97.2979C69.5935 95.3753 72.1876 93.7404 75.0406 92.492C81.5468 89.6454 86.9491 87.4216 92.9439 87.1637L92.8743 86.3677C89.2982 86.4994 84.9273 87.4223 81.6367 88.6706C86.3691 86.4238 91.5343 81.3551 94.961 78.5368L94.4542 78.0489C89.5917 81.8891 84.65 86.3778 78.5249 89.1938C77.7614 89.5449 75.0447 90.5154 75.9257 89.0049C76.7641 87.5678 76.891 86.6051 77.2379 85.4458L76.4297 85.3701C75.0922 90.5842 71.0492 92.6889 67.1495 95.0988L66.0569 95.9791" stroke="black" stroke-width="1.5"/>
<path d="M54.5287 72.6453C52.0926 75.3968 49.8718 80.4811 47.9004 84.0649C47.1752 82.0211 47.0901 80.2216 47.0605 78.294L46.3047 78.3581C46.3536 80.3794 46.382 82.3299 46.4016 84.2771C43.6566 82.2455 41.0891 80.0586 38.5456 78.0497L38.0417 78.5384C40.3639 80.4483 43.2937 83.2974 46.4145 85.6344C46.4183 86.1153 46.4256 86.5994 46.4275 87.0825C44.3411 86.6619 42.1319 86.4419 40.1286 86.3682L40.0575 87.1661C42.2321 87.2593 44.3279 87.6161 46.4275 88.1629C46.4322 91.0407 46.4126 93.9875 46.3759 97.2279L44.2956 95.3942L43.7917 95.7675C46.2833 98.6 47.3062 102.247 48.2752 105.817C46.524 104.42 43.1374 102.514 41.1299 101.461L40.5033 102.085C45.9466 105.884 50.2671 109.483 53.2886 115.435C49.6231 113.693 46.5154 112.907 43.32 112.057L43.1909 112.81C45.5468 113.453 54.212 116.089 54.3416 119.128C53.0697 118.867 51.898 118.785 50.265 118.883L50.2068 119.378C56.8313 119.946 57.5629 119.041 58.9737 125.565C59.4407 128.892 59.8896 127.103 59.4518 130.567C59.1335 133.086 59.0912 133.775 55.2654 134.796C52.6399 135.497 52.0813 134.446 50.7302 135.043C48.9223 136.398 48.1291 135.943 46.6527 135.919C44.0125 135.875 43.3921 136.591 42.5632 137.334C41.6688 138.135 41.596 138.41 42.1174 139.704C42.6284 138.644 43.1995 139.033 44.8696 138.485C45.7464 138.198 46.4431 138.214 46.9175 138.485C48.8101 139.568 49.1983 139.566 50.0195 139.547C52.0545 139.501 53.2508 139.724 54.1154 139.025C55.9669 137.528 57.6363 138.915 59.6972 138.868C59.5628 139.543 59.3361 140.105 58.6507 140.734C57.6345 141.667 57.2009 142.419 55.9879 142.689C51.6981 143.642 51.8022 144.685 51.5432 147.11C52.592 146.494 53.5609 145.951 54.7476 146.144C56.3438 146.403 56.9369 145.812 58.0046 145.109C58.7237 144.636 60.0296 145.727 61.3188 144.728C62.1989 144.047 63.5229 145.482 63.7792 144.474C63.6115 147.465 63.3255 147.425 63.7027 148.079C64.1762 148.9 65.1766 151.135 65.3243 151.887C65.6394 153.492 66.0812 155.196 66.5001 155.719C66.9191 155.196 67.3607 153.492 67.6758 151.887C67.8235 151.135 68.8239 148.9 69.2974 148.079C69.6747 147.425 69.3887 147.465 69.2209 144.474C69.4773 145.482 70.8012 144.047 71.6813 144.728C72.9705 145.727 74.2765 144.636 74.9956 145.109C76.0633 145.812 76.6564 146.403 78.2527 146.144C79.4393 145.951 80.4082 146.494 81.4571 147.11C81.1981 144.685 81.3021 143.642 77.0122 142.689C75.7993 142.419 75.3658 141.667 74.3495 140.734C73.664 140.105 73.4373 139.543 73.3029 138.868C75.3638 138.915 77.0334 137.528 78.8848 139.025C79.7495 139.724 80.9457 139.501 82.9807 139.547C83.8019 139.566 84.1901 139.57 86.0827 138.485C86.5571 138.214 87.2539 138.198 88.1307 138.485C89.8007 139.033 90.3718 138.644 90.8828 139.704C91.4042 138.41 91.3314 138.135 90.437 137.334C89.6082 136.591 88.9878 135.875 86.3476 135.919C84.8711 135.942 84.0779 136.398 82.27 135.043C80.9189 134.446 80.3603 135.497 77.7347 134.796C73.9089 133.775 73.8667 133.086 73.5484 130.567C73.1107 127.103 73.5596 128.892 74.0265 125.565C75.4373 119.041 76.1689 119.946 82.7933 119.378L82.7351 118.883C81.1022 118.785 79.9304 118.868 78.6586 119.128C78.7882 116.089 87.4535 113.453 89.8093 112.81L89.6801 112.057C86.4848 112.907 83.3771 113.693 79.7117 115.435C82.7331 109.483 87.0536 105.884 92.4969 102.085L91.8702 101.461C89.8627 102.514 86.4761 104.42 84.7249 105.817C85.694 102.247 86.7169 98.6 89.2085 95.7675L88.7046 95.3942L86.6243 97.2279C86.5462 90.3054 86.5427 84.6689 86.6954 78.3581L85.9395 78.294C85.9099 80.2216 85.8249 82.0211 85.0997 84.0649C83.1282 80.4811 80.9074 75.3968 78.4713 72.6453L77.5862 73.134C85.4671 82.0839 89.9031 96.9101 75.4349 113.621C74.8558 110.896 74.9169 108.091 75.9388 105.167L75.1829 104.788C74.6077 106.299 74.2812 107.529 74.0523 109.046C73.1491 104.228 71.5801 100.36 68.0829 96.9C67.676 96.5028 67.0043 96.231 66.9911 95.6258C66.995 92.8367 66.9089 90.4047 66.9136 88.118L66.4355 88.0913L66.022 94.8332C65.99 95.3567 65.8478 95.353 65.4341 95.0974C61.5344 92.6871 57.9079 90.5835 56.5705 85.3695L55.7629 85.4467C56.1098 86.606 56.2359 87.5675 57.0744 89.0046C57.9554 90.5151 55.2408 89.542 54.4773 89.1909C52.4395 88.2541 50.5311 87.1317 48.7145 85.9099C49.8391 80.9269 52.3687 76.5913 55.414 73.1329L54.5287 72.6453ZM48.4818 87.0694C49.3007 87.5955 50.1248 88.0739 50.9497 88.4654C50.1713 88.1138 49.3075 87.8136 48.3978 87.5581C48.4236 87.3942 48.4528 87.2321 48.4818 87.0694ZM48.2492 88.6775C51.3443 89.6376 54.4942 90.9767 57.9593 92.4929C60.56 93.6307 62.943 95.0916 64.9753 96.797C61.4826 100.255 59.8504 104.231 58.9477 109.046C58.7188 107.529 58.3923 106.299 57.8171 104.788L57.0613 105.167C58.0831 108.091 58.1442 110.896 57.5652 113.621C49.699 104.535 47.4239 96.0071 48.2492 88.6775ZM65.1239 96.9191C65.5429 97.2764 65.9451 97.6418 66.332 98.0194L65.1239 96.9191ZM66.4999 98.1866C72.3665 104.028 74.2644 112.182 67.6951 120.202C67.4421 120.46 67.2107 120.042 67.2106 119.822C67.3396 117.666 67.1079 115.507 67.0556 113.35H66.4999H65.9443C65.892 115.507 65.6603 117.666 65.7893 119.822C65.7892 120.042 65.5298 120.46 65.3047 120.202C58.7345 112.181 60.6314 104.028 66.4999 98.1866Z" fill="#2972CC" stroke="black" stroke-width="1.5"/>
<path d="M93.9927 75.6774C96.5354 72.9581 98.3255 72.9599 99.4677 73.6184C99.96 74.5183 100.036 76.6952 97.2963 79.0318L93.9927 75.6774Z" fill="#2972CC" stroke="black" stroke-width="1.5"/>
<path d="M94.5609 75.0899C94.8377 75.9502 96.911 78.1624 97.9075 78.4552C98.0584 78.5884 97.9368 78.7685 97.8511 78.8487C96.0467 80.5414 95.0116 78.746 94.5086 79.0511C94.3701 78.9478 94.5252 79.0955 94.2266 78.7996C93.9282 78.5037 94.0476 78.6227 93.9409 78.4953C94.2161 78.1476 92.4662 76.922 94.1072 75.2619C94.2377 75.1299 94.4394 74.9628 94.5609 75.0899Z" fill="#2972CC" stroke="black" stroke-width="1.5"/>
<path d="M111.36 80.5659C111.129 79.9557 110.587 79.3095 109.464 79.6841C108.485 80.011 107.999 79.7283 107.587 78.9919C107.032 77.9201 106.02 78.378 105.521 79.0987C104.941 79.9364 104.21 80.0234 103.404 79.6784C101.873 79.023 101.13 79.3565 100.606 80.1233C99.8832 81.1797 99.2302 80.9789 98.3212 80.8964C97.3233 80.8054 96.5894 80.5728 95.9381 81.6991C95.3041 82.7951 94.5246 83.3257 93.8929 83.3855C92.974 83.4719 90.9832 84.9098 91.9375 85.8458C92.5537 86.4502 92.6643 86.3405 92.425 86.5811L92.2174 86.6647C92.2278 86.6915 92.2317 86.721 92.2398 86.7482C92.2121 86.7713 92.1893 86.7971 92.1589 86.8236L92.2541 86.7891C92.4481 87.5374 91.9004 88.681 93.4467 88.6895C94.0163 88.6895 94.202 88.6495 94.9542 89.4933C95.5398 90.1499 96.0794 90.1333 96.8383 89.596C97.36 89.2265 98.2075 89.0723 99.166 89.8141C99.9833 90.4462 101.189 89.9091 101.897 89.1838C102.542 88.5234 102.973 88.2665 104.126 88.7401C104.79 89.0129 106.098 88.3306 106.86 86.8228C107.261 86.0284 108.235 85.8393 109.206 86.1007C110.041 86.3255 110.441 85.7376 110.194 84.5514C109.947 83.3629 110.181 82.953 110.909 82.1706C111.4 81.6425 111.539 81.0409 111.36 80.5666V80.5659Z" fill="#2972CC" stroke="black" stroke-width="1.5"/>
<path d="M92.2617 86.7204C100.26 86.5124 103.969 82.6313 108.942 81.6627" stroke="black" stroke-width="1.5"/>
<path d="M48.6599 121.627C44.9569 122.082 43.5863 120.936 43.1365 119.7C43.3403 118.696 44.6874 116.979 48.2944 116.943L48.6599 121.627Z" fill="#2972CC" stroke="black" stroke-width="1.5"/>
<path d="M47.8455 121.712C48.1889 120.876 48.0287 117.854 47.4543 116.992C47.4246 116.794 47.6339 116.734 47.7515 116.727C50.2261 116.586 49.8604 118.623 50.4426 118.712C50.4822 118.879 50.4584 118.667 50.4962 119.085C50.5339 119.503 50.5189 119.335 50.5186 119.501C50.0832 119.591 50.6329 121.65 48.3041 121.871C48.119 121.89 47.8568 121.886 47.8455 121.712Z" fill="#2972CC" stroke="black" stroke-width="1.5"/>
<path d="M41.0972 96.4768C37.9666 94.4555 37.6569 92.6997 38.1099 91.4651C38.9144 90.8262 41.0542 90.3736 43.8408 92.6546L41.0972 96.4768Z" fill="#2972CC" stroke="black" stroke-width="1.5"/>
<path d="M40.4178 96.0217C41.2207 95.6008 43.0485 93.1834 43.165 92.155C43.2705 91.9842 43.4694 92.072 43.5638 92.1434C45.5508 93.6189 43.9554 94.946 44.3444 95.3862C44.2665 95.54 44.3852 95.3631 44.1445 95.7066C43.9038 96.0504 44.0005 95.9127 43.8932 96.0394C43.5013 95.8302 42.5938 97.759 40.6669 96.4377C40.5138 96.333 40.3135 96.1641 40.4178 96.0229V96.0217Z" fill="#2972CC" stroke="black" stroke-width="1.5"/>
<path d="M60.2604 55.5287C59.5919 55.3633 58.7085 55.4177 58.3756 56.4922C58.0852 57.4294 57.5524 57.6446 56.6673 57.5472C55.4052 57.3722 55.2099 58.409 55.5459 59.198C55.9366 60.1155 55.5824 60.7267 54.8071 61.1531C53.3349 61.9624 53.1893 62.7221 53.5506 63.5568C54.0484 64.7061 53.4889 65.0956 52.8822 65.7488C52.2161 66.4656 51.5815 66.8997 52.182 68.034C52.7666 69.1381 52.7717 70.0365 52.4522 70.5561C51.9876 71.3118 52.0726 73.652 53.4511 73.4437C54.3411 73.3093 54.4746 73.3725 54.5441 73.6921C54.7041 74.6983 56.1591 74.3031 56.8209 73.8802C57.1585 73.4435 57.2303 73.2767 58.4093 73.172C59.327 73.0902 59.6295 72.6654 59.6066 71.7794C59.5908 71.1703 59.9547 70.4314 61.1659 70.1106C62.1985 69.8369 62.4382 68.6076 62.2213 67.6551C62.0237 66.7875 62.0531 66.3112 63.1446 65.6899C63.7733 65.3323 63.9462 63.9423 63.0776 62.5082C62.6202 61.7534 63.0275 60.897 63.8265 60.2968C64.5136 59.781 64.2356 59.1425 63.0547 58.6655C61.8717 58.1877 61.6512 57.7775 61.3958 56.7774C61.2235 56.1032 60.7803 55.6577 60.2604 55.5287Z" fill="#2972CC" stroke="black" stroke-width="1.5"/>
<path d="M54.2808 73.6575C58.8611 67.1687 59.1708 61.9988 59.8269 59.2162" stroke="black" stroke-width="1.5"/>
<path d="M21.2609 95.4027C21.0326 95.9549 21.0459 96.7164 22.2662 97.1254C23.3308 97.4827 23.5494 97.9632 23.3872 98.7084C23.1144 99.7672 24.2988 100.054 25.2278 99.8585C26.3078 99.631 26.9932 100.004 27.4412 100.717C28.2919 102.069 29.1602 102.282 30.1429 102.07C31.4969 101.778 31.9147 102.301 32.6338 102.896C33.4232 103.548 33.8882 104.141 35.23 103.759C36.5362 103.388 37.5725 103.487 38.1539 103.82C38.9995 104.305 41.4049 104.467 41.5404 103.301L41.9271 102.472C42.283 101.847 43.5484 101.392 42.2331 100.471C41.7485 100.132 41.5599 100.051 41.5053 99.0311C41.4628 98.2371 40.9898 97.9294 39.9667 97.8461C39.2634 97.7889 38.4319 97.3919 38.1298 96.3193C37.8722 95.4049 36.4674 95.0576 35.3566 95.1325C34.3448 95.2008 33.7974 95.1208 33.1422 94.115C32.7647 93.5359 31.1716 93.2272 29.4689 93.8036C28.5723 94.1068 27.6077 93.6593 26.9605 92.9068C26.404 92.2594 25.6521 92.4231 25.0357 93.3771C24.4182 94.333 23.9326 94.4742 22.765 94.5767C21.9773 94.6454 21.4385 94.9729 21.2609 95.4027Z" fill="#2972CC" stroke="black" stroke-width="1.5"/>
<path d="M41.8929 102.456C34.1836 97.6052 29.1354 97.2859 24.7117 95.9968" stroke="black" stroke-width="1.5"/>
<path d="M22.4299 106.39C22.3013 106.974 22.8605 108.439 24.1337 108.631C25.2444 108.798 25.9569 110.057 25.9271 110.819C25.8431 111.909 27.0596 112.399 27.9403 112.046C28.9642 111.635 29.7044 112.295 30.2698 112.919C31.3435 114.104 31.8221 114.164 32.7529 113.785C34.0354 113.263 34.5381 114.118 35.3499 114.579C36.2411 115.085 36.8024 116.412 38.0573 115.804C39.2788 115.212 40.3168 115.131 40.9475 115.359C41.8648 115.69 44.4479 115.448 44.192 114.262C44.0311 113.515 44.0788 113.119 44.1491 112.644C44.5661 112.196 45.0599 111.128 44.3808 110.531C43.8444 110.281 43.6445 110.234 43.4129 109.239C43.2325 108.465 42.7131 108.243 41.6911 108.338C40.9884 108.404 40.1003 108.157 39.6158 107.153C39.2026 106.297 37.7586 106.197 36.6777 106.463C35.6932 106.705 35.1401 106.721 34.3196 105.844C33.8469 105.339 32.2241 104.075 30.6478 104.937C29.8177 105.391 28.9899 104.914 28.2214 104.287C27.5604 103.745 26.2348 103.826 25.7942 104.872C25.3528 105.921 24.899 104.907 23.767 105.211C23.0033 105.415 22.5298 105.937 22.4299 106.39Z" fill="#2972CC" stroke="black" stroke-width="1.5"/>
<path d="M44.1943 112.645C37.6049 111.39 31.0233 107.808 27.0183 107.174" stroke="black" stroke-width="1.5"/>
<path d="M44.4298 61.5306C44.9706 61.5114 46.1904 62.1216 46.1622 63.0955C46.1376 63.9456 47.1495 64.643 47.8343 64.7212C48.8201 64.8026 49.0667 65.7739 48.6132 66.3837C48.086 67.0928 48.5602 67.7319 49.0284 68.2354C49.9175 69.192 49.8954 69.5566 49.4115 70.2006C48.7447 71.0874 49.4292 71.5746 49.7133 72.2408C50.0254 72.9718 51.1217 73.5654 50.3823 74.4204C49.6626 75.2527 49.4276 76.016 49.5321 76.516C49.684 77.2432 49.0186 79.2179 48.0448 78.7893L46.591 78.7286C45.8209 79.0759 45.2867 79.0345 44.6858 78.4378C44.5464 78.0049 44.5358 77.8498 43.6839 77.5458C43.0209 77.3091 42.9047 76.893 43.1497 76.1439C43.3181 75.6285 43.2369 74.9341 42.4167 74.4402C41.7173 74.0192 41.8551 72.9296 42.2617 72.1594C42.6322 71.4576 42.7328 71.0473 42.079 70.3201C41.7024 69.9011 40.8286 68.5248 41.8449 67.4637C42.38 66.905 42.0854 66.2252 41.6442 65.5693C41.2647 65.0052 41.5449 64.0279 42.5477 63.8376C43.5524 63.6468 42.72 63.1751 43.1675 62.3711C43.4695 61.8289 44.0092 61.5451 44.4298 61.5306Z" fill="#2972CC" stroke="black" stroke-width="1.5"/>
<path d="M46.6904 78.6899C46.8194 73.6896 44.3491 68.1228 44.4111 65.0544" stroke="black" stroke-width="1.5"/>
<path d="M52.2383 91.8353C51.8148 92.0705 51.1171 93.0658 51.5233 93.7458C51.8776 94.3395 51.3743 95.3014 50.8783 95.6721C50.152 96.1832 50.3457 96.9878 50.9353 97.2131C51.6207 97.4748 51.5079 98.1477 51.3465 98.7218C51.04 99.8113 51.2009 100.061 51.8273 100.296C52.6904 100.62 52.3563 101.282 52.4005 101.886C52.4489 102.55 51.8396 103.477 52.7459 103.745C53.6282 104.006 54.11 104.441 54.227 104.845C54.3973 105.432 55.6885 106.531 56.2687 105.779L57.3631 105.066C58.0926 104.959 58.4874 104.684 58.7142 103.983C58.6506 103.611 58.5976 103.496 59.133 102.887C59.5497 102.414 59.4747 102.064 58.9905 101.644C58.6577 101.355 58.4461 100.823 58.8823 100.095C59.2542 99.4733 58.7183 98.7614 58.1013 98.4003C57.5393 98.0714 57.3 97.8259 57.516 97.0077C57.6404 96.5364 57.7695 95.1549 56.5688 94.8674C55.9365 94.7163 55.8949 94.0969 55.9755 93.4273C56.0449 92.8512 55.4437 92.2849 54.597 92.6107C53.7487 92.9372 54.203 92.219 53.5414 91.8529C53.0951 91.6058 52.5677 91.6523 52.2383 91.8338V91.8353Z" fill="#2972CC" stroke="black" stroke-width="1.5"/>
<path d="M57.2713 105.084C53.1697 97.5442 55.0584 98.7423 53.4094 94.6442" stroke="black" stroke-width="1.5"/>
<path d="M66.5 70.2257C65.6074 70.2978 64.8098 70.6532 64.8603 71.7761C64.9044 72.7558 64.1505 73.1364 63.3719 73.3463C62.2504 73.6115 61.2913 74.6556 61.8194 75.2827C62.4334 76.0118 62.32 76.7024 61.7962 77.3671C60.8013 78.6288 60.913 79.3951 61.4764 80.0559C62.2528 80.967 61.8983 81.526 61.587 82.3465C61.2453 83.2468 60.8448 83.8654 61.7033 84.7269C62.5389 85.565 62.8186 86.4076 62.7091 87.0043C62.5497 87.8731 64.4626 90.0435 65.564 89.3784L66.5001 89.1019L67.4363 89.3784C68.5376 90.0435 70.4505 87.8731 70.2911 87.0043C70.1816 86.4076 70.4613 85.565 71.297 84.7269C72.1554 83.8654 71.755 83.2468 71.4132 82.3465C71.102 81.526 70.7474 80.967 71.5237 80.0559C72.0872 79.3951 72.1989 78.6288 71.204 77.3671C70.6801 76.7024 70.5667 76.0118 71.1809 75.2827C71.709 74.6556 70.7499 73.6115 69.6284 73.3463C68.8498 73.1364 68.0958 72.7558 68.1399 71.7761C68.1904 70.6532 67.3926 70.2978 66.5 70.2257Z" fill="#2972CC" stroke="black" stroke-width="1.5"/>
<path d="M58.5147 83.4829C58.6475 79.7698 57.3809 78.5096 56.1056 78.1711C55.1184 78.4609 53.5188 79.9471 53.7969 83.5283L58.5147 83.4829Z" fill="#2972CC" stroke="black" stroke-width="1.5"/>
<path d="M58.5301 82.6681C57.7234 83.0818 54.6862 83.186 53.7737 82.691C53.5724 82.6795 53.5309 82.8917 53.5344 83.0091C53.6085 85.4763 55.6151 84.9359 55.7541 85.5058C55.9253 85.5288 55.7112 85.5249 56.1322 85.5249C56.5533 85.5249 56.3845 85.5249 56.5502 85.5095C56.6027 85.0698 58.7099 85.436 58.7285 83.1062C58.7285 82.9212 58.7061 82.6609 58.5301 82.6647V82.6681Z" fill="#2972CC" stroke="black" stroke-width="1.5"/>
<path d="M39.0072 75.6774C36.4645 72.9581 34.6744 72.9599 33.5322 73.6184C33.0399 74.5183 32.964 76.6952 35.7036 79.0318L39.0072 75.6774Z" fill="#2972CC" stroke="black" stroke-width="1.5"/>
<path d="M38.4389 75.0899C38.1622 75.9502 36.0888 78.1624 35.0923 78.4552C34.9414 78.5884 35.063 78.7685 35.1487 78.8487C36.9531 80.5414 37.9882 78.746 38.4912 79.0511C38.6297 78.9478 38.4748 79.0955 38.7733 78.7996C39.0717 78.5037 38.9523 78.6227 39.0589 78.4953C38.7837 78.1476 40.5337 76.922 38.8926 75.2619C38.7621 75.1299 38.5605 74.9628 38.4389 75.0899Z" fill="#2972CC" stroke="black" stroke-width="1.5"/>
<path d="M21.6399 80.5659C21.8706 79.9557 22.4133 79.3095 23.5357 79.6841C24.515 80.011 25.0013 79.7283 25.4125 78.9919C25.9677 77.9201 26.98 78.378 27.4789 79.0987C28.059 79.9364 28.7904 80.0234 29.5962 79.6784C31.1266 79.023 31.8701 79.3565 32.3944 80.1233C33.1168 81.1797 33.7698 80.9789 34.6787 80.8964C35.6767 80.8054 36.4105 80.5728 37.0618 81.6991C37.6958 82.7951 38.4753 83.3257 39.107 83.3855C40.0259 83.4719 42.0168 84.9098 41.0624 85.8458C40.4462 86.4502 40.3356 86.3405 40.575 86.5811L40.7825 86.6647C40.7721 86.6915 40.7683 86.721 40.7602 86.7482C40.788 86.7713 40.8107 86.7971 40.8411 86.8236L40.7458 86.7891C40.5518 87.5374 41.0995 88.681 39.5533 88.6895C38.9837 88.6895 38.7979 88.6495 38.0457 89.4933C37.4601 90.1499 36.9206 90.1333 36.1617 89.596C35.64 89.2265 34.7926 89.0723 33.834 89.8141C33.0167 90.4462 31.8112 89.9091 31.1031 89.1838C30.4581 88.5234 30.027 88.2665 28.8739 88.7401C28.2096 89.0129 26.9021 88.3306 26.14 86.8228C25.7387 86.0284 24.7645 85.8393 23.794 86.1007C22.9592 86.3255 22.559 85.7376 22.8057 84.5514C23.0528 83.3629 22.8191 82.953 22.0911 82.1706C21.6001 81.6425 21.4605 81.0409 21.6399 80.5666V80.5659Z" fill="#2972CC" stroke="black" stroke-width="1.5"/>
<path d="M40.7381 86.7204C32.7396 86.5124 29.0306 82.6313 24.0581 81.6627" stroke="black" stroke-width="1.5"/>
<path d="M84.3401 121.627C88.0431 122.082 89.4137 120.936 89.8636 119.7C89.6598 118.696 88.3126 116.979 84.7057 116.943L84.3401 121.627Z" fill="#2972CC" stroke="black" stroke-width="1.5"/>
<path d="M85.1544 121.712C84.811 120.876 84.9712 117.854 85.5456 116.992C85.5753 116.794 85.3659 116.734 85.2484 116.727C82.7738 116.586 83.1395 118.623 82.5572 118.712C82.5177 118.879 82.5414 118.667 82.5037 119.085C82.4659 119.503 82.4809 119.335 82.4813 119.501C82.9167 119.591 82.3669 121.65 84.6958 121.871C84.8808 121.89 85.1432 121.886 85.1544 121.712Z" fill="#2972CC" stroke="black" stroke-width="1.5"/>
<path d="M91.9027 96.4768C95.0333 94.4555 95.343 92.6997 94.89 91.4651C94.0855 90.8262 91.9457 90.3736 89.1592 92.6546L91.9027 96.4768Z" fill="#2972CC" stroke="black" stroke-width="1.5"/>
<path d="M92.5823 96.0217C91.7795 95.6008 89.9515 93.1834 89.8351 92.155C89.7295 91.9842 89.5306 92.072 89.4362 92.1434C87.4492 93.6189 89.0447 94.946 88.6556 95.3862C88.7335 95.54 88.6148 95.3631 88.8555 95.7066C89.0961 96.0504 88.9995 95.9127 89.1068 96.0394C89.4986 95.8302 90.4062 97.759 92.3331 96.4377C92.4862 96.333 92.6866 96.1641 92.5823 96.0229V96.0217Z" fill="#2972CC" stroke="black" stroke-width="1.5"/>
<path d="M72.7395 55.5287C73.408 55.3633 74.2914 55.4177 74.6243 56.4922C74.9147 57.4294 75.4475 57.6446 76.3326 57.5472C77.5946 57.3722 77.79 58.409 77.454 59.198C77.0633 60.1155 77.4174 60.7267 78.1928 61.1531C79.665 61.9624 79.8105 62.7221 79.4493 63.5568C78.9516 64.7061 79.5111 65.0956 80.1178 65.7488C80.7839 66.4656 81.4185 66.8997 80.818 68.034C80.2334 69.1381 80.2282 70.0365 80.5477 70.5561C81.0124 71.3118 80.9273 73.652 79.5488 73.4437C78.6588 73.3093 78.5253 73.3725 78.4558 73.6921C78.2958 74.6983 76.841 74.3031 76.1791 73.8802C75.8414 73.4435 75.7695 73.2767 74.5906 73.172C73.6728 73.0902 73.3704 72.6654 73.3933 71.7794C73.4091 71.1703 73.0453 70.4314 71.8341 70.1106C70.8015 69.8369 70.5618 68.6076 70.7787 67.6551C70.9762 66.7875 70.9469 66.3112 69.8554 65.6899C69.2266 65.3323 69.0537 63.9423 69.9223 62.5082C70.3797 61.7534 69.9725 60.897 69.1735 60.2968C68.4863 59.781 68.7643 59.1425 69.9452 58.6655C71.1282 58.1877 71.3488 57.7775 71.6042 56.7774C71.7764 56.1032 72.2197 55.6577 72.7395 55.5287Z" fill="#2972CC" stroke="black" stroke-width="1.5"/>
<path d="M78.719 73.6575C74.1387 67.1687 73.829 61.9988 73.1729 59.2162" stroke="black" stroke-width="1.5"/>
<path d="M111.739 95.4027C111.967 95.9549 111.954 96.7164 110.734 97.1254C109.669 97.4827 109.45 97.9632 109.613 98.7084C109.885 99.7672 108.701 100.054 107.772 99.8585C106.692 99.631 106.007 100.004 105.559 100.717C104.708 102.069 103.84 102.282 102.857 102.07C101.503 101.778 101.085 102.301 100.366 102.896C99.5766 103.548 99.1117 104.141 97.7697 103.759C96.4635 103.388 95.4273 103.487 94.846 103.82C94.0003 104.305 91.5948 104.467 91.4594 103.301L91.0727 102.472C90.7167 101.847 89.4513 101.392 90.7667 100.471C91.2512 100.132 91.4399 100.051 91.4945 99.0311C91.537 98.2371 92.01 97.9294 93.0331 97.8461C93.7364 97.7889 94.5679 97.3919 94.87 96.3193C95.1276 95.4049 96.5324 95.0576 97.6432 95.1325C98.655 95.2008 99.2024 95.1208 99.8576 94.115C100.235 93.5359 101.828 93.2272 103.531 93.8036C104.427 94.1068 105.392 93.6593 106.039 92.9068C106.596 92.2594 107.348 92.4231 107.964 93.3771C108.581 94.333 109.067 94.4742 110.235 94.5767C111.022 94.6454 111.561 94.9729 111.739 95.4027Z" fill="#2972CC" stroke="black" stroke-width="1.5"/>
<path d="M91.1069 102.456C98.8161 97.6052 103.864 97.2859 108.288 95.9968" stroke="black" stroke-width="1.5"/>
<path d="M110.57 106.39C110.699 106.974 110.139 108.439 108.866 108.631C107.755 108.798 107.043 110.057 107.073 110.819C107.157 111.909 105.94 112.399 105.06 112.046C104.036 111.635 103.296 112.295 102.73 112.919C101.656 114.104 101.178 114.164 100.247 113.785C98.9646 113.263 98.4619 114.118 97.6501 114.579C96.7589 115.085 96.1976 116.412 94.9427 115.804C93.7212 115.212 92.6832 115.131 92.0526 115.359C91.1352 115.69 88.5521 115.448 88.8079 114.262C88.9689 113.515 88.9211 113.119 88.8508 112.644C88.4338 112.196 87.9401 111.128 88.6193 110.531C89.1557 110.281 89.3555 110.234 89.5872 109.239C89.7675 108.465 90.2869 108.243 91.309 108.338C92.0116 108.404 92.8996 108.157 93.3842 107.153C93.7973 106.297 95.2414 106.197 96.3222 106.463C97.3068 106.705 97.8598 106.721 98.6804 105.844C99.153 105.339 100.776 104.075 102.352 104.937C103.182 105.391 104.01 104.914 104.779 104.287C105.44 103.745 106.765 103.826 107.206 104.872C107.647 105.921 108.101 104.907 109.233 105.211C109.997 105.415 110.47 105.937 110.57 106.39Z" fill="#2972CC" stroke="black" stroke-width="1.5"/>
<path d="M88.8054 112.645C95.3948 111.39 101.976 107.808 105.981 107.174" stroke="black" stroke-width="1.5"/>
<path d="M88.5698 61.5306C88.0291 61.5114 86.8092 62.1216 86.8374 63.0955C86.8621 63.9456 85.8502 64.643 85.1654 64.7212C84.1796 64.8026 83.9331 65.7739 84.3865 66.3837C84.9137 67.0928 84.4395 67.7319 83.9713 68.2354C83.0822 69.192 83.1044 69.5566 83.5883 70.2006C84.255 71.0874 83.5709 71.5746 83.2865 72.2408C82.9744 72.9718 81.878 73.5654 82.6174 74.4204C83.3371 75.2527 83.572 76.016 83.4676 76.516C83.3157 77.2432 83.981 79.2179 84.9549 78.7893L86.4086 78.7286C87.1787 79.0759 87.7131 79.0345 88.3139 78.4378C88.4534 78.0049 88.4639 77.8498 89.3157 77.5458C89.9788 77.3091 90.095 76.893 89.85 76.1439C89.6816 75.6285 89.7628 74.9341 90.583 74.4402C91.2823 74.0192 91.1446 72.9296 90.7379 72.1594C90.3675 71.4576 90.2668 71.0473 90.9206 70.3201C91.2972 69.9011 92.1711 68.5248 91.1548 67.4637C90.6196 66.905 90.9143 66.2252 91.3555 65.5693C91.735 65.0052 91.4549 64.0279 90.452 63.8376C89.4473 63.6468 90.2797 63.1751 89.8321 62.3711C89.5302 61.8289 88.9905 61.5451 88.5698 61.5306Z" fill="#2972CC" stroke="black" stroke-width="1.5"/>
<path d="M86.3096 78.6899C86.1806 73.6896 88.6509 68.1228 88.589 65.0544" stroke="black" stroke-width="1.5"/>
<path d="M80.7614 91.8353C81.1849 92.0705 81.8826 93.0658 81.4764 93.7458C81.122 94.3395 81.6254 95.3014 82.1213 95.6721C82.8477 96.1832 82.654 96.9878 82.0645 97.2131C81.379 97.4748 81.4918 98.1477 81.6532 98.7218C81.9597 99.8113 81.7988 100.061 81.1723 100.296C80.3093 100.62 80.6434 101.282 80.5993 101.886C80.5509 102.55 81.1601 103.477 80.2537 103.745C79.3715 104.006 78.8897 104.441 78.7727 104.845C78.6025 105.432 77.3112 106.531 76.7311 105.779L75.6365 105.066C74.907 104.959 74.5124 104.684 74.2855 103.983C74.3491 103.611 74.4022 103.496 73.8668 102.887C73.45 102.414 73.5249 102.064 74.0091 101.644C74.342 101.355 74.5536 100.823 74.1174 100.095C73.7455 99.4733 74.2814 98.7614 74.8984 98.4003C75.4604 98.0714 75.6996 97.8259 75.4837 97.0077C75.3592 96.5364 75.2302 95.1549 76.431 94.8674C77.0633 94.7163 77.1048 94.0969 77.0242 93.4273C76.9549 92.8512 77.5561 92.2849 78.4028 92.6107C79.251 92.9372 78.7967 92.219 79.4583 91.8529C79.9046 91.6058 80.432 91.6523 80.7614 91.8338V91.8353Z" fill="#2972CC" stroke="black" stroke-width="1.5"/>
<path d="M75.7285 105.084C79.8301 97.5442 77.9414 98.7423 79.5904 94.6442" stroke="black" stroke-width="1.5"/>
<path d="M66.4999 89.1016L66.4875 72.7247" stroke="black" stroke-width="1.5"/>
<path d="M46.4276 88.1625L48.2493 88.677M46.4276 87.0821L48.3978 87.5576M46.4145 85.634L48.4818 87.069M46.4016 84.2766L48.7146 85.9095" stroke="black" stroke-width="1.5"/>
</g>
<defs>
<clipPath id="clip0_176_1164">
<rect width="132" height="158" fill="white" transform="translate(0.5 0.5)"/>
</clipPath>
</defs>
</svg>
