<svg width="132" height="159" viewBox="0 0 132 159" fill="none" xmlns="http://www.w3.org/2000/svg">
<g clip-path="url(#clip0_176_1141)">
<path fill-rule="evenodd" clip-rule="evenodd" d="M66.0001 157.877C66.0001 157.877 130.926 131.043 130.926 62.8458V1.07542H1.07373V62.8458C1.07373 131.043 66.0001 157.877 66.0001 157.877Z" fill="#EAD452" stroke="black" stroke-width="3.2"/>
<path fill-rule="evenodd" clip-rule="evenodd" d="M88.261 85.3172C88.6136 85.2307 90.8694 86.004 93.7607 89.0623C96.6521 92.1205 99.5947 98.0373 103.702 106.607C106.25 111.924 111.7 110.029 114.429 105.954C117.159 101.879 117.651 94.8368 118.1 91.9072C118.467 84.5727 113.432 72.2065 113.432 72.2065C112.885 67.3927 115.883 64.2319 119.137 61.1906C116.192 62.2373 113.253 61.8547 110.295 66.0928C110.295 66.0928 109.887 62.7263 110.777 59.3061C111.668 55.886 115.122 54.008 115.122 54.008C111.123 55.5636 107.727 57.317 107.052 59.9641C106.549 51.9064 110.53 45.4433 115.847 39.4557C110.609 42.2442 105.909 45.6237 103.275 51.2787C101.802 36.7998 108.859 31.5349 120.877 22.2297C129.897 15.2459 128.823 9.37781 123.922 7.05813C117.748 4.13649 112.28 5.7337 107.68 7.72896C107.68 7.72896 103.907 2.35333 100.985 6.55131C97.5971 11.4199 95.0217 13.7676 95.8239 20.0071C95.2258 18.9104 102.255 14.8126 107.33 15.4796C111.416 16.0166 108.969 10.2738 108.969 10.2738C117.399 6.69664 129.448 8.53259 118.233 19.1398C104.673 30.8201 96.8404 32.7526 100.809 54.8319C103.063 67.3719 114.949 81.0333 114.083 88.9021C115.025 94.1975 110.202 111.365 105.202 100.737C101.28 86.8839 91.9363 80.8781 87.5242 80.671L88.261 85.3172Z" fill="#222B2C" stroke="black" stroke-width="2.46765"/>
<path fill-rule="evenodd" clip-rule="evenodd" d="M11.8762 8.05936C11.5919 8.40666 11.0196 9.48652 12.7366 9.80274C13.6352 9.96852 14.8636 10.1842 12.6573 10.7928C11.7755 10.8991 11.3485 9.94318 10.7542 9.6592C10.2941 9.475 9.65986 9.22169 9.3694 9.9324C9.20217 11.2375 9.00997 12.1566 8.80957 12.7798C9.62836 13.5542 10.3376 14.2855 11.4385 12.5471C11.9928 12.7643 12.6446 12.9449 12.8335 13.3202C12.4166 13.4238 11.9877 13.3994 11.6694 13.46C10.4739 13.6883 8.9499 13.5178 8.88389 15.7352C11.1393 15.2497 11.4636 16.977 10.8794 17.8466C11.3009 18.4794 11.7316 18.5047 12.1663 17.9268C13.2125 16.7851 13.3283 16.8277 13.9006 16.8074C14.3063 16.792 14.6925 16.689 14.999 16.638C15.3207 16.5608 15.5406 16.69 15.6921 16.8999C15.763 17.9307 15.414 18.6273 14.0104 18.496C13.6171 18.6253 13.4187 19.2595 13.6126 20.0228C15.4461 20.6276 15.4331 21.3229 15.5519 22.3418C15.7492 22.7367 17.3143 23.427 16.6046 21.1606C17.501 21.1682 17.9437 20.3518 18.1297 19.5532C18.4272 19.1817 18.7916 19.1209 19.1745 19.1312L19.1508 19.1545L21.282 22.2683C19.8508 26.9755 13.8834 27.5385 10.6078 28.6617C13.1236 28.3655 19.8782 30.7053 22.161 26.1156L28.8054 32.0795C27.3781 34.5551 28.3004 39.5966 29.1327 42.3078C29.4427 40.0567 30.3364 35.8417 32.3581 35.6974C35.9685 40.8754 48.2 40.7391 49.1621 42.7043C49.6034 43.6057 50.3574 44.8833 49.6087 45.5499C48.4425 46.5879 46.7454 46.7874 45.3137 47.4064C48.7584 48.3431 55.9008 50.7472 57.0369 48.3901L63.6614 32.8736C53.3563 32.1276 41.5548 30.8504 37.4994 27.4569C33.6053 24.1988 25.4108 15.879 23.329 13.1332C21.0818 10.5014 19.3704 10.1812 17.0273 7.67336C16.8925 7.52945 16.15 7.23133 15.7159 7.63888C14.6282 8.17345 15.1527 6.55026 14.5083 6.26014C13.5017 5.80693 11.8762 6.98873 11.8762 8.05786V8.05936Z" fill="#222B2C" stroke="black" stroke-width="2.466" stroke-linecap="round" stroke-linejoin="round"/>
<path fill-rule="evenodd" clip-rule="evenodd" d="M77.2193 82.4978C67.3976 83.4791 55.07 76.9436 48.0785 84.4728C43.6571 87.3805 29.0061 90.2459 34.8001 83.7866C25.6806 88.2301 40.1976 93.0835 50.0429 85.6357C37.8451 94.2252 50.9476 96.5015 51.9256 105.709C49.1385 110.726 46.3679 108.412 42.2495 112.938C40.4188 113.832 38.4969 113.33 35.4442 112.596C35.0126 111.137 33.9247 110.412 32.7393 110.071C31.4792 110.434 29.9995 111.331 30.1179 112.471C30.0021 114.014 32.3517 112.853 33.3571 115.234C30.6191 115.305 28.8013 113.671 27.2319 114.459C25.9364 115.378 26.4164 117.364 26.5912 117.977C29.282 118.446 30.0323 116.689 32.2089 117.585C30.5106 119.993 27.5565 116.894 26.354 120.564C26.58 121.811 27.6754 121.869 28.6648 122.698C30.5483 122.946 31.4474 119.707 33.0888 120.55C32.5935 121.816 30.3252 122.57 31.5757 124.026C31.9922 124.692 33.205 124.909 34.4172 125.254C36.6119 125.124 34.4393 123.397 36.8237 122.135C48.304 123.715 44.97 119.973 48.0202 119.347C51.9063 121.658 52.0647 119.347 53.4581 117.508C57.5193 120.744 56.8518 117.693 57.6593 116.811C56.8725 112.46 60.9872 112.061 62.543 108.516C64.4686 107.031 67.2366 105.897 60.6102 100.836C58.7106 96.3809 59.765 93.0866 63.9556 91.0236C70.5658 93.5847 74.5674 95.851 80.5904 96.4658L77.2193 82.4978Z" fill="#222B2C" stroke="black" stroke-width="2.466" stroke-linecap="round" stroke-linejoin="round"/>
<path fill-rule="evenodd" clip-rule="evenodd" d="M71.1755 81.2093C73.1904 83.7386 75.4294 86.2572 74.468 88.932C72.1271 90.5406 70.8142 92.1193 76.4659 93.492L79.0003 87.4194L74.8345 81.4143C72.257 80.4998 71.2783 80.5815 71.1755 81.2093Z" fill="#222B2C" stroke="black" stroke-width="2.466" stroke-linecap="round" stroke-linejoin="round"/>
<path fill-rule="evenodd" clip-rule="evenodd" d="M57.9993 48.8663C60.4175 63.6803 70.0257 69.2761 73.6658 78.3058C77.8247 88.6222 76.0978 89.4178 76.0978 89.4178C73.8118 95.1587 68.6252 99.7847 69.8793 103.638C75.3549 120.46 60.8501 112.873 67.6969 123.047C65.2773 116.889 71.247 116.729 73.7986 114.406C75.2633 117.058 76.9094 119.537 80.3359 120.322C79.1195 123.909 76.3586 127.449 77.9255 131.122C75.709 133.241 74.4861 136.583 70.8115 136.907C69.4192 135.865 68.2528 132.561 65.8205 134.691C64.2942 135.306 65.5483 136.675 65.4115 137.333C65.8391 138.582 68.4789 137.7 68.9676 138.987C67.6545 139.947 65.2498 138.432 63.7347 140.679C63.072 141.879 63.6258 143.829 64.8807 144.03C68.3344 143.492 66.1248 141.284 69.5211 142.266C68.5943 144.24 65.9757 144.456 67.2109 146.186C66.7854 147.593 70.2005 146.53 70.2329 147.391C73.734 146.482 68.5819 144.801 73.6609 143.93C73.5662 144.736 73.5137 146.147 74.1073 146.824C75.1454 147.138 76.6645 147.303 77.723 146.642C78.0578 145.617 78.0368 144.009 77.1981 142.947C80.555 140.321 85.7901 139.433 85.3925 133.333C86.2762 134.729 87.3185 135.959 89.3294 136.181C83.0107 129.893 93.117 132.105 89.2101 127.738C90.3922 126.386 92.7791 116.298 93.4172 124.752C95.5246 120.239 94.6836 119.422 93.8433 118.532C83.2388 107.303 96.2293 94.0467 87.5302 80.6829C90.6161 57.6961 88.5154 46.9951 85.473 37.5114L57.9993 48.8663Z" fill="#222B2C" stroke="black" stroke-width="2.466" stroke-linecap="round" stroke-linejoin="round"/>
<path fill-rule="evenodd" clip-rule="evenodd" d="M62.7968 42.2759L40.0653 59.0625C38.4981 60.2717 32.7414 61.3921 29.62 61.5157C27.0896 60.8023 22.0323 59.4059 20.9162 57.7846C20.6348 57.3559 20.7205 57.1483 20.357 56.9222C17.7538 55.6812 16.0914 55.9174 13.298 54.5939C13.1259 54.5121 12.3313 54.5325 12.0582 55.0893C11.2163 56.0199 11.191 54.2956 10.4967 54.2791C9.41228 54.256 8.98379 55.9527 8.61921 56.9935C8.46601 57.4309 8.28307 58.6716 9.98574 58.2875C10.8769 58.0864 12.086 57.8069 10.2251 59.2506C9.43729 59.6996 8.73131 58.9766 8.0858 58.9467C7.59739 58.9544 6.92754 58.9621 6.88574 59.7434C7.15027 61.0309 7.26398 61.9723 7.27798 62.6347C8.29094 63.0349 9.19342 63.4386 9.6598 61.3759C10.2465 61.3605 10.9147 61.2622 11.2118 61.5382C10.8564 61.8006 10.4457 61.9517 10.1686 62.1348C9.12749 62.8221 7.64317 63.2713 8.29607 65.3723C10.2424 64.0246 11.1124 65.5075 10.8479 66.5528C11.4448 66.9784 11.8537 66.8315 12.073 66.1188C12.6806 64.6364 12.7974 64.6252 13.3246 64.3796C13.6983 64.2057 14.0196 63.9589 14.2889 63.7893C14.5639 63.5898 14.8113 63.6175 15.0206 63.7548C15.4189 64.6912 15.3212 65.4866 13.9703 65.9198C13.6452 66.1969 13.6698 66.8718 14.0967 67.5096C16.0009 67.3491 16.2091 67.9954 16.6482 68.9018C16.9649 69.3508 18.3289 69.0317 17.2473 67.3889C18.0856 67.0408 18.2327 66.0968 18.1488 65.276C18.3064 64.8101 18.6301 64.6081 18.9903 64.4658L18.9774 64.504L20.4642 65.8569C23.0913 68.2469 21.8684 69.4073 20.5209 70.3667C23.0152 70.4699 25.648 70.6877 27.7809 70.4563C29.2319 71.6701 26.8492 72.7738 25.7844 73.9093C31.9262 74.2773 35.572 70.8617 40.5716 69.0569C39.5191 70.9765 40.3079 72.6274 41.1963 74.268C41.8774 71.1062 44.794 70.5446 47.3686 69.3991L49.1828 67.6385C50.7422 68.5537 52.6712 68.5514 54.6401 68.4566C53.7047 67.1725 54.6771 65.9438 56.4935 64.7446C60.8608 60.5053 70.6253 56.0257 70.9249 50.3216L62.7968 42.2759Z" fill="#222B2C" stroke="black" stroke-width="2.466" stroke-linecap="round" stroke-linejoin="round"/>
<path d="M11.632 4.75487C10.6362 4.69539 9.53719 5.27206 8.98648 6.9978C10.43 5.89182 11.735 7.06128 11.918 8.44624C12.4517 8.37448 14.663 6.37512 13.6587 6.33598C13.5208 5.51244 12.6276 4.81512 11.632 4.75487ZM9.46649 10.0037C7.49653 10.4888 6.0192 10.9548 5.86687 13.7554C6.97831 12.0969 8.27154 12.811 9.36714 12.6555C9.885 10.926 9.89072 10.1262 9.46649 10.0037ZM9.86339 15.3006C9.57764 15.2852 9.28951 15.3709 9.02598 15.5996C7.62034 16.8192 7.70776 18.514 9.7845 20.8403C9.46107 19.0297 10.1175 18.1034 11.3227 17.6709C12.302 17.3194 11.102 15.3666 9.86339 15.3006ZM14.1525 19.6189C13.8625 19.5683 13.6713 19.7039 13.7043 20.0907C13.3006 20.8989 13.0606 22.0176 11.2826 21.1914C11.9939 25.0201 15.4528 22.8062 16.1651 21.9597C15.9061 20.7447 14.7904 19.7314 14.1525 19.6189ZM8.30368 53.8396C7.03461 53.7222 5.44841 54.6707 5.56483 57.1885C6.51694 55.5541 8.12305 56.0866 8.76772 57.2919C9.23559 56.9999 10.5882 54.2147 9.64799 54.6023C9.39157 54.1614 8.88059 53.8915 8.30368 53.8396ZM6.81353 59.8032C5.1624 61.0849 3.95874 62.1412 4.78044 64.8002C5.23611 62.794 6.67591 62.9092 7.63349 62.3021C7.51715 60.4812 7.24702 59.7372 6.81353 59.8032ZM9.73781 64.6586C9.2457 64.6547 8.77238 64.8472 8.49798 65.3856C7.61983 67.109 8.28257 68.6419 10.9985 69.9198C10.0781 68.3786 10.3655 67.2432 11.3292 66.3334C11.9917 65.7082 10.8201 64.68 9.73781 64.6586ZM14.6651 66.7898C14.1232 66.7507 13.7767 66.9614 14.0055 67.4441C13.9106 68.3628 14.0737 69.5015 12.1491 69.4873C14.1209 72.7335 16.5522 69.2208 16.9187 68.1356C16.3817 67.304 15.3618 66.8405 14.6651 66.7898ZM29.7752 108.964C28.7563 108.891 27.7279 109.581 26.6591 111.717C28.5112 110.035 29.4906 111.203 30.5261 112.189C30.3974 112.1 32.5007 110.877 32.1468 110.244C31.3536 109.557 30.5675 109.026 29.7752 108.964ZM26.8097 114.649C26.7371 114.645 26.6536 114.661 26.56 114.684C24.1714 114.764 23.5639 116.105 24.2557 118.365C25.5753 116.498 26.1201 117.103 26.6793 117.664C26.7382 118.004 27.8997 114.703 26.8097 114.649ZM26.8526 120.298C26.6597 120.286 26.4773 120.384 26.3282 120.649C25.5112 122.131 25.4177 123.101 25.4029 123.674C25.762 123.784 26.8499 123.647 28.0633 122.749C28.467 122.628 28.2318 121.75 27.7967 121.079C27.5247 120.659 27.1741 120.321 26.8526 120.298ZM31.8492 123.55C31.5395 123.515 31.3565 123.598 31.446 123.852C31.8042 124.865 31.8254 125.874 29.7406 126.859C32.7962 128.689 33.1547 126.742 34.1221 125.646C34.8476 124.826 32.7782 123.656 31.8492 123.55ZM64.8097 133.348C63.7908 133.274 62.7617 133.965 61.6929 136.101C63.5451 134.419 64.525 135.587 65.5605 136.573C65.4319 136.483 67.5353 135.261 67.1813 134.628C66.3881 133.94 65.6019 133.41 64.8097 133.348ZM63.6045 141.111C63.4844 141.103 63.3493 141.156 63.1975 141.289C61.0406 142.419 60.9658 143.92 62.4117 145.69C62.9478 143.391 63.6651 143.707 64.3785 143.974C64.5427 144.241 64.4449 141.17 63.6045 141.111ZM76.0544 146.307C75.0273 146.263 73.8607 146.594 74.2739 147.001C75.0085 147.724 75.4425 148.615 73.996 150.547C77.4614 150.635 76.979 148.716 77.3882 147.251C77.5672 146.61 76.8531 146.344 76.0544 146.307ZM68.1986 146.269C67.6875 146.242 67.2804 146.444 67.3522 147.065C67.5671 148.79 68.0483 149.609 68.3637 150.065C68.7037 149.899 69.4638 149.027 69.889 147.48C70.1312 147.102 69.4493 146.585 68.7307 146.369C68.5511 146.313 68.3689 146.279 68.1986 146.269Z" fill="#E64151" stroke="black" stroke-width="1.85" stroke-linecap="round" stroke-linejoin="round"/>
<path fill-rule="evenodd" clip-rule="evenodd" d="M73.8298 114.436C75.3214 111.33 74.1063 108.14 73.8184 104.979L73.8298 114.436Z" fill="#222B2C"/>
<path d="M73.8298 114.436C75.3214 111.33 74.1063 108.14 73.8184 104.979" stroke="black" stroke-width="2.466" stroke-linecap="round" stroke-linejoin="round"/>
<path d="M67.4165 23.5013C59.8341 18.7175 54.4273 24.3419 47.9954 24.457C36.6078 23.5937 38.6562 13.574 40.6696 6.10083C32.8625 11.9009 35.2656 22.2006 43.2858 26.0929C51.4097 30.2559 57.8501 20.9642 64.822 26.7694" fill="#E64151"/>
<path d="M67.4165 23.5013C59.8341 18.7175 54.4273 24.3419 47.9954 24.457C36.6078 23.5937 38.6562 13.574 40.6696 6.10083C32.8625 11.9009 35.2656 22.2006 43.2858 26.0929C51.4097 30.2559 57.8501 20.9642 64.822 26.7694" stroke="black" stroke-width="1.85"/>
<path d="M81.8288 9.15682C80.8918 13.7826 84.1425 16.2059 80.5276 21.2114C80.5276 21.2114 83.3865 21.9057 84.5813 23.3679C86.1832 25.3282 87.7448 25.6956 87.7448 25.6956C85.648 27.4605 83.8525 27.6394 81.4051 27.311C84.9198 28.8602 86.5995 32.0795 89.3784 34.0008C87.8189 35.0216 86.2844 35.1246 84.8163 35.2216C88.0036 37.1051 88.2597 38.9671 90.7111 40.2283C88.8931 41.7687 86.7609 42.4659 84.1932 41.5947C85.4832 46.0731 83.4219 50.3138 80.3926 52.973C80.4972 50.444 78.9498 47.0032 77.5298 45.9749C78.724 52.9234 72.6412 57.2967 69.0077 57.7348C70.0697 55.0904 70.2158 51.8938 69.3553 49.9552C65.2961 58.6465 58.6489 56.7128 57.0714 56.0413C59.8206 53.8104 60.5998 50.7688 60.7345 50.401C58.9267 52.0156 53.1688 53.5825 50.2918 50.1053C52.5001 49.6308 56.3746 47.3593 58.792 44.271C57.5906 44.7829 52.7424 45.7135 50.796 41.2903C52.9354 41.5511 55.8779 40.9669 58.572 37.8816C56.3623 38.0114 55.116 35.9466 54.849 35.347C57.7777 34.8688 63.0682 33.27 63.7066 30.2381C63.7066 30.2381 61.991 29.5891 61.1305 29.8283C60.3591 30.0427 59.4352 31.2727 59.4352 31.2727C59.4352 31.2727 57.717 28.5594 58.2856 27.1928C58.6786 26.2483 59.3526 25.66 60.2454 25.6918C62.1889 25.7611 65.2749 26.1079 65.9206 23.37C66.214 22.1255 65.582 21.1253 64.5788 20.6531C63.3908 20.0938 60.5847 20.3298 60.3796 21.8822L60.0357 24.4862C59.7728 24.5277 58.5896 23.5943 58.1134 22.7502C55.2831 22.5283 54.5324 19.2006 55.2837 17.0057C53.6581 15.0504 56.0138 13.1959 57.9561 12.6218C59.8371 7.07958 70.369 7.45183 74.4683 4.60714C75.6112 3.76245 76.5733 2.73305 76.5733 2.73305C77.1739 3.47934 77.6002 4.5145 76.9444 6.52344C77.4406 6.67887 78.0257 6.20426 78.6081 5.74838C78.8434 6.49742 79.1259 7.26371 78.7388 8.44919C78.4955 9.19497 77.4014 10.3559 77.4296 10.9138C78.4362 10.0492 79.6249 9.16729 81.8288 9.15682Z" fill="#222B2C" stroke="black" stroke-width="2.466"/>
<path d="M62.7104 15.4631L62.9648 13.358C64.7172 12.0104 66.8826 11.6393 69.0383 11.2449C69.8132 13.2238 67.1881 15.1627 62.7104 15.4631Z" fill="#F5FBF8"/>
<path d="M66.4334 14.1701C66.1574 15.0284 65.3328 15.5288 64.5918 15.2879C63.8507 15.0469 63.4737 14.1559 63.7497 13.2976C64.0258 12.4393 64.8502 11.9389 65.5913 12.1798C66.3324 12.4208 66.7094 13.3118 66.4334 14.1701Z" fill="black"/>
<path d="M77.5938 4.89123L76.8806 4.87394C76.7418 6.19254 76.3165 6.99197 75.8231 7.50365C75.3297 8.01533 74.7619 8.24061 74.3459 8.31088C75.5577 9.36123 77.0041 7.67832 77.2265 6.65199C77.3393 6.13141 77.5233 5.56107 77.5938 4.89123ZM69.5588 10.6418L68.9931 10.6725C66.6696 10.7841 64.0087 11.4826 62.5258 13.1681L62.4333 13.2913C62.3812 13.8492 62.173 15.1911 62.7581 15.5734L63.1855 13.7505C64.2691 12.5903 66.3775 11.897 68.3724 11.6969C68.7168 13.2378 67.3618 13.9131 66.4164 14.7452C68.6731 14.0237 70.0852 12.7462 69.5588 10.6418ZM58.3359 14.9954L57.8603 14.9913C57.513 14.9884 56.9909 16.0746 56.5488 16.2995C56.1067 16.5244 55.5288 16.519 55.148 16.2042L54.73 16.9344C55.338 17.437 56.1528 17.4778 56.8378 17.1292C57.5229 16.7806 59.2584 15.0032 58.3359 14.9954ZM68.469 20.1643C69.2968 21.971 68.9205 24.2497 67.8642 26.1599C66.808 28.0701 65.0946 29.5469 63.2912 29.7618L63.287 30.6801C65.4271 30.4251 67.39 28.9522 68.4891 26.7685C69.478 24.8037 70.5842 21.1017 68.469 20.1643ZM77.7992 24.2399C77.3865 26.8088 81.1935 27.7444 82.0007 27.9663L82.2384 27.0626C80.2507 26.5347 78.792 25.6824 77.7992 24.2399ZM70.4907 23.6724C68.9614 30.9875 65.366 33.2662 62.6924 34.2574C64.7691 34.8315 67.6902 32.1565 68.2361 31.4233C69.6523 29.5214 70.6698 26.9074 70.4907 23.6724ZM71.6454 26.255C70.9079 29.8041 69.6766 34.0753 66.2712 36.4631C68.7574 36.2678 70.4719 33.1706 70.8546 32.0688C71.3892 30.5298 72.4733 27.7656 71.6454 26.255ZM78.0074 31.0823C77.9264 35.0369 83.8272 35.5205 85.7579 35.6253L85.8669 34.7105C83.3975 34.5885 79.6295 34.0866 78.0074 31.0823ZM72.3655 30.1064C72.3127 32.4436 71.6548 34.3228 70.3539 36.1965C73.3076 35.5375 73.2372 30.3239 72.3655 30.1064ZM78.8983 38.0241C79.4999 38.1597 80.7556 38.4365 81.8854 39.2711C83.0152 40.1058 84.0155 41.441 84.1426 43.7755L84.9536 43.6406C85.1951 39.976 81.3418 36.788 78.8983 38.0241ZM74.382 40.0504C76.0675 42.2267 77.1818 44.2251 77.2921 47.7099L78.1181 47.6106C78.1575 44.6394 77.4067 41.2318 74.382 40.0504ZM69.4701 43.3889C69.8315 44.9573 69.8864 47.17 68.801 50.1607L69.5858 50.3545C70.0318 49.5433 71.2295 44.8884 69.4701 43.3889ZM62.8042 40.8232C61.6491 42.0218 60.2806 43.4904 57.9342 44.114L58.0677 45.0158C59.2649 44.4941 62.0911 43.9436 62.8042 40.8232ZM65.8112 42.9964C64.9198 45.5268 63.4673 48.0182 59.8151 50.6113L60.2028 51.3811C61.2781 50.9414 66.4478 46.589 65.8112 42.9964Z" fill="black"/>
<path d="M79.5618 12.0452C78.0813 14.3387 81.0308 16.7256 78.964 20.1179C77.0058 19.6179 76.2817 18.2577 76.3212 16.4449C76.3652 14.4199 77.3923 12.5284 79.5618 12.0452Z" fill="black"/>
</g>
<defs>
<clipPath id="clip0_176_1141">
<rect width="131" height="158" fill="white" transform="translate(0.5 0.5)"/>
</clipPath>
</defs>
</svg>
