<svg width="192" height="95" viewBox="0 0 192 95" fill="none" xmlns="http://www.w3.org/2000/svg">
<path d="M101.841 72.443C101.919 72.5234 102.002 72.5982 102.09 72.6668C102.115 72.618 102.133 72.5851 102.148 72.5508C102.251 72.2235 102.335 71.8909 102.401 71.5545C102.673 71.1747 103.011 70.6977 103.284 70.2989C103.13 70.6247 102.976 70.9503 102.823 71.2756C102.625 71.6915 102.51 72.6654 102.355 73.0969C102.349 73.117 102.348 73.1385 102.352 73.1591C102.357 73.1797 102.366 73.1988 102.38 73.2147C102.494 73.388 102.578 73.5793 102.629 73.7807C102.633 73.7988 102.639 73.8165 102.643 73.8346C102.668 73.9904 102.709 74.143 102.767 74.2899C102.844 74.8708 102.805 75.4615 102.651 76.0268L103.658 74.0649L104.837 73.4777L107.062 70.8185C106.694 70.9769 106.371 71.072 106.366 70.9194C106.355 70.6453 106.367 69.0458 106.367 69.0458L106.281 66.6576C106.281 66.6576 106.252 65.3209 106.252 64.4378C106.253 64.2997 106.254 64.1617 106.255 64.0238C106.258 63.8849 106.262 63.7753 106.269 63.72C106.274 63.6784 106.27 63.6762 106.258 63.7069C106.262 63.0781 106.267 62.4493 106.273 61.8207C106.278 61.3462 106.291 60.8703 106.29 60.3947C106.281 60.1556 106.292 59.9161 106.322 59.6787C106.378 59.333 106.412 58.9829 106.449 58.6336L104.221 63.8429L104.767 61.8011C104.769 61.7888 104.771 61.7769 104.773 61.765C104.991 60.5123 105.489 59.2979 105.718 58.047C105.815 57.5158 105.926 56.9884 106.051 56.4648C106.063 56.4131 106.073 56.3607 106.085 56.309C106.122 56.1564 106.162 56.0045 106.199 55.8522C106.143 56.0551 106.099 56.2605 106.051 56.4648C105.956 56.8749 105.875 57.2879 105.788 57.7009C105.764 57.8155 105.739 57.9309 105.718 58.047C105.683 58.2408 105.65 58.4347 105.615 58.6281L106.979 53.5298C106.977 53.5161 106.979 53.5019 106.977 53.4882L106.978 53.4875C107.021 53.3172 107.392 50.6349 107.392 50.6349C107.392 50.6349 106.175 54.3493 106.041 54.7778C105.957 55.0476 105.693 55.1904 105.614 55.4606C105.428 56.0927 102.951 64.0064 102.921 64.1518C102.88 64.3517 102.385 65.2475 102.348 65.4479C102.235 66.0854 102.25 66.8944 102.062 67.5154C101.676 68.7822 101.679 70.3043 101.592 70.5654C101.527 70.7578 101.455 71.4764 101.387 71.6687C101.349 71.7751 101.312 71.8821 101.274 71.9917C101.294 72.007 101.315 72.0212 101.336 72.0343C101.53 72.1357 101.701 72.2745 101.841 72.443ZM89.05 87.0661C89.0376 86.9777 89.0053 86.8933 88.9555 86.8195C88.9225 86.771 88.8982 86.7172 88.8836 86.6604C88.8243 86.4127 88.7688 86.1639 88.7172 85.914C88.7077 85.8644 88.68 85.8202 88.6396 85.7903C88.3369 85.52 88.0682 85.2136 87.8394 84.8779C87.8074 84.8377 87.7752 84.7976 87.7432 84.7574C87.8406 84.7527 87.8324 84.7346 87.9236 84.7082L87.8476 84.6128L87.0015 82.2998L88.5502 84.9668L88.5547 84.9719C88.5519 84.853 88.5377 84.7347 88.5123 84.6186C88.4031 84.0772 88.2891 83.5362 88.1845 82.9934C88.1382 82.7554 88.1069 82.5135 88.0721 82.2737C88.0354 82.0177 88.0027 81.7606 87.9675 81.5038C87.9452 81.3454 87.9132 81.1863 87.8978 81.0268C87.8712 80.7487 87.8511 80.4721 87.8331 80.1932C87.805 79.7426 87.7802 79.82 87.7554 79.3691C87.7475 79.2244 87.7465 79.0794 87.7447 78.9337C87.744 78.8866 87.736 78.8487 87.6879 78.8291C87.4445 78.7168 87.2219 78.5638 87.0295 78.3764C86.9803 78.3326 86.9337 78.2859 86.8857 78.2411C86.4959 75.9256 85.6999 75.8109 85.2329 74.8906C84.4864 74.4092 83.4744 73.7329 83.4744 73.7329L82.0563 72.5497C82.0563 72.5497 82.4119 73.3355 82.9057 74.4295C82.9676 74.6049 83.0288 74.7806 83.0927 74.956C83.2437 75.3679 83.3989 75.7773 83.5506 76.1892C83.6537 76.4673 83.756 76.7464 83.8575 77.0264C84.0272 77.4907 84.1964 77.9545 84.3653 78.4176C84.4426 78.631 84.5112 78.8479 84.5935 79.0599C84.7808 79.5372 84.9731 80.0131 85.1635 80.4898C85.1937 80.5661 85.2174 80.6449 85.2501 80.7208C85.3296 80.9082 85.413 81.0933 85.4931 81.2796C85.6031 81.5353 85.7116 81.792 85.8201 82.0473C85.8859 82.1852 85.9447 82.3263 85.9962 82.4701C86.0879 82.7569 86.1706 83.0473 86.2482 83.3387C86.3371 83.6637 86.4491 83.9818 86.5835 84.2906C86.6028 84.3335 86.6248 84.3751 86.6493 84.4153C86.8299 84.7178 87.0324 85.0064 87.2552 85.2789C87.3102 85.3444 87.3702 85.4062 87.4219 85.4738C87.6739 85.8022 87.9233 86.132 88.1756 86.4593C88.3351 86.6665 88.4967 86.8724 88.6604 87.077C88.8002 87.2502 88.9439 87.4202 89.0866 87.5905C89.112 87.6175 89.1389 87.6431 89.1671 87.6672C89.1736 87.6624 89.1806 87.6583 89.188 87.6549C89.1794 87.6227 89.1707 87.5905 89.1628 87.5594C89.124 87.3952 89.0758 87.2321 89.05 87.0661ZM82.0789 53.3132C82.0808 53.3798 82.0785 53.4465 82.0721 53.5128C82.0608 53.6186 82.0704 53.7257 82.1005 53.8278C82.1362 53.9561 82.1525 54.0891 82.149 54.2223C82.1425 54.7691 82.1387 55.3153 82.1375 55.8609C82.1322 55.983 82.1411 56.1054 82.1641 56.2254C82.2334 56.5183 82.3035 56.8135 82.4013 57.098C82.5102 57.4152 82.6205 57.7324 82.7298 58.0495C82.7281 58.2861 82.7463 58.5223 82.7844 58.7558L83.4744 61.0334L82.1827 57.9218V58.2868C82.182 58.503 82.1806 58.7185 82.1813 58.9337C82.1742 59.0314 82.1786 59.1296 82.1943 59.2263C82.2383 59.4049 82.2775 59.5847 82.3252 59.7622L82.6273 60.3868L83.1513 61.9508L84.3019 64.9383L82.2309 61.7881C82.2315 61.8489 82.2316 61.9093 82.2342 61.9704C82.2449 62.2058 82.2568 62.4405 82.269 62.6759C82.272 62.7541 82.2792 62.8321 82.2906 62.9096C82.3093 63.0343 82.3459 63.1554 82.3545 63.2806C82.3617 63.4333 82.377 63.5855 82.4005 63.7366C82.4577 64.0639 82.5012 64.3937 82.5594 64.7206C82.6014 64.9568 82.6643 65.1878 82.7103 65.4236C82.7829 65.7925 82.8408 66.165 82.9213 66.5328C82.9278 66.5621 82.9307 66.591 82.9364 66.6203C82.9103 67.0126 82.9052 67.406 82.9211 67.7989C82.9174 67.843 82.9257 67.8874 82.945 67.9272C82.8575 68.0274 82.9783 70.3719 82.9783 70.3719C82.936 71.0269 82.9829 71.6847 83.1179 72.3269C83.1179 72.3287 83.8151 73.2672 83.86 73.333C83.9292 73.4271 84.0034 73.5174 84.0821 73.6035C84.4048 73.9765 84.8111 74.2668 85.2674 74.4504C85.3305 74.4799 85.389 74.5184 85.4411 74.5647C85.8931 75.2095 86.4183 75.8706 86.5928 75.8171C86.5937 75.8145 86.5714 75.7672 86.5449 75.6844L86.5457 75.6847C86.5335 75.4681 86.4588 75.1495 86.4588 74.8898C86.4588 74.6867 86.4881 74.4846 86.5457 74.2899C86.6172 73.9826 86.7071 73.68 86.8149 73.3836C86.827 73.3608 86.8343 73.3362 86.8473 73.3138C86.8636 73.2854 86.8745 73.2541 86.8793 73.2216C86.9959 72.9076 87.1637 72.6154 87.3758 72.3569C87.46 72.2761 87.5491 72.2006 87.6426 72.1309C87.7026 72.0872 87.6947 72.0358 87.6818 71.9754C87.5858 71.5147 87.469 70.5307 87.4201 70.0609C87.3928 69.7955 87.3343 69.5336 87.2922 69.2707C87.23 68.8707 87.1765 68.4701 87.1049 68.0726C87.0712 67.8794 87.0198 67.6897 86.9515 67.5059C86.8678 67.2868 86.7506 67.0817 86.6607 66.8644C86.5887 66.6952 86.5291 66.5209 86.4825 66.3429C86.3862 65.9552 86.3057 65.5632 86.2158 65.1741C86.1662 64.9607 86.1184 64.7452 86.0591 64.5351C85.8952 63.9583 85.7285 63.3821 85.5589 62.8065C85.4597 62.468 85.3547 62.1313 85.2559 61.7946C85.1876 61.561 85.1103 61.3285 85.0636 61.0909C84.918 60.4849 84.7298 59.8901 84.5005 59.3109C84.3664 58.9218 84.2112 58.5403 84.085 58.149C83.9653 57.7758 83.8737 57.3939 83.7655 57.0167C83.4884 56.0482 83.2084 55.0797 82.9328 54.1113C82.8124 53.6922 82.6995 53.2726 82.5842 52.8528C82.5702 52.804 82.5644 52.7526 82.5486 52.7038C82.5188 52.6098 82.48 52.5183 82.4526 52.4232C82.4156 52.2919 82.3912 52.157 82.3517 52.0261C82.278 51.7776 82.1986 51.5317 82.1202 51.2855C82.1181 51.2786 82.1019 51.2746 82.0904 51.2681C82.0529 51.3428 82.0409 51.4278 82.0563 51.5101C82.0624 52.1111 82.0713 52.7114 82.0789 53.3132ZM106.281 72.7717L103.81 74.3286L102.561 76.3924C102.355 77.1359 102.059 77.8514 101.682 78.5232C101.677 78.5322 101.675 78.5398 101.671 78.5489C101.522 78.6664 101.385 78.7644 101.385 78.7644L101.178 78.9329L101.175 78.9796C101.175 78.9796 101.159 79.1268 101.148 79.2002C101.139 79.2656 101.118 79.3311 101.115 79.398C101.096 79.7021 101.078 80.0092 101.065 80.3151C101.039 80.8919 101.021 81.4687 100.99 82.0459C100.981 82.2252 100.942 82.4032 100.916 82.5818C100.891 82.7561 100.865 82.9316 100.837 83.1283C101.014 82.8903 101.188 82.6791 101.339 82.4517C101.52 82.1786 101.681 81.8918 101.852 81.6112C101.928 81.485 101.994 81.3533 102.061 81.2224C102.126 81.217 102.19 81.207 102.254 81.1924L103.147 79.9144L101.777 83.1283L101.421 83.3514C101.357 83.4787 101.294 83.606 101.23 83.7333C101.198 83.7962 101.182 83.866 101.153 83.93C101.119 84.0133 101.08 84.0947 101.037 84.1738C100.945 84.3069 100.897 84.4656 100.899 84.6276C100.899 84.6511 100.897 84.6745 100.892 84.6974C100.85 85.0243 100.798 85.3502 100.769 85.6789C100.726 86.1718 100.652 86.6611 100.564 87.1479C100.5 87.4757 100.472 87.8095 100.48 88.1434C100.482 88.1793 100.486 88.2143 100.488 88.2508H100.51C100.541 88.1814 100.571 88.112 100.599 88.0418C100.874 87.3901 101.148 86.7386 101.421 86.0872C101.55 85.7809 101.679 85.4738 101.812 85.1693C101.956 84.8388 102.092 84.5036 102.251 84.1817C102.509 83.6631 102.784 83.1536 103.053 82.6397C103.227 82.3066 103.396 81.9725 103.576 81.6434C103.761 81.2891 103.925 80.9241 104.067 80.5505C104.15 80.3447 104.217 80.131 104.298 79.9224C104.385 79.6924 104.479 79.4652 104.571 79.236C104.638 79.0689 104.71 78.9036 104.773 78.7355C104.857 78.5116 104.932 78.2856 105.013 78.0614C105.048 77.9616 105.086 77.8625 105.123 77.7634C105.182 77.6021 105.241 77.4408 105.297 77.2788C105.361 77.0983 105.431 76.9183 105.48 76.7335C105.544 76.4879 105.605 76.2413 105.667 75.995C106.34 74.109 107.466 71.6767 107.923 70.7093L106.281 72.7717ZM95.067 76.5439C95.103 76.3193 95.1534 76.0973 95.218 75.8793C95.3208 75.5751 95.4552 75.2822 95.5745 74.9849C95.6622 74.7662 95.7535 74.5495 95.8326 74.3286C95.8976 74.1148 95.9964 73.913 96.1251 73.7308C96.2185 73.6093 96.3127 73.4903 96.4076 73.3706C96.4184 73.3558 96.432 73.3384 96.4435 73.3232C96.5786 73.2227 96.7321 73.1102 96.9251 72.9724C96.9172 72.911 96.9078 72.8614 96.9035 72.8104C96.8697 72.4191 96.8367 71.4988 96.8036 71.1082C96.7346 70.2866 96.6658 69.4648 96.5973 68.6429C96.5707 68.3261 96.547 68.009 96.5204 67.6918C96.4773 67.183 96.4327 66.6745 96.3896 66.1657C96.3608 65.8207 96.3326 65.4764 96.3048 65.1329C96.276 64.7759 96.2475 64.4196 96.2192 64.0639C96.2106 63.9543 96.2092 63.8447 96.1984 63.7341C96.1617 63.3602 96.1215 62.9844 96.087 62.6101C96.059 62.3049 96.0374 61.9997 96.0122 61.6934C95.9828 61.3343 95.949 60.9741 95.9231 60.6157C95.9037 60.3369 95.8929 60.0587 95.8793 59.7792C95.8742 59.674 95.8721 59.5677 95.8678 59.4621C95.862 59.3008 95.8563 59.1402 95.8491 58.9796C95.8455 58.8936 95.8354 58.8068 95.8333 58.7211C95.8175 58.1356 95.8059 57.5501 95.7909 56.965C95.7815 56.6391 95.7736 56.3137 95.7556 55.9885C95.7377 55.6667 95.7204 55.3449 95.6809 55.0252C95.6011 54.3673 95.5055 53.7106 95.4171 53.0532C95.3208 52.3411 95.2254 51.6293 95.131 50.9177C95.1008 50.6928 95.0814 50.4653 95.052 50.2389C94.9865 49.7496 94.5218 46.9068 94.5218 46.9068C94.5073 47.0796 94.481 47.2511 94.443 47.4203C94.4369 47.4429 94.4354 47.4665 94.4387 47.4897C94.4491 47.5801 94.7515 52.4684 94.7824 52.9544C94.8147 53.4651 94.8428 53.9742 94.8794 54.4834C94.9067 54.8591 94.9477 55.2342 94.9801 55.6099C94.9919 55.747 95.0023 55.884 95.0146 56.0211C95.0036 55.9951 94.9902 55.9702 94.9747 55.9466C94.919 55.866 94.8277 55.7152 94.7174 55.5271C94.7098 55.4541 94.836 59.4848 94.836 59.4848L93.812 49.6364C93.5952 50.1606 93.4388 50.7081 93.3461 51.2681C93.2297 51.5961 93.0726 51.9078 92.8784 52.1961L92.8891 52.502C92.876 52.6669 92.8638 52.8217 92.8527 52.9739C92.8394 53.1537 92.8304 53.3345 92.8156 53.5142C92.7819 53.9298 92.7452 54.3442 92.7107 54.759C92.6819 55.1036 92.6541 55.4483 92.6273 55.7929C92.5993 56.1288 92.5655 56.4655 92.5472 56.8022C92.5357 57.0055 92.545 57.2109 92.5515 57.4156C92.572 58.0351 92.6018 58.6563 92.6162 59.2773C92.6241 59.653 92.6018 60.0302 92.6255 60.4067C92.6638 60.8652 92.6545 61.3265 92.5978 61.783C92.5641 62.0152 92.5659 62.2525 92.5515 62.4868C92.545 62.6058 92.5407 62.7233 92.531 62.8405C92.5195 62.9652 92.5062 63.0896 92.4872 63.2137C92.466 63.3479 92.4336 63.482 92.4113 63.6176C92.3118 64.2255 92.2136 64.8338 92.1166 65.4424C92.0818 65.6641 92.0448 65.8836 92.0171 66.1057C91.9833 66.382 91.9581 66.6586 91.9294 66.936C91.9104 67.123 91.887 67.3103 91.8719 67.4973C91.8561 67.698 91.8496 67.8987 91.8352 68.0983C91.8198 68.3174 91.7881 68.5359 91.782 68.755C91.7644 69.4501 91.7551 70.1463 91.7418 70.841C91.7337 71.2409 91.757 72.1454 91.6985 72.5645C91.688 72.6076 91.6852 72.639 91.6983 72.6466C91.6471 73.0708 91.9202 72.9717 92.482 73.4444C92.4787 73.452 92.4753 73.4632 92.4721 73.4686C92.5032 73.503 92.5374 73.5344 92.5742 73.5626C92.6406 73.603 92.7024 73.6505 92.7585 73.7044L92.7599 73.7058C92.8158 73.7596 92.8683 73.8169 92.917 73.8773C93.1518 74.1671 93.3248 74.5024 93.4252 74.8623C93.4786 75.0753 93.5118 75.2929 93.5244 75.5122C93.5474 75.7386 93.5506 75.9675 93.5704 76.1936C93.5891 76.4127 93.62 76.63 93.6426 76.8492C93.685 77.2672 93.6857 77.1595 93.7393 77.5772C93.765 77.7797 93.7817 77.984 93.7957 78.1887C93.6669 78.6964 93.5845 79.2148 93.5495 79.7376C93.5303 79.9726 93.5028 80.1932 93.4698 80.403C93.468 80.3813 93.4676 80.3592 93.4658 80.3375C93.4417 80.0359 93.4115 79.735 93.3864 79.4334C93.3536 79.0508 93.2379 78.597 93.1952 78.2158C93.1861 78.1152 93.1695 78.0155 93.1456 77.9174C93.1413 77.8932 93.1319 77.8693 93.1254 77.8451C93.1094 77.9023 93.1028 77.9619 93.106 78.0212C93.1071 78.1159 93.0797 78.2087 93.0273 78.2874C92.9838 78.3554 92.9465 78.4292 92.9058 78.5004C92.8792 78.5571 92.8468 78.6109 92.8092 78.661C92.6393 78.8899 92.4405 79.0955 92.2176 79.2725C92.2126 79.2754 92.2111 79.2859 92.2104 79.2877C92.2399 79.3944 92.2728 79.6037 92.3341 79.7976C92.4523 80.1095 92.5348 80.4339 92.5799 80.7646C92.6068 80.9385 92.618 81.1147 92.6381 81.2908C92.669 81.5628 92.7122 81.8347 92.7319 82.1085C92.7524 82.3898 92.7524 82.6733 92.7592 82.9561C92.7643 83.1565 92.7592 83.3576 92.7711 83.5575C92.7749 83.6241 92.7774 83.6899 92.7804 83.7564C92.7657 83.9506 92.7572 84.1528 92.7598 84.3683C92.7607 84.4436 92.7632 84.5263 92.767 84.6139C92.7539 84.731 92.7339 84.8473 92.7071 84.9621C92.6938 85.0952 92.6312 85.2184 92.5317 85.3071C92.5569 85.4142 92.5806 85.5053 92.6007 85.5968C92.6985 86.0496 92.7926 86.5031 92.9245 86.9464C92.9591 87.0622 92.991 87.1804 93.0158 87.299C93.0514 87.4719 93.0766 87.6466 93.111 87.8201C93.1159 87.8436 93.1236 87.8668 93.1297 87.8899C93.2047 88.3785 93.2821 88.82 93.3531 89.1564C93.3544 89.1622 93.3522 89.1665 93.354 89.1723C93.3579 89.1857 93.3614 89.1994 93.3652 89.2128C93.3731 89.249 93.3811 89.2884 93.3889 89.322C93.3895 89.3557 93.4009 89.3883 93.4214 89.415C93.458 89.5415 93.4967 89.6674 93.5272 89.7958C93.584 90.0305 93.6257 90.2702 93.6785 90.5082C93.726 90.7208 93.7824 90.9342 93.8295 91.1479C93.8877 91.409 93.9373 91.6705 93.9959 91.9308C94.0789 92.3023 94.1554 92.6755 94.255 93.0422C94.3326 93.3261 94.4401 93.6023 94.5368 93.8812C94.6559 94.2258 94.7756 94.5698 94.896 94.9133C94.9091 94.9462 94.924 94.9785 94.9405 95.0098C94.9563 94.8688 94.97 94.752 94.9851 94.6355C95.0196 94.3553 95.057 94.0743 95.0915 93.7936C95.1281 93.4942 95.1619 93.1933 95.1986 92.8939C95.2223 92.6954 95.2503 92.4961 95.2726 92.2979C95.2971 92.0918 95.3129 91.8842 95.3388 91.6784C95.3581 91.5193 95.3955 91.362 95.4106 91.2029C95.4343 90.9335 95.4458 90.6615 95.4652 90.3921C95.4641 90.2979 95.4769 90.204 95.5033 90.1136C95.5538 89.965 95.5897 89.8118 95.6105 89.6562C95.6636 89.3802 95.719 89.1036 95.7722 88.8316C95.7671 88.8262 95.7621 88.8204 95.7567 88.815C95.7783 88.6812 95.8002 88.5304 95.8221 88.3597C95.9342 87.7912 96.0317 86.835 96.133 86.2763C96.1927 85.9534 96.2322 85.6257 96.2739 85.2992C96.3048 85.0659 96.322 84.8309 96.3494 84.5965C96.4011 84.1452 96.455 83.6939 96.5082 83.2407C96.5384 82.9804 96.5686 82.7192 96.5952 82.4578C96.6282 82.1421 96.6706 81.8253 96.6857 81.5085C96.7217 80.7711 96.7432 80.5614 96.7742 79.8233C96.7771 79.7948 96.7712 79.7662 96.7573 79.7412C96.7434 79.7163 96.7222 79.6963 96.6965 79.684C96.5906 79.6197 96.4914 79.5448 96.4004 79.4605C96.1002 79.15 95.8762 78.7731 95.7463 78.3601C95.6832 78.1622 95.6352 77.9599 95.6025 77.7547C95.5659 77.5435 95.5508 77.3276 95.5256 77.1135C95.517 77.1135 95.5077 77.1128 95.499 77.1128C95.4796 77.1996 95.453 77.2857 95.4422 77.3736C95.374 77.9301 95.3042 77.9587 95.2439 78.5167C95.1827 79.079 95.1565 79.6436 95.1447 80.2088C95.0527 79.6052 94.9384 78.9886 94.8169 78.3746L94.8162 78.3717C94.8369 78.2886 94.8496 78.2037 94.8543 78.1181C94.896 77.5898 94.9671 77.0643 95.067 76.5439Z" fill="#D70926"/>
<path d="M128.86 19.1515V27.6456L132.029 19.1523L128.86 19.1515ZM151.679 69.4042C151.261 68.2534 150.779 67.0651 150.244 65.8652L147.459 59.5814L147.421 59.4953H144.891V71.9074H146.632V61.8481C147.001 62.9444 147.425 64.0208 147.903 65.0732L150.956 71.9074H153.42V59.4953H151.679V69.4042ZM158.747 61.2804H162.257V71.9074H164.261V61.2804H167.771V59.4953H158.747V61.2804ZM121.782 59.4953H120.062V64.5025H115.986V59.4953H113.982V71.9074H115.986V66.2869H120.062V71.9074H122.067V60.3987L122.491 59.7058L123.793 56.0215L122.067 59.0671L121.782 59.4953ZM137.537 59.4953H135.714V67.0188C135.714 69.415 135.077 70.437 133.586 70.437C132.246 70.437 131.623 69.4512 131.623 67.3341V59.4953H129.619V67.6661C129.619 70.6041 131.022 72.222 133.57 72.222C135.943 72.222 137.537 70.4905 137.537 67.9149V66.3794L136.981 67.0796L137.537 65.3567V65.3054L138.496 63.8104L139.38 61.5805L137.537 63.989V59.4953ZM34.1498 67.8831C34.1131 68.0502 34.024 68.4748 33.909 69.1901C33.7645 68.1927 33.6211 67.5475 33.5431 67.2322L31.5873 59.4953H30.0254L27.9891 67.8788C27.9615 67.988 27.8727 68.3721 27.7447 69.1879C27.6146 68.3091 27.4784 67.6524 27.381 67.2322L25.459 59.4953H23.5765L26.7154 71.9074H28.6224L30.4128 64.7325C30.5564 64.1462 30.6636 63.5515 30.7338 62.9518C30.8026 63.54 30.9038 64.1238 31.0367 64.7007L32.8269 71.9074H34.801L37.8885 59.4953H36.1207L34.1498 67.8831ZM43.3397 60.9318H44.378V70.4703H43.3397V71.9074H47.4202V70.4703H46.3827V60.9318H47.4202V59.4953H43.3397V60.9318ZM56.1358 59.4953H54.1318V71.9074H61.6553V70.1224H56.1358V59.4953ZM70.3 59.5105L66.5121 54.6291L67.9855 57.719L67.5945 57.8694L68.7004 59.4071L68.8085 59.4953H66.9663V71.9074H69.8964C73.537 71.9074 75.4623 69.7586 75.4623 65.6931C75.4623 61.7932 73.6761 59.6675 70.3 59.5105ZM69.748 70.1224H68.9706V61.2804H69.748C72.3255 61.2804 73.4249 62.5996 73.4249 65.6931C73.4249 68.7973 72.3255 70.1224 69.748 70.1224ZM81.3976 10.3233H83.344V1.81688L86.9753 1.81758V0.000740631H83.007L81.7354 0H77.7656V1.81758H81.3976V10.3233ZM89.5636 0.63361V10.3905H91.5112V5.75507L96.6799 6.30262V12.483L97.2046 12.1336C97.5635 11.8765 97.8765 11.56 98.1304 11.1977C98.3724 10.8733 98.541 10.4996 98.6242 10.1027L98.6264 10.0861L98.6271 10.0788L98.6285 10.0738V0.0687306H96.6813V4.47489L91.5108 3.92883L91.5112 0.0679899H88.6874C89.0338 0.153394 89.3421 0.352396 89.5636 0.63361ZM30.9508 47.9179L33.7203 43.7949L33.7081 19.1515L26.3313 19.1486C26.7102 19.2021 27.0726 19.3397 27.3922 19.5515C27.9006 19.818 28.3086 20.2441 28.5544 20.7651V41.1571L26.5124 40.2566L26.1573 40.0968C26.1365 40.0881 26.1221 40.0816 26.0833 40.0671L25.3257 39.733C24.0269 39.1168 21.4278 37.5292 20.466 35.1243C19.9381 33.8621 19.5981 32.5285 19.4569 31.1665L19.4522 19.1508H14.3018V19.1523H14.2831V29.9688C14.2795 30.0947 14.2759 30.2697 14.2759 30.465C14.2759 30.6313 14.2781 30.8121 14.2845 31.0118V41.1332L12.2374 40.2313L11.8385 40.0512L11.8378 40.057L11.0522 39.7091C9.75335 39.0929 7.15281 37.5046 6.19145 35.0997C5.66397 33.8371 5.32382 32.5034 5.18191 31.1412L5.17797 19.1255H0.028268L0.0182212 29.7316C0.00887364 29.9102 0.000961325 30.1569 0.000961325 30.4411C-0.0273939 32.9549 0.571938 35.4356 1.74399 37.6558C3.47343 40.6948 6.1758 43.0541 9.40977 44.3482L16.6774 47.8926L19.4385 43.7761V41.8175L19.6696 42.0041C20.8832 42.9909 22.2364 43.79 23.6844 44.375L30.9508 47.9179ZM107.95 8.64961H106.827C106.532 8.60839 104.787 8.16864 104.293 7.22478C103.996 6.71757 103.797 6.15789 103.707 5.57573H106.621V3.75815H103.712V1.57384H105.825L107.913 1.57458V0.13672L100.853 0.137424C101.201 0.224163 101.511 0.425239 101.732 0.708821C101.736 0.71245 101.738 0.715339 101.742 0.718931V5.16779H101.738L101.742 5.22275V5.29362H101.744L101.759 5.57136C101.825 6.58325 102.165 7.55768 102.743 8.38854C103.918 9.96741 105.809 10.3522 106.367 10.4426L106.503 10.465L106.514 10.4665L106.519 10.4672H107.95V8.64961ZM46.9013 47.7487V19.1508L39.4087 19.1486C39.9264 19.2428 40.4121 19.4669 40.8208 19.8001C41.2295 20.1334 41.5481 20.5651 41.7469 21.0552V43.6821L46.9013 47.7487ZM155.259 43.17C154.402 43.1049 149.535 41.8413 148.08 39.1182H148.079C147.228 37.6043 146.668 35.9427 146.428 34.2202L146.405 34.0596H154.56V29.2665H146.437V23.1823L152.483 23.1831L158.175 23.1838V19.1523L138.802 19.1486C139.37 19.2497 139.898 19.5099 140.325 19.8994C140.753 20.2888 141.062 20.7917 141.218 21.3503V33.1997H141.218L141.218 33.2163V33.2727H141.221L141.267 34.1782C141.365 35.5199 141.79 38.9779 143.986 41.9715C147.23 46.3303 152.474 47.4029 154.019 47.6539C154.019 47.6539 154.301 47.7016 154.396 47.7154L154.427 47.7205H158.276V43.1714C158.276 43.1714 156.011 43.2278 155.259 43.17ZM191.546 46.5285C189.858 45.3022 188.239 43.984 186.694 42.5798L186.506 42.412C184.88 40.9445 183.363 39.461 181.996 38.1244C181.233 37.3816 180.285 36.3083 179.372 35.2943C178.784 34.6404 178.214 34.0148 177.693 33.4998L177.584 33.3942L180.434 30.8382C181.439 30.0844 182.331 29.1901 183.084 28.1823C183.989 26.8472 184.251 25.1402 184.259 23.3769C184.267 21.6895 184.273 20.0723 184.273 20.0665L184.275 19.1544L162.755 19.1486C163.134 19.2023 163.496 19.3399 163.815 19.5515C164.29 19.8004 164.678 20.188 164.929 20.6632V30.7507H164.927V35.6826L164.929 47.6966H170.083V35.5394H172.472L172.503 35.5561C173.414 36.1558 174.239 36.8767 174.958 37.6992C176.048 38.8376 177.291 40.2357 178.642 41.5397C180.318 43.1591 182.197 44.9709 184.236 46.7093C186.273 48.4865 188.472 50.065 190.805 51.4236L192 52.0934V46.8974L191.546 46.5285ZM173.326 30.7102L173.285 30.7499H171.68V30.7485H170.083V23.22L173.382 23.2236L174.498 23.2243L176.755 23.2264L179.156 23.2286V24.3707C179.152 24.4058 179.145 24.4406 179.135 24.4748C179.093 24.6408 179.038 24.8033 178.971 24.9609C178.95 25.0108 178.926 25.065 178.902 25.1113C178.882 25.1576 178.859 25.1894 178.849 25.2119C178.808 25.2907 178.768 25.3717 178.713 25.4599C178.61 25.6227 178.008 26.2396 177.434 26.8211L173.326 30.7102ZM68.5095 21.6917L66.5189 19.3331L66.4157 19.1523H61.5252L66.737 28.8767V23.941H76.8801V19.1523H67.5446L68.5095 21.6917ZM67.1942 49.6038C66.5925 48.9963 65.9492 48.2991 65.9554 48.1016C65.9665 47.7313 64.9239 45.5915 64.9239 45.5915L66.0815 46.9219L66.5311 47.6973H66.737V35.2299L61.0206 19.1523L51.4367 19.1515V23.9418H61.5816L61.5809 47.6973H64.898L66.4078 50.0667L68.5095 53.0444L67.1942 49.6038ZM117.287 32.6131L117.655 30.2892L114.136 29.9167V19.1508L106.677 19.1486C107.179 19.2401 107.651 19.4533 108.052 19.7697C108.454 20.0862 108.773 20.4964 108.981 20.9648V47.6966H109.816L110.245 47.0341L111.623 43.7956L111.131 47.5049L111.099 47.6177L114.137 44.5623V34.7345L125.757 35.9633L127.485 31.3293L118.52 30.3811L117.287 32.6131ZM128.859 44.1717V53.4169L130.099 52.591C131.088 51.8817 131.951 51.0098 132.653 50.0118C133.315 49.1247 133.776 48.1027 134.005 47.0174L134.011 46.9682L134.013 46.9552L134.013 46.9538V19.1523H132.318L127.952 36.1955L128.859 36.2909V41.7647L131.141 37.42L130.069 41.2591L128.859 44.1717ZM95.1511 23.9425H102.129V19.1515L94.7043 19.1508L95.1183 22.3217L95.1511 23.9425ZM101.132 45.0671L101.385 43.7732L101.356 42.9291H97.3282C96.4981 42.8801 95.68 42.7052 94.9017 42.4105L95.7196 47.6467C95.7333 47.6488 95.7495 47.6517 95.7624 47.6539L96.4629 47.7154L101.09 47.7226L101.316 47.7212H103.362V42.9299H102.442L101.132 45.0671ZM90.1495 38.8759C88.5947 36.1253 88.4596 34.0104 88.4441 33.6539V27.105C88.4438 29.0517 88.4431 31.7338 88.4398 31.7155L88.4409 23.9418L93.4989 23.9425L93.6528 22.5972L94.0319 19.1508L81.09 19.1486C81.4685 19.2025 81.8305 19.34 82.1498 19.5515L82.1545 19.5537C82.5001 19.8015 82.8187 20.0854 83.1051 20.4006C83.1732 20.5002 83.2341 20.6046 83.2873 20.7131V30.7753L83.3901 34.7561L83.3972 34.8184C83.5677 36.3909 83.9716 37.9288 84.5955 39.3808C84.5955 39.3808 85.1223 40.4917 85.1874 40.6161C85.4247 41.0342 85.688 41.4369 85.9755 41.8218L87.0095 45.2805L88.8618 47.9396L88.1401 44.7503C88.1123 44.5248 88.0722 44.301 88.0201 44.0798C87.7519 43.0817 87.5302 42.1212 87.5302 42.1212L87.9945 42.5393L87.5302 38.0651L89.2952 45.0548C90.4512 45.8449 91.7051 46.4792 93.0249 46.9415L93.7113 43.7472L93.8447 44.082L94.1893 42.1371C92.6134 41.4732 90.9555 40.3912 90.1495 38.8759ZM186.451 14.9363H186.723L187.132 15.614H187.396L186.953 14.9255C187.025 14.9179 187.095 14.896 187.159 14.8611C187.22 14.8311 187.27 14.7822 187.301 14.7215C187.34 14.6531 187.359 14.5752 187.356 14.4966C187.362 14.4334 187.353 14.3696 187.33 14.3107C187.306 14.2519 187.268 14.1997 187.22 14.1588C187.099 14.0769 186.954 14.0387 186.808 14.0503H186.218V15.614H186.451V14.9363ZM186.451 14.2514H186.769C186.997 14.2543 187.109 14.3295 187.109 14.4828C187.109 14.592 187.079 14.66 187.015 14.6904C186.925 14.7254 186.829 14.7407 186.733 14.7352H186.451V14.2514ZM185.683 15.8867C185.821 16.0202 185.984 16.1247 186.162 16.1941C186.342 16.2684 186.535 16.3063 186.73 16.3055C186.923 16.3056 187.114 16.2693 187.293 16.1984C187.471 16.127 187.633 16.0211 187.77 15.8867C187.907 15.7523 188.017 15.5924 188.093 15.4158C188.172 15.2306 188.212 15.0313 188.212 14.83C188.212 14.6287 188.172 14.4294 188.093 14.2442C188.021 14.0672 187.911 13.9079 187.772 13.7769C187.492 13.5069 187.118 13.3568 186.73 13.3581C186.534 13.3603 186.341 13.3976 186.159 13.4681C185.983 13.5415 185.822 13.6461 185.683 13.7769C185.545 13.911 185.435 14.0706 185.358 14.247C185.279 14.4308 185.239 14.6295 185.241 14.83C185.24 15.027 185.279 15.2221 185.355 15.4038C185.43 15.5854 185.542 15.7496 185.683 15.8867ZM185.624 14.3483C185.682 14.2017 185.77 14.0689 185.882 13.9585C185.99 13.8467 186.119 13.7571 186.261 13.6945C186.41 13.6351 186.57 13.6049 186.73 13.6055C186.889 13.6048 187.047 13.635 187.195 13.6945C187.336 13.7559 187.463 13.8443 187.57 13.9548C187.679 14.0668 187.766 14.1989 187.825 14.344C187.884 14.4989 187.914 14.6638 187.913 14.83C187.916 15.0499 187.862 15.2669 187.758 15.46C187.656 15.643 187.507 15.7955 187.327 15.9019C187.145 16.0068 186.939 16.0617 186.73 16.061C186.518 16.0621 186.31 16.0073 186.125 15.9019C185.947 15.7939 185.798 15.6418 185.694 15.46C185.587 15.2677 185.533 15.0504 185.536 14.83C185.535 14.6653 185.565 14.5019 185.624 14.3483Z" fill="black"/>
</svg>
