<svg width="503" height="931" viewBox="0 0 503 931" fill="none" xmlns="http://www.w3.org/2000/svg">
<g opacity="0.1">
<path d="M382.881 492.219C384.387 493.768 386 495.21 387.707 496.534C388.179 495.593 388.541 494.958 388.833 494.296C390.809 487.989 392.438 481.578 393.713 475.092C398.977 467.773 405.526 458.578 410.803 450.89C407.827 457.171 404.851 463.447 401.876 469.718C398.052 477.734 395.827 496.506 392.823 504.822C392.706 505.211 392.689 505.624 392.774 506.021C392.859 506.419 393.044 506.788 393.31 507.094C395.518 510.433 397.149 514.121 398.135 518.003C398.205 518.352 398.316 518.693 398.4 519.042C398.88 522.045 399.682 524.987 400.792 527.818C402.29 539.016 401.529 550.401 398.552 561.298L418.041 523.482L440.846 512.162L483.891 460.907C476.778 463.96 470.528 465.793 470.417 462.852C470.215 457.568 470.451 426.737 470.451 426.737L468.789 380.703C468.789 380.703 468.22 354.939 468.22 337.916C468.241 335.254 468.261 332.593 468.283 329.935C468.338 327.259 468.414 325.146 468.547 324.08C468.644 323.278 468.567 323.236 468.331 323.829C468.421 311.707 468.518 299.588 468.623 287.47C468.72 278.324 468.97 269.151 468.957 259.985C468.786 255.375 468.991 250.759 469.568 246.183C470.667 239.519 471.313 232.771 472.03 226.037L428.922 326.45L439.484 287.093C439.526 286.856 439.56 286.627 439.602 286.397C443.829 262.25 453.452 238.843 457.888 214.731C459.772 204.492 461.918 194.326 464.326 184.235C464.555 183.238 464.75 182.227 464.993 181.23C465.703 178.289 466.474 175.361 467.205 172.426C466.12 176.337 465.265 180.296 464.326 184.235C462.498 192.139 460.927 200.1 459.251 208.061C458.778 210.27 458.291 212.493 457.888 214.731C457.22 218.468 456.567 222.204 455.899 225.933L482.278 127.661C482.251 127.396 482.292 127.124 482.251 126.859L482.257 126.845C483.091 123.562 490.267 71.8606 490.267 71.8606C490.267 71.8606 466.732 143.456 464.145 151.716C462.504 156.916 457.415 159.67 455.872 164.877C452.27 177.062 404.351 329.601 403.781 332.403C402.989 336.257 393.408 353.524 392.698 357.386C390.502 369.675 390.794 385.268 387.164 397.237C379.697 421.655 379.752 450.994 378.07 456.027C376.804 459.735 375.414 473.587 374.106 477.295C373.369 479.344 372.646 481.408 371.909 483.52C372.298 483.815 372.702 484.089 373.119 484.342C376.86 486.295 380.178 488.972 382.881 492.219ZM135.427 774.084C135.189 772.38 134.563 770.754 133.599 769.33C132.962 768.397 132.491 767.359 132.208 766.263C131.061 761.489 129.988 756.693 128.989 751.876C128.806 750.92 128.27 750.069 127.488 749.492C121.633 744.283 116.434 738.377 112.007 731.905C111.388 731.131 110.766 730.357 110.147 729.583C112.032 729.493 111.871 729.144 113.637 728.635L112.167 726.795L95.7965 682.211L125.76 733.62L125.847 733.717C125.792 731.426 125.517 729.145 125.026 726.907C122.912 716.472 120.708 706.044 118.685 695.581C117.788 690.994 117.183 686.331 116.509 681.709C115.8 676.774 115.167 671.818 114.486 666.869C114.054 663.816 113.435 660.749 113.136 657.674C112.622 652.314 112.233 646.982 111.885 641.607C111.343 632.921 110.863 634.413 110.383 625.721C110.23 622.932 110.21 620.137 110.175 617.328C110.161 616.422 110.008 615.69 109.076 615.313C104.368 613.149 100.061 610.198 96.339 606.587C95.3864 605.743 94.4858 604.844 93.5574 603.98C86.0169 559.346 70.6172 557.137 61.5817 539.396C47.1408 530.118 27.5616 517.083 27.5616 517.083L0.125978 494.275C0.125978 494.275 7.00575 509.423 16.5589 530.509C17.7579 533.889 18.9405 537.277 20.1779 540.658C23.0976 548.598 26.1014 556.488 29.0354 564.428C31.0311 569.788 33.0103 575.167 34.9732 580.565C38.2554 589.515 41.5302 598.454 44.7976 607.381C46.2927 611.494 47.6206 615.676 49.2125 619.761C52.835 628.963 56.5551 638.136 60.2395 647.323C60.824 648.794 61.2826 650.314 61.9155 651.777C63.4519 655.388 65.0652 658.957 66.6158 662.547C68.7432 667.475 70.8428 672.424 72.9424 677.346C74.2156 680.002 75.3527 682.722 76.3492 685.494C78.1227 691.022 79.7218 696.62 81.2233 702.238C82.9435 708.502 85.1113 714.633 87.7101 720.585C88.0844 721.412 88.5095 722.215 88.983 722.989C92.4767 728.819 96.3947 734.383 100.705 739.635C101.769 740.897 102.93 742.089 103.931 743.393C108.805 749.722 113.631 756.079 118.511 762.387C121.598 766.382 124.725 770.35 127.891 774.293C130.595 777.633 133.376 780.909 136.137 784.192C136.628 784.712 137.148 785.206 137.694 785.67C137.82 785.578 137.955 785.498 138.097 785.433C137.931 784.812 137.763 784.192 137.61 783.592C136.86 780.428 135.928 777.283 135.427 774.084ZM0.563896 123.485C0.600158 124.769 0.556104 126.055 0.432119 127.333C0.213652 129.374 0.400232 131.437 0.981064 133.405C1.67234 135.878 1.98871 138.442 1.91947 141.01C1.79488 151.549 1.72081 162.077 1.69731 172.593C1.59523 174.948 1.76796 177.306 2.21204 179.62C3.55338 185.266 4.90968 190.954 6.80067 196.44C8.90738 202.554 11.0419 208.667 13.1557 214.78C13.123 219.34 13.4764 223.894 14.2122 228.394L27.5616 272.295L2.57304 212.319V219.353C2.55958 223.521 2.53174 227.676 2.54534 231.824C2.40803 233.707 2.4921 235.599 2.79585 237.462C3.64737 240.906 4.40569 244.371 5.32982 247.793L11.1737 259.831L21.3113 289.979L43.5702 347.564L3.50504 286.843C3.51572 288.013 3.51849 289.178 3.56761 290.356C3.77622 294.894 4.00555 299.418 4.24193 303.955C4.29991 305.463 4.43914 306.966 4.65909 308.459C5.02077 310.863 5.72988 313.198 5.89648 315.61C6.0347 318.554 6.33179 321.489 6.78643 324.401C7.89219 330.709 8.73368 337.066 9.86001 343.368C10.6731 347.919 11.8898 352.374 12.7797 356.918C14.1845 364.028 15.3038 371.208 16.8615 378.298C16.9861 378.862 17.0423 379.42 17.1534 379.984C16.6485 387.546 16.5499 395.129 16.8579 402.702C16.7857 403.553 16.9455 404.409 17.32 405.176C15.627 407.107 17.9636 452.298 17.9636 452.298C17.1449 464.924 18.0535 477.602 20.6641 489.981C20.6641 490.016 34.153 508.105 35.0223 509.373C36.3609 511.187 37.7952 512.928 39.319 514.588C45.5612 521.778 53.4215 527.374 62.2494 530.913C63.4702 531.48 64.6025 532.222 65.6106 533.116C74.3543 545.544 84.5154 558.287 87.8908 557.255C87.9086 557.206 87.4772 556.293 86.9632 554.697L86.9802 554.704C86.7439 550.529 85.2979 544.387 85.2979 539.382C85.2991 535.466 85.8658 531.571 86.9802 527.818C88.3636 521.895 90.1025 516.062 92.1876 510.35C92.4211 509.91 92.5635 509.436 92.8134 509.004C93.13 508.456 93.3401 507.853 93.4328 507.227C95.6883 501.175 98.9345 495.542 103.038 490.56C104.667 489.002 106.391 487.547 108.2 486.204C109.362 485.36 109.209 484.37 108.958 483.206C107.102 474.325 104.842 455.358 103.897 446.303C103.368 441.187 102.235 436.14 101.421 431.072C100.219 423.362 99.1826 415.639 97.7986 407.979C97.1461 404.254 96.1523 400.597 94.8297 397.056C93.21 392.831 90.9431 388.879 89.2051 384.69C87.8117 381.428 86.6589 378.069 85.7563 374.638C83.8931 367.165 82.3361 359.609 80.5975 352.109C79.6385 347.996 78.7136 343.841 77.5659 339.791C74.3956 328.673 71.1696 317.567 67.8882 306.472C65.9687 299.947 63.9389 293.458 62.0265 286.968C60.7059 282.465 59.2108 277.983 58.3072 273.404C55.4906 261.723 51.8496 250.257 47.412 239.093C44.8183 231.593 41.8153 224.239 39.3746 216.697C37.0593 209.503 35.2865 202.142 33.1933 194.872C27.8329 176.205 22.4164 157.537 17.0837 138.87C14.7548 130.791 12.5712 122.704 10.3399 114.612C10.0686 113.67 9.95693 112.681 9.65142 111.74C9.07409 109.927 8.32358 108.164 7.79459 106.331C7.07835 103.8 6.60561 101.2 5.84096 98.6764C4.4156 93.8876 2.87917 89.148 1.36347 84.4005C1.3221 84.2685 1.00888 84.1914 0.78682 84.0665C0.0609909 85.5057 -0.171323 87.1448 0.125978 88.7297C0.244165 100.315 0.417943 111.886 0.563896 123.485ZM468.789 498.555L420.982 528.564L396.808 568.346C392.82 582.677 387.109 596.468 379.801 609.417C379.703 609.591 379.675 609.737 379.592 609.911C376.707 612.177 374.065 614.066 374.065 614.066L370.06 617.314L369.991 618.214C369.991 618.214 369.684 621.051 369.476 622.466C369.295 623.728 368.905 624.989 368.836 626.279C368.475 632.141 368.127 638.059 367.863 643.956C367.363 655.075 367.015 666.193 366.431 677.318C366.25 680.775 365.485 684.205 364.998 687.648C364.512 691.008 364.011 694.389 363.469 698.181C366.889 693.594 370.255 689.523 373.175 685.139C376.679 679.876 379.794 674.349 383.089 668.939C384.564 666.506 385.836 663.969 387.136 661.445C388.393 661.341 389.64 661.148 390.87 660.867L408.148 636.233L381.643 698.181L374.767 702.482C373.523 704.935 372.299 707.389 371.061 709.843C370.449 711.055 370.129 712.401 369.573 713.635C368.913 715.241 368.165 716.809 367.334 718.333C365.56 720.9 364.626 723.958 364.664 727.081C364.666 727.533 364.619 727.984 364.525 728.426C363.719 734.728 362.704 741.008 362.148 747.345C361.313 756.846 359.881 766.277 358.185 775.66C356.948 781.978 356.403 788.413 356.558 794.85C356.586 795.54 356.669 796.216 356.711 796.92H357.142C357.726 795.582 358.31 794.243 358.866 792.891C364.178 780.33 369.476 767.771 374.76 755.215C377.249 749.311 379.752 743.392 382.325 737.523C385.106 731.152 387.734 724.69 390.821 718.486C395.813 708.491 401.125 698.669 406.326 688.764C409.691 682.344 412.958 675.902 416.449 669.56C420.022 662.729 423.193 655.696 425.947 648.494C427.56 644.528 428.853 640.408 430.41 636.386C432.107 631.953 433.929 627.575 435.709 623.156C437.002 619.935 438.392 616.75 439.616 613.508C441.229 609.193 442.689 604.837 444.246 600.515C444.928 598.591 445.665 596.681 446.374 594.771C447.514 591.663 448.668 588.553 449.753 585.43C450.977 581.952 452.339 578.481 453.285 574.919C454.516 570.186 455.705 565.432 456.908 560.685C469.916 524.332 491.706 477.448 500.557 458.802L468.789 498.555ZM251.835 571.266C252.53 566.936 253.506 562.657 254.754 558.454C256.743 552.591 259.344 546.945 261.652 541.216C263.349 536.999 265.114 532.823 266.644 528.564C267.904 524.444 269.814 520.554 272.304 517.042C274.111 514.699 275.933 512.406 277.769 510.099C277.977 509.813 278.242 509.478 278.464 509.186C281.078 507.248 284.047 505.08 287.78 502.424C287.627 501.239 287.447 500.284 287.363 499.301C286.71 491.759 286.07 474.018 285.43 466.49C284.095 450.653 282.765 434.813 281.44 418.971C280.925 412.865 280.466 406.752 279.952 400.638C279.117 390.831 278.255 381.03 277.421 371.223C276.865 364.572 276.318 357.936 275.78 351.314C275.224 344.434 274.672 337.565 274.125 330.709C273.958 328.597 273.931 326.485 273.722 324.351C273.013 317.144 272.234 309.901 271.567 302.687C271.024 296.804 270.607 290.921 270.12 285.016C269.551 278.094 268.897 271.151 268.396 264.243C268.021 258.869 267.812 253.509 267.548 248.121C267.45 246.092 267.409 244.043 267.326 242.007C267.214 238.899 267.103 235.804 266.964 232.709C266.894 231.05 266.7 229.377 266.658 227.724C266.352 216.439 266.13 205.153 265.838 193.875C265.657 187.595 265.504 181.321 265.156 175.054C264.809 168.85 264.475 162.647 263.71 156.485C262.167 143.805 260.317 131.146 258.607 118.474C256.743 104.748 254.898 91.0274 253.072 77.3118C252.488 72.9762 252.113 68.5914 251.543 64.228C250.277 54.7966 241.287 0 241.287 0C241.006 3.33064 240.496 6.63786 239.761 9.89817C239.644 10.3341 239.616 10.7893 239.678 11.2365C239.88 12.9796 245.73 107.202 246.328 116.571C246.953 126.413 247.496 136.228 248.205 146.042C248.733 153.285 249.527 160.513 250.152 167.756C250.382 170.398 250.583 173.04 250.819 175.681C250.607 175.18 250.348 174.7 250.048 174.246C248.97 172.691 247.204 169.785 245.07 166.159C244.924 164.752 247.364 242.446 247.364 242.446L227.555 52.6146C223.36 62.7181 220.335 73.2712 218.541 84.0665C216.289 90.3875 213.249 96.3973 209.492 101.953L209.701 107.85C209.447 111.029 209.211 114.012 208.995 116.947C208.738 120.411 208.564 123.896 208.279 127.361C207.625 135.37 206.916 143.359 206.249 151.354C205.692 157.997 205.154 164.64 204.636 171.283C204.093 177.759 203.44 184.248 203.085 190.738C202.863 194.655 203.044 198.615 203.168 202.56C203.565 214.501 204.142 226.476 204.42 238.445C204.573 245.688 204.142 252.958 204.601 260.215C205.34 269.053 205.161 277.944 204.065 286.745C203.412 291.22 203.447 295.793 203.168 300.31C203.044 302.603 202.96 304.869 202.772 307.127C202.55 309.532 202.293 311.93 201.924 314.321C201.514 316.907 200.888 319.493 200.457 322.107C198.531 333.825 196.631 345.549 194.756 357.281C194.081 361.554 193.365 365.785 192.83 370.065C192.176 375.391 191.689 380.723 191.133 386.07C190.765 389.674 190.313 393.285 190.021 396.889C189.715 400.757 189.59 404.625 189.311 408.473C189.013 412.698 188.401 416.908 188.282 421.132C187.942 434.53 187.761 447.949 187.503 461.339C187.348 469.048 187.799 486.482 186.666 494.561C186.464 495.391 186.409 495.997 186.663 496.143C185.672 504.32 190.956 502.41 201.823 511.521C201.761 511.667 201.694 511.883 201.632 511.988C202.235 512.65 202.896 513.256 203.607 513.8C204.892 514.577 206.088 515.494 207.173 516.533L207.201 516.561C208.282 517.597 209.297 518.701 210.239 519.865C214.781 525.451 218.128 531.914 220.071 538.852C221.104 542.958 221.747 547.152 221.99 551.379C222.435 555.742 222.497 560.155 222.88 564.512C223.241 568.736 223.839 572.925 224.277 577.15C225.097 585.208 225.112 583.131 226.148 591.181C226.645 595.085 226.968 599.023 227.239 602.969C224.748 612.755 223.154 622.748 222.477 632.824C222.104 637.355 221.573 641.607 220.933 645.65C220.898 645.231 220.891 644.807 220.856 644.388C220.391 638.575 219.807 632.775 219.32 626.962C218.687 619.587 216.449 610.839 215.621 603.492C215.446 601.553 215.125 599.631 214.662 597.741C214.578 597.274 214.397 596.813 214.272 596.346C213.961 597.45 213.834 598.597 213.897 599.741C213.917 601.566 213.387 603.355 212.374 604.872C211.532 606.182 210.81 607.604 210.024 608.977C209.508 610.07 208.881 611.107 208.153 612.072C204.868 616.485 201.02 620.448 196.709 623.86C196.612 623.915 196.584 624.117 196.57 624.152C197.141 626.209 197.777 630.245 198.962 633.981C201.249 639.993 202.845 646.246 203.718 652.621C204.239 655.973 204.455 659.368 204.844 662.763C205.442 668.005 206.277 673.247 206.659 678.524C207.055 683.947 207.055 689.412 207.187 694.863C207.285 698.725 207.187 702.601 207.417 706.455C207.49 707.738 207.538 709.006 207.597 710.289C207.313 714.032 207.149 717.929 207.198 722.084C207.215 723.533 207.263 725.129 207.337 726.816C207.084 729.075 206.698 731.317 206.179 733.529C205.922 736.095 204.71 738.469 202.786 740.179C203.273 742.243 203.731 743.999 204.121 745.762C206.012 754.49 207.834 763.231 210.385 771.777C211.053 774.008 211.672 776.287 212.152 778.573C212.84 781.905 213.327 785.272 213.994 788.618C214.088 789.071 214.237 789.517 214.355 789.963C215.805 799.381 217.304 807.892 218.677 814.374C218.701 814.486 218.659 814.57 218.694 814.681C218.77 814.939 218.837 815.204 218.91 815.462C219.063 816.159 219.219 816.919 219.368 817.567C219.38 818.217 219.601 818.845 219.998 819.359C220.707 821.799 221.454 824.224 222.045 826.699C223.144 831.223 223.951 835.845 224.972 840.431C225.89 844.529 226.982 848.642 227.893 852.762C229.019 857.795 229.979 862.835 231.111 867.853C232.718 875.013 234.199 882.206 236.124 889.274C237.627 894.746 239.706 900.072 241.576 905.446C243.881 912.089 246.197 918.721 248.525 925.34C248.779 925.976 249.067 926.597 249.387 927.202C249.693 924.483 249.957 922.232 250.249 919.987C250.917 914.585 251.64 909.169 252.307 903.759C253.017 897.988 253.67 892.188 254.379 886.416C254.838 882.59 255.38 878.749 255.812 874.928C256.284 870.956 256.591 866.954 257.091 862.988C257.466 859.921 258.19 856.889 258.482 853.822C258.94 848.629 259.163 843.387 259.538 838.194C259.516 836.378 259.765 834.569 260.275 832.826C261.252 829.962 261.947 827.008 262.348 824.008C263.376 818.689 264.447 813.357 265.476 808.115C265.379 808.01 265.282 807.899 265.177 807.795C265.594 805.215 266.018 802.308 266.442 799.019C268.611 788.06 270.496 769.63 272.457 758.86C273.611 752.635 274.376 746.32 275.182 740.026C275.78 735.529 276.114 730.999 276.643 726.482C277.644 717.782 278.687 709.083 279.715 700.349C280.299 695.33 280.884 690.297 281.398 685.258C282.038 679.172 282.858 673.066 283.15 666.959C283.845 652.746 284.263 648.703 284.861 634.476C284.918 633.928 284.804 633.375 284.535 632.895C284.266 632.414 283.855 632.029 283.358 631.792C281.31 630.552 279.391 629.109 277.629 627.484C271.822 621.498 267.489 614.234 264.975 606.272C263.756 602.459 262.826 598.558 262.195 594.604C261.485 590.533 261.193 586.372 260.706 582.245C260.539 582.245 260.359 582.231 260.192 582.231C259.816 583.904 259.302 585.563 259.093 587.257C257.773 597.985 256.423 598.536 255.256 609.291C254.073 620.13 253.566 631.012 253.336 641.907C251.556 630.272 249.346 618.388 246.996 606.552L246.981 606.496C247.381 604.894 247.628 603.258 247.719 601.609C248.526 591.426 249.9 581.296 251.835 571.266Z" fill="#2E3A55"/>
</g>
</svg>
